<?xml version="1.0" encoding="utf-8"?>
<!-- Generator: Adobe Illustrator 24.3.0, SVG Export Plug-In . SVG Version: 6.00 Build 0)  -->
<svg version="1.1" xmlns="http://www.w3.org/2000/svg" xmlns:xlink="http://www.w3.org/1999/xlink" x="0px" y="0px"
	 viewBox="0 0 500 500" style="enable-background:new 0 0 500 500;" xml:space="preserve">
<style type="text/css">
	.st0{fill:#EBEBEB;}
	.st1{fill:#E0E0E0;}
	.st2{fill:#F5F5F5;}
	.st3{fill:#E6E6E6;}
	.st4{fill:#F0F0F0;}
	.st5{fill:#F0F0F0;stroke:#E0E0E0;stroke-width:2;stroke-linecap:round;stroke-linejoin:round;stroke-miterlimit:10;}
	.st6{opacity:0.2;fill:#E0E0E0;enable-background:new    ;}
	.st7{display:none;}
	.st8{display:inline;}
	.st9{fill:#407BFF;}
	.st10{opacity:0.9;fill:#FFFFFF;enable-background:new    ;}
	.st11{opacity:0.2;enable-background:new    ;}
	.st12{opacity:0.5;fill:#FFFFFF;enable-background:new    ;}
	.st13{opacity:0.2;fill:#FFFFFF;enable-background:new    ;}
	.st14{fill:#263238;}
	.st15{opacity:0.3;fill:#FFFFFF;enable-background:new    ;}
	.st16{opacity:0.6;fill:#FFFFFF;enable-background:new    ;}
	.st17{fill:#E4897B;}
	.st18{opacity:0.1;enable-background:new    ;}
	.st19{fill:#FFFFFF;}
	.st20{fill:#DE5753;}
	.st21{fill:none;stroke:#263238;stroke-width:0.7247;stroke-linecap:round;stroke-linejoin:round;stroke-miterlimit:10;}
	.st22{fill:none;stroke:#263238;stroke-width:0.5;stroke-linecap:round;stroke-linejoin:round;stroke-miterlimit:10;}
	.st23{opacity:0.4;enable-background:new    ;}
	.st24{opacity:0.7;fill:#FFFFFF;enable-background:new    ;}
	.st25{opacity:0.4;fill:#FFFFFF;enable-background:new    ;}
	.st26{fill:none;stroke:#407BFF;stroke-width:0.75;stroke-linecap:round;stroke-linejoin:round;}
	.st27{fill:none;stroke:#407BFF;stroke-width:0.75;stroke-linecap:round;stroke-linejoin:round;stroke-dasharray:6.0301,6.0301;}
	.st28{opacity:0.1;fill:#FFFFFF;enable-background:new    ;}
</style>
<g id="Background_Complete">
	<g>
		<rect y="382.4" class="st0" width="500" height="0.2"/>
		<rect x="416.8" y="398.5" class="st0" width="33.1" height="0.2"/>
		<rect x="322.5" y="401.2" class="st0" width="8.7" height="0.2"/>
		<rect x="396.6" y="389.2" class="st0" width="19.2" height="0.2"/>
		<rect x="52.5" y="390.9" class="st0" width="43.2" height="0.2"/>
		<rect x="104.6" y="390.9" class="st0" width="6.3" height="0.2"/>
		<rect x="131.5" y="395.1" class="st0" width="93.7" height="0.2"/>
		<path class="st0" d="M237,337.8H43.9c-3.1,0-5.7-2.6-5.7-5.7V60.7c0-3.1,2.6-5.7,5.7-5.7H237c3.1,0,5.7,2.6,5.7,5.7v271.4
			C242.7,335.2,240.2,337.8,237,337.8z M43.9,55.2c-3,0-5.5,2.4-5.5,5.5v271.4c0,3,2.4,5.5,5.5,5.5H237c3,0,5.5-2.4,5.5-5.5V60.7
			c0-3-2.4-5.5-5.5-5.5H43.9z"/>
		<path class="st0" d="M453.3,337.8H260.2c-3.1,0-5.7-2.6-5.7-5.7V60.7c0-3.1,2.6-5.7,5.7-5.7h193.1c3.1,0,5.7,2.6,5.7,5.7v271.4
			C459,335.2,456.5,337.8,453.3,337.8z M260.2,55.2c-3,0-5.5,2.4-5.5,5.5v271.4c0,3,2.4,5.5,5.5,5.5h193.1c3,0,5.5-2.4,5.5-5.5V60.7
			c0-3-2.4-5.5-5.5-5.5H260.2z"/>
	</g>
	<g>
		<g>
			<rect x="203.1" y="117.2" class="st1" width="242.3" height="233.5"/>
			<rect x="207" y="121.4" class="st2" width="238.4" height="225.2"/>
			<g>
				<polygon class="st3" points="208.8,292.1 208.8,224.4 215.8,224.4 215.8,215.4 231.7,208 231.7,198.8 234.3,198.8 234.3,224.4 
					236.9,224.4 236.9,292.1 240.5,292.1 240.5,256.9 248.4,256.9 248.4,238.4 251,238.4 251,292.1 257.2,292.1 257.2,271.9 
					261.6,271.9 261.6,266.6 271.3,266.6 271.3,248.1 276.5,248.1 276.5,235.8 282.7,235.8 282.7,217.3 285.3,217.3 285.3,235.8 
					291.5,235.8 291.5,248.1 296.8,248.1 296.8,266.6 306.4,266.6 306.4,271.9 310.8,271.9 310.8,292.1 316.1,292.1 316.1,266.6 
					325.8,266.6 325.8,210.3 328.4,210.3 328.4,204.1 349.6,204.1 349.6,210.3 354,210.3 354,250.7 371.5,250.7 371.5,255.1 
					377.7,255.1 377.7,257.8 371.5,257.8 371.5,273.6 390,273.6 390,220.8 393.5,220.8 393.5,210.3 402.3,210.3 402.3,169.8 
					405,169.8 405,210.3 411.1,210.3 411.1,220.8 445.4,220.8 445.4,346.6 207,346.6 207,292.1 				"/>
				<g>
					<rect x="424.6" y="223.6" class="st4" width="2.5" height="2.5"/>
					<rect x="424.6" y="227.8" class="st4" width="2.5" height="2.5"/>
					<rect x="424.6" y="244.5" class="st4" width="2.5" height="2.5"/>
					<rect x="424.6" y="248.7" class="st4" width="2.5" height="2.5"/>
					<rect x="424.6" y="252.8" class="st4" width="2.5" height="2.5"/>
					<rect x="424.6" y="265.4" class="st4" width="2.5" height="2.5"/>
					<rect x="424.6" y="269.6" class="st4" width="2.5" height="2.5"/>
					<rect x="420.6" y="240.3" class="st4" width="2.5" height="2.5"/>
					<rect x="420.6" y="244.5" class="st4" width="2.5" height="2.5"/>
					<rect x="420.6" y="248.7" class="st4" width="2.5" height="2.5"/>
					<rect x="420.6" y="252.8" class="st4" width="2.5" height="2.5"/>
					<rect x="420.6" y="257" class="st4" width="2.5" height="2.5"/>
					<rect x="420.6" y="265.4" class="st4" width="2.5" height="2.5"/>
					<rect x="420.6" y="269.6" class="st4" width="2.5" height="2.5"/>
					<rect x="416.7" y="223.6" class="st4" width="2.5" height="2.5"/>
					<rect x="416.7" y="227.8" class="st4" width="2.5" height="2.5"/>
					<rect x="416.7" y="231.9" class="st4" width="2.5" height="2.5"/>
					<rect x="416.7" y="236.1" class="st4" width="2.5" height="2.5"/>
					<rect x="416.7" y="240.3" class="st4" width="2.5" height="2.5"/>
					<rect x="416.7" y="244.5" class="st4" width="2.5" height="2.5"/>
					<rect x="416.7" y="248.7" class="st4" width="2.5" height="2.5"/>
					<rect x="416.7" y="252.8" class="st4" width="2.5" height="2.5"/>
					<rect x="416.7" y="257" class="st4" width="2.5" height="2.5"/>
					<rect x="416.7" y="261.2" class="st4" width="2.5" height="2.5"/>
					<rect x="416.7" y="269.6" class="st4" width="2.5" height="2.5"/>
					<rect x="412.7" y="223.6" class="st4" width="2.5" height="2.5"/>
					<rect x="412.7" y="227.8" class="st4" width="2.5" height="2.5"/>
					<rect x="412.7" y="231.9" class="st4" width="2.5" height="2.5"/>
					<rect x="412.7" y="236.1" class="st4" width="2.5" height="2.5"/>
					<rect x="412.7" y="240.3" class="st4" width="2.5" height="2.5"/>
					<rect x="412.7" y="244.5" class="st4" width="2.5" height="2.5"/>
					<rect x="412.7" y="248.7" class="st4" width="2.5" height="2.5"/>
					<rect x="412.7" y="286.3" class="st4" width="2.5" height="2.5"/>
					<rect x="408.8" y="223.6" class="st4" width="2.5" height="2.5"/>
					<rect x="408.8" y="227.8" class="st4" width="2.5" height="2.5"/>
					<rect x="408.8" y="231.9" class="st4" width="2.5" height="2.5"/>
					<rect x="408.8" y="236.1" class="st4" width="2.5" height="2.5"/>
					<rect x="408.8" y="240.3" class="st4" width="2.5" height="2.5"/>
					<rect x="408.8" y="244.5" class="st4" width="2.5" height="2.5"/>
					<rect x="408.8" y="248.7" class="st4" width="2.5" height="2.5"/>
					<rect x="408.8" y="252.8" class="st4" width="2.5" height="2.5"/>
					<rect x="408.8" y="277.9" class="st4" width="2.5" height="2.5"/>
					<rect x="408.8" y="282.1" class="st4" width="2.5" height="2.5"/>
					<rect x="408.8" y="286.3" class="st4" width="2.5" height="2.5"/>
					<rect x="408.8" y="290.5" class="st4" width="2.5" height="2.5"/>
					<rect x="408.8" y="307.2" class="st4" width="2.5" height="2.5"/>
					<rect x="404.8" y="223.6" class="st4" width="2.5" height="2.5"/>
					<rect x="404.8" y="227.8" class="st4" width="2.5" height="2.5"/>
					<rect x="404.8" y="231.9" class="st4" width="2.5" height="2.5"/>
					<rect x="404.8" y="236.1" class="st4" width="2.5" height="2.5"/>
					<rect x="404.8" y="240.3" class="st4" width="2.5" height="2.5"/>
					<rect x="404.8" y="244.5" class="st4" width="2.5" height="2.5"/>
					<rect x="404.8" y="248.7" class="st4" width="2.5" height="2.5"/>
					<rect x="404.8" y="252.8" class="st4" width="2.5" height="2.5"/>
					<rect x="404.8" y="257" class="st4" width="2.5" height="2.5"/>
					<rect x="404.8" y="261.2" class="st4" width="2.5" height="2.5"/>
					<rect x="404.8" y="273.7" class="st4" width="2.5" height="2.5"/>
					<rect x="404.8" y="277.9" class="st4" width="2.5" height="2.5"/>
					<rect x="404.8" y="282.1" class="st4" width="2.5" height="2.5"/>
					<rect x="404.8" y="286.3" class="st4" width="2.5" height="2.5"/>
					<rect x="404.8" y="290.5" class="st4" width="2.5" height="2.5"/>
					<rect x="404.8" y="307.2" class="st4" width="2.5" height="2.5"/>
					<rect x="400.9" y="223.6" class="st4" width="2.5" height="2.5"/>
					<rect x="400.9" y="227.8" class="st4" width="2.5" height="2.5"/>
					<rect x="400.9" y="231.9" class="st4" width="2.5" height="2.5"/>
					<rect x="400.9" y="236.1" class="st4" width="2.5" height="2.5"/>
					<rect x="400.9" y="240.3" class="st4" width="2.5" height="2.5"/>
					<rect x="400.9" y="244.5" class="st4" width="2.5" height="2.5"/>
					<rect x="400.9" y="248.7" class="st4" width="2.5" height="2.5"/>
					<rect x="400.9" y="252.8" class="st4" width="2.5" height="2.5"/>
					<rect x="400.9" y="257" class="st4" width="2.5" height="2.5"/>
					<rect x="400.9" y="261.2" class="st4" width="2.5" height="2.5"/>
					<rect x="400.9" y="265.4" class="st4" width="2.5" height="2.5"/>
					<rect x="400.9" y="269.6" class="st4" width="2.5" height="2.5"/>
					<rect x="400.9" y="273.7" class="st4" width="2.5" height="2.5"/>
					<rect x="400.9" y="277.9" class="st4" width="2.5" height="2.5"/>
					<rect x="400.9" y="282.1" class="st4" width="2.5" height="2.5"/>
					<rect x="400.9" y="286.3" class="st4" width="2.5" height="2.5"/>
					<rect x="400.9" y="290.5" class="st4" width="2.5" height="2.5"/>
					<rect x="400.9" y="294.6" class="st4" width="2.5" height="2.5"/>
					<rect x="396.9" y="223.6" class="st4" width="2.5" height="2.5"/>
					<rect x="396.9" y="227.8" class="st4" width="2.5" height="2.5"/>
					<rect x="396.9" y="231.9" class="st4" width="2.5" height="2.5"/>
					<rect x="396.9" y="236.1" class="st4" width="2.5" height="2.5"/>
					<rect x="396.9" y="240.3" class="st4" width="2.5" height="2.5"/>
					<rect x="396.9" y="244.5" class="st4" width="2.5" height="2.5"/>
					<rect x="396.9" y="248.7" class="st4" width="2.5" height="2.5"/>
					<rect x="396.9" y="252.8" class="st4" width="2.5" height="2.5"/>
					<rect x="396.9" y="257" class="st4" width="2.5" height="2.5"/>
					<rect x="396.9" y="261.2" class="st4" width="2.5" height="2.5"/>
					<rect x="396.9" y="273.7" class="st4" width="2.5" height="2.5"/>
					<rect x="396.9" y="277.9" class="st4" width="2.5" height="2.5"/>
					<rect x="396.9" y="282.1" class="st4" width="2.5" height="2.5"/>
					<rect x="396.9" y="286.3" class="st4" width="2.5" height="2.5"/>
					<rect x="392.9" y="223.6" class="st4" width="2.5" height="2.5"/>
					<rect x="392.9" y="227.8" class="st4" width="2.5" height="2.5"/>
					<rect x="392.9" y="231.9" class="st4" width="2.5" height="2.5"/>
					<rect x="392.9" y="236.1" class="st4" width="2.5" height="2.5"/>
					<rect x="392.9" y="240.3" class="st4" width="2.5" height="2.5"/>
					<rect x="392.9" y="244.5" class="st4" width="2.5" height="2.5"/>
					<rect x="392.9" y="248.7" class="st4" width="2.5" height="2.5"/>
					<rect x="392.9" y="252.8" class="st4" width="2.5" height="2.5"/>
					<rect x="392.9" y="257" class="st4" width="2.5" height="2.5"/>
					<rect x="392.9" y="261.2" class="st4" width="2.5" height="2.5"/>
					<rect x="392.9" y="273.7" class="st4" width="2.5" height="2.5"/>
					<rect x="392.9" y="277.9" class="st4" width="2.5" height="2.5"/>
					<rect x="392.9" y="282.1" class="st4" width="2.5" height="2.5"/>
					<rect x="348.4" y="212.7" class="st4" width="2.5" height="2.5"/>
					<rect x="348.4" y="216.9" class="st4" width="2.5" height="2.5"/>
					<rect x="348.4" y="221.1" class="st4" width="2.5" height="2.5"/>
					<rect x="348.4" y="225.3" class="st4" width="2.5" height="2.5"/>
					<rect x="348.4" y="229.5" class="st4" width="2.5" height="2.5"/>
					<rect x="348.4" y="233.6" class="st4" width="2.5" height="2.5"/>
					<rect x="348.4" y="237.8" class="st4" width="2.5" height="2.5"/>
					<rect x="348.4" y="242" class="st4" width="2.5" height="2.5"/>
					<rect x="348.4" y="254.5" class="st4" width="2.5" height="2.5"/>
					<rect x="348.4" y="258.7" class="st4" width="2.5" height="2.5"/>
					<rect x="344.4" y="212.7" class="st4" width="2.5" height="2.5"/>
					<rect x="344.4" y="216.9" class="st4" width="2.5" height="2.5"/>
					<rect x="344.4" y="221.1" class="st4" width="2.5" height="2.5"/>
					<rect x="344.4" y="225.3" class="st4" width="2.5" height="2.5"/>
					<rect x="344.4" y="229.5" class="st4" width="2.5" height="2.5"/>
					<rect x="344.4" y="233.6" class="st4" width="2.5" height="2.5"/>
					<rect x="344.4" y="237.8" class="st4" width="2.5" height="2.5"/>
					<rect x="344.4" y="242" class="st4" width="2.5" height="2.5"/>
					<rect x="344.4" y="258.7" class="st4" width="2.5" height="2.5"/>
					<rect x="340.4" y="212.7" class="st4" width="2.5" height="2.5"/>
					<rect x="340.4" y="216.9" class="st4" width="2.5" height="2.5"/>
					<rect x="340.4" y="221.1" class="st4" width="2.5" height="2.5"/>
					<rect x="340.4" y="225.3" class="st4" width="2.5" height="2.5"/>
					<rect x="340.4" y="229.5" class="st4" width="2.5" height="2.5"/>
					<rect x="340.4" y="233.6" class="st4" width="2.5" height="2.5"/>
					<rect x="340.4" y="237.8" class="st4" width="2.5" height="2.5"/>
					<rect x="340.4" y="242" class="st4" width="2.5" height="2.5"/>
					<rect x="336.5" y="212.7" class="st4" width="2.5" height="2.5"/>
					<rect x="336.5" y="216.9" class="st4" width="2.5" height="2.5"/>
					<rect x="336.5" y="221.1" class="st4" width="2.5" height="2.5"/>
					<rect x="336.5" y="225.3" class="st4" width="2.5" height="2.5"/>
					<rect x="336.5" y="229.5" class="st4" width="2.5" height="2.5"/>
					<rect x="336.5" y="233.6" class="st4" width="2.5" height="2.5"/>
					<rect x="336.5" y="242" class="st4" width="2.5" height="2.5"/>
					<rect x="336.5" y="246.2" class="st4" width="2.5" height="2.5"/>
					<rect x="336.5" y="258.7" class="st4" width="2.5" height="2.5"/>
					<rect x="336.5" y="262.9" class="st4" width="2.5" height="2.5"/>
					<rect x="336.5" y="267.1" class="st4" width="2.5" height="2.5"/>
					<rect x="336.5" y="271.2" class="st4" width="2.5" height="2.5"/>
					<rect x="336.5" y="275.4" class="st4" width="2.5" height="2.5"/>
					<rect x="336.5" y="279.6" class="st4" width="2.5" height="2.5"/>
					<rect x="336.5" y="283.8" class="st4" width="2.5" height="2.5"/>
					<rect x="332.5" y="212.7" class="st4" width="2.5" height="2.5"/>
					<rect x="332.5" y="216.9" class="st4" width="2.5" height="2.5"/>
					<rect x="332.5" y="221.1" class="st4" width="2.5" height="2.5"/>
					<rect x="332.5" y="225.3" class="st4" width="2.5" height="2.5"/>
					<rect x="332.5" y="229.5" class="st4" width="2.5" height="2.5"/>
					<rect x="332.5" y="233.6" class="st4" width="2.5" height="2.5"/>
					<rect x="332.5" y="246.2" class="st4" width="2.5" height="2.5"/>
					<rect x="332.5" y="250.4" class="st4" width="2.5" height="2.5"/>
					<rect x="332.5" y="254.5" class="st4" width="2.5" height="2.5"/>
					<rect x="332.5" y="258.7" class="st4" width="2.5" height="2.5"/>
					<rect x="332.5" y="262.9" class="st4" width="2.5" height="2.5"/>
					<rect x="332.5" y="267.1" class="st4" width="2.5" height="2.5"/>
					<rect x="332.5" y="271.2" class="st4" width="2.5" height="2.5"/>
					<rect x="332.5" y="275.4" class="st4" width="2.5" height="2.5"/>
					<rect x="332.5" y="279.6" class="st4" width="2.5" height="2.5"/>
					<rect x="332.5" y="283.8" class="st4" width="2.5" height="2.5"/>
					<rect x="332.5" y="288" class="st4" width="2.5" height="2.5"/>
					<rect x="332.5" y="296.3" class="st4" width="2.5" height="2.5"/>
					<rect x="328.6" y="212.7" class="st4" width="2.5" height="2.5"/>
					<rect x="328.6" y="216.9" class="st4" width="2.5" height="2.5"/>
					<rect x="328.6" y="221.1" class="st4" width="2.5" height="2.5"/>
					<rect x="328.6" y="225.3" class="st4" width="2.5" height="2.5"/>
					<rect x="328.6" y="229.5" class="st4" width="2.5" height="2.5"/>
					<rect x="328.6" y="233.6" class="st4" width="2.5" height="2.5"/>
					<rect x="328.6" y="246.2" class="st4" width="2.5" height="2.5"/>
					<rect x="328.6" y="250.4" class="st4" width="2.5" height="2.5"/>
					<rect x="328.6" y="254.5" class="st4" width="2.5" height="2.5"/>
					<rect x="328.6" y="258.7" class="st4" width="2.5" height="2.5"/>
					<rect x="328.6" y="271.2" class="st4" width="2.5" height="2.5"/>
					<rect x="328.6" y="275.4" class="st4" width="2.5" height="2.5"/>
					<rect x="328.6" y="279.6" class="st4" width="2.5" height="2.5"/>
					<rect x="328.6" y="283.8" class="st4" width="2.5" height="2.5"/>
					<rect x="328.6" y="288" class="st4" width="2.5" height="2.5"/>
					<rect x="328.6" y="296.3" class="st4" width="2.5" height="2.5"/>
					<rect x="328.6" y="300.5" class="st4" width="2.5" height="2.5"/>
					<rect x="292.6" y="251.6" class="st4" width="2.5" height="2.5"/>
					<rect x="292.6" y="255.8" class="st4" width="2.5" height="2.5"/>
					<rect x="292.6" y="260" class="st4" width="2.5" height="2.5"/>
					<rect x="292.6" y="264.1" class="st4" width="2.5" height="2.5"/>
					<rect x="292.6" y="268.3" class="st4" width="2.5" height="2.5"/>
					<rect x="292.6" y="272.5" class="st4" width="2.5" height="2.5"/>
					<rect x="292.6" y="276.7" class="st4" width="2.5" height="2.5"/>
					<rect x="292.6" y="289.2" class="st4" width="2.5" height="2.5"/>
					<rect x="292.6" y="293.4" class="st4" width="2.5" height="2.5"/>
					<rect x="292.6" y="297.6" class="st4" width="2.5" height="2.5"/>
					<rect x="288.7" y="251.6" class="st4" width="2.5" height="2.5"/>
					<rect x="288.7" y="255.8" class="st4" width="2.5" height="2.5"/>
					<rect x="288.7" y="260" class="st4" width="2.5" height="2.5"/>
					<rect x="288.7" y="264.1" class="st4" width="2.5" height="2.5"/>
					<rect x="288.7" y="268.3" class="st4" width="2.5" height="2.5"/>
					<rect x="288.7" y="272.5" class="st4" width="2.5" height="2.5"/>
					<rect x="288.7" y="276.7" class="st4" width="2.5" height="2.5"/>
					<rect x="284.7" y="251.6" class="st4" width="2.5" height="2.5"/>
					<rect x="284.7" y="255.8" class="st4" width="2.5" height="2.5"/>
					<rect x="284.7" y="260" class="st4" width="2.5" height="2.5"/>
					<rect x="284.7" y="264.1" class="st4" width="2.5" height="2.5"/>
					<rect x="284.7" y="268.3" class="st4" width="2.5" height="2.5"/>
					<rect x="284.7" y="272.5" class="st4" width="2.5" height="2.5"/>
					<rect x="284.7" y="276.7" class="st4" width="2.5" height="2.5"/>
					<rect x="280.8" y="251.6" class="st4" width="2.5" height="2.5"/>
					<rect x="280.8" y="255.8" class="st4" width="2.5" height="2.5"/>
					<rect x="280.8" y="260" class="st4" width="2.5" height="2.5"/>
					<rect x="280.8" y="264.1" class="st4" width="2.5" height="2.5"/>
					<rect x="280.8" y="268.3" class="st4" width="2.5" height="2.5"/>
					<rect x="280.8" y="272.5" class="st4" width="2.5" height="2.5"/>
					<rect x="280.8" y="276.7" class="st4" width="2.5" height="2.5"/>
					<rect x="280.8" y="280.9" class="st4" width="2.5" height="2.5"/>
					<rect x="280.8" y="285" class="st4" width="2.5" height="2.5"/>
					<rect x="280.8" y="289.2" class="st4" width="2.5" height="2.5"/>
					<rect x="280.8" y="293.4" class="st4" width="2.5" height="2.5"/>
					<rect x="276.8" y="251.6" class="st4" width="2.5" height="2.5"/>
					<rect x="276.8" y="255.8" class="st4" width="2.5" height="2.5"/>
					<rect x="276.8" y="260" class="st4" width="2.5" height="2.5"/>
					<rect x="276.8" y="264.1" class="st4" width="2.5" height="2.5"/>
					<rect x="276.8" y="268.3" class="st4" width="2.5" height="2.5"/>
					<rect x="276.8" y="272.5" class="st4" width="2.5" height="2.5"/>
					<rect x="276.8" y="276.7" class="st4" width="2.5" height="2.5"/>
					<rect x="276.8" y="280.9" class="st4" width="2.5" height="2.5"/>
					<rect x="276.8" y="285" class="st4" width="2.5" height="2.5"/>
					<rect x="276.8" y="289.2" class="st4" width="2.5" height="2.5"/>
					<rect x="276.8" y="293.4" class="st4" width="2.5" height="2.5"/>
					<rect x="276.8" y="297.6" class="st4" width="2.5" height="2.5"/>
					<rect x="276.8" y="310.1" class="st4" width="2.5" height="2.5"/>
					<rect x="276.8" y="314.3" class="st4" width="2.5" height="2.5"/>
					<rect x="272.8" y="251.6" class="st4" width="2.5" height="2.5"/>
					<rect x="272.8" y="255.8" class="st4" width="2.5" height="2.5"/>
					<rect x="272.8" y="260" class="st4" width="2.5" height="2.5"/>
					<rect x="272.8" y="272.5" class="st4" width="2.5" height="2.5"/>
					<rect x="272.8" y="276.7" class="st4" width="2.5" height="2.5"/>
					<rect x="272.8" y="280.9" class="st4" width="2.5" height="2.5"/>
					<rect x="272.8" y="285" class="st4" width="2.5" height="2.5"/>
					<rect x="272.8" y="289.2" class="st4" width="2.5" height="2.5"/>
					<rect x="272.8" y="293.4" class="st4" width="2.5" height="2.5"/>
					<rect x="272.8" y="297.6" class="st4" width="2.5" height="2.5"/>
					<rect x="272.8" y="310.1" class="st4" width="2.5" height="2.5"/>
					<rect x="272.8" y="314.3" class="st4" width="2.5" height="2.5"/>
					<rect x="272.8" y="318.5" class="st4" width="2.5" height="2.5"/>
					<rect x="231.3" y="226.5" class="st4" width="2.5" height="2.5"/>
					<rect x="231.3" y="230.7" class="st4" width="2.5" height="2.5"/>
					<rect x="231.3" y="234.9" class="st4" width="2.5" height="2.5"/>
					<rect x="231.3" y="239.1" class="st4" width="2.5" height="2.5"/>
					<rect x="231.3" y="243.2" class="st4" width="2.5" height="2.5"/>
					<rect x="231.3" y="247.4" class="st4" width="2.5" height="2.5"/>
					<rect x="231.3" y="251.6" class="st4" width="2.5" height="2.5"/>
					<rect x="231.3" y="255.8" class="st4" width="2.5" height="2.5"/>
					<rect x="231.3" y="260" class="st4" width="2.5" height="2.5"/>
					<rect x="231.3" y="264.1" class="st4" width="2.5" height="2.5"/>
					<rect x="231.3" y="268.3" class="st4" width="2.5" height="2.5"/>
					<rect x="231.3" y="272.5" class="st4" width="2.5" height="2.5"/>
					<rect x="231.3" y="276.7" class="st4" width="2.5" height="2.5"/>
					<rect x="231.3" y="280.9" class="st4" width="2.5" height="2.5"/>
					<rect x="231.3" y="285" class="st4" width="2.5" height="2.5"/>
					<rect x="231.3" y="289.2" class="st4" width="2.5" height="2.5"/>
					<rect x="231.3" y="293.4" class="st4" width="2.5" height="2.5"/>
					<rect x="231.3" y="297.6" class="st4" width="2.5" height="2.5"/>
					<rect x="231.3" y="301.7" class="st4" width="2.5" height="2.5"/>
					<rect x="231.3" y="305.9" class="st4" width="2.5" height="2.5"/>
					<rect x="231.3" y="310.1" class="st4" width="2.5" height="2.5"/>
					<rect x="231.3" y="314.3" class="st4" width="2.5" height="2.5"/>
					<rect x="231.3" y="318.5" class="st4" width="2.5" height="2.5"/>
					<rect x="227.4" y="226.5" class="st4" width="2.5" height="2.5"/>
					<rect x="227.4" y="230.7" class="st4" width="2.5" height="2.5"/>
					<rect x="227.4" y="234.9" class="st4" width="2.5" height="2.5"/>
					<rect x="227.4" y="239.1" class="st4" width="2.5" height="2.5"/>
					<rect x="227.4" y="243.2" class="st4" width="2.5" height="2.5"/>
					<rect x="227.4" y="247.4" class="st4" width="2.5" height="2.5"/>
					<rect x="227.4" y="251.6" class="st4" width="2.5" height="2.5"/>
					<rect x="227.4" y="255.8" class="st4" width="2.5" height="2.5"/>
					<rect x="227.4" y="260" class="st4" width="2.5" height="2.5"/>
					<rect x="227.4" y="264.1" class="st4" width="2.5" height="2.5"/>
					<rect x="227.4" y="268.3" class="st4" width="2.5" height="2.5"/>
					<rect x="227.4" y="272.5" class="st4" width="2.5" height="2.5"/>
					<rect x="227.4" y="276.7" class="st4" width="2.5" height="2.5"/>
					<rect x="227.4" y="280.9" class="st4" width="2.5" height="2.5"/>
					<rect x="227.4" y="285" class="st4" width="2.5" height="2.5"/>
					<rect x="227.4" y="289.2" class="st4" width="2.5" height="2.5"/>
					<rect x="227.4" y="293.4" class="st4" width="2.5" height="2.5"/>
					<rect x="227.4" y="297.6" class="st4" width="2.5" height="2.5"/>
					<rect x="227.4" y="301.7" class="st4" width="2.5" height="2.5"/>
					<rect x="223.4" y="226.5" class="st4" width="2.5" height="2.5"/>
					<rect x="223.4" y="230.7" class="st4" width="2.5" height="2.5"/>
					<rect x="223.4" y="234.9" class="st4" width="2.5" height="2.5"/>
					<rect x="223.4" y="239.1" class="st4" width="2.5" height="2.5"/>
					<rect x="223.4" y="243.2" class="st4" width="2.5" height="2.5"/>
					<rect x="223.4" y="247.4" class="st4" width="2.5" height="2.5"/>
					<rect x="223.4" y="251.6" class="st4" width="2.5" height="2.5"/>
					<rect x="223.4" y="255.8" class="st4" width="2.5" height="2.5"/>
					<rect x="223.4" y="260" class="st4" width="2.5" height="2.5"/>
					<rect x="223.4" y="264.1" class="st4" width="2.5" height="2.5"/>
					<rect x="223.4" y="268.3" class="st4" width="2.5" height="2.5"/>
					<rect x="223.4" y="272.5" class="st4" width="2.5" height="2.5"/>
					<rect x="223.4" y="276.7" class="st4" width="2.5" height="2.5"/>
					<rect x="223.4" y="280.9" class="st4" width="2.5" height="2.5"/>
					<rect x="223.4" y="285" class="st4" width="2.5" height="2.5"/>
					<rect x="223.4" y="289.2" class="st4" width="2.5" height="2.5"/>
					<rect x="223.4" y="293.4" class="st4" width="2.5" height="2.5"/>
					<rect x="223.4" y="297.6" class="st4" width="2.5" height="2.5"/>
					<rect x="223.4" y="301.7" class="st4" width="2.5" height="2.5"/>
					<rect x="219.5" y="226.5" class="st4" width="2.5" height="2.5"/>
					<rect x="219.5" y="230.7" class="st4" width="2.5" height="2.5"/>
					<rect x="219.5" y="234.9" class="st4" width="2.5" height="2.5"/>
					<rect x="219.5" y="239.1" class="st4" width="2.5" height="2.5"/>
					<rect x="219.5" y="243.2" class="st4" width="2.5" height="2.5"/>
					<rect x="219.5" y="247.4" class="st4" width="2.5" height="2.5"/>
					<rect x="219.5" y="251.6" class="st4" width="2.5" height="2.5"/>
					<rect x="219.5" y="255.8" class="st4" width="2.5" height="2.5"/>
					<rect x="219.5" y="260" class="st4" width="2.5" height="2.5"/>
					<rect x="219.5" y="264.1" class="st4" width="2.5" height="2.5"/>
					<rect x="219.5" y="268.3" class="st4" width="2.5" height="2.5"/>
					<rect x="219.5" y="272.5" class="st4" width="2.5" height="2.5"/>
					<rect x="219.5" y="276.7" class="st4" width="2.5" height="2.5"/>
					<rect x="219.5" y="280.9" class="st4" width="2.5" height="2.5"/>
					<rect x="219.5" y="285" class="st4" width="2.5" height="2.5"/>
					<rect x="215.5" y="226.5" class="st4" width="2.5" height="2.5"/>
					<rect x="215.5" y="230.7" class="st4" width="2.5" height="2.5"/>
					<rect x="215.5" y="234.9" class="st4" width="2.5" height="2.5"/>
					<rect x="215.5" y="239.1" class="st4" width="2.5" height="2.5"/>
					<rect x="215.5" y="243.2" class="st4" width="2.5" height="2.5"/>
					<rect x="215.5" y="247.4" class="st4" width="2.5" height="2.5"/>
					<rect x="215.5" y="251.6" class="st4" width="2.5" height="2.5"/>
					<rect x="215.5" y="255.8" class="st4" width="2.5" height="2.5"/>
					<rect x="215.5" y="260" class="st4" width="2.5" height="2.5"/>
					<rect x="215.5" y="264.1" class="st4" width="2.5" height="2.5"/>
					<rect x="215.5" y="268.3" class="st4" width="2.5" height="2.5"/>
					<rect x="215.5" y="272.5" class="st4" width="2.5" height="2.5"/>
					<rect x="215.5" y="276.7" class="st4" width="2.5" height="2.5"/>
					<rect x="211.6" y="226.5" class="st4" width="2.5" height="2.5"/>
					<rect x="211.6" y="230.7" class="st4" width="2.5" height="2.5"/>
					<rect x="211.6" y="234.9" class="st4" width="2.5" height="2.5"/>
					<rect x="211.6" y="239.1" class="st4" width="2.5" height="2.5"/>
					<rect x="211.6" y="243.2" class="st4" width="2.5" height="2.5"/>
					<rect x="211.6" y="247.4" class="st4" width="2.5" height="2.5"/>
					<rect x="211.6" y="251.6" class="st4" width="2.5" height="2.5"/>
					<rect x="211.6" y="255.8" class="st4" width="2.5" height="2.5"/>
					<rect x="211.6" y="260" class="st4" width="2.5" height="2.5"/>
					<rect x="211.6" y="264.1" class="st4" width="2.5" height="2.5"/>
					<rect x="211.6" y="268.3" class="st4" width="2.5" height="2.5"/>
					<rect x="211.6" y="272.5" class="st4" width="2.5" height="2.5"/>
					<rect x="442.6" y="225.3" class="st4" width="2.5" height="2.5"/>
					<rect x="442.6" y="229.5" class="st4" width="2.5" height="2.5"/>
					<rect x="442.6" y="233.6" class="st4" width="2.5" height="2.5"/>
					<rect x="442.6" y="237.8" class="st4" width="2.5" height="2.5"/>
					<rect x="442.6" y="242" class="st4" width="2.5" height="2.5"/>
					<rect x="442.6" y="246.2" class="st4" width="2.5" height="2.5"/>
					<rect x="442.6" y="250.4" class="st4" width="2.5" height="2.5"/>
					<rect x="442.6" y="254.5" class="st4" width="2.5" height="2.5"/>
					<rect x="442.6" y="258.7" class="st4" width="2.5" height="2.5"/>
					<rect x="442.6" y="262.9" class="st4" width="2.5" height="2.5"/>
					<rect x="442.6" y="267.1" class="st4" width="2.5" height="2.5"/>
					<rect x="442.6" y="271.2" class="st4" width="2.5" height="2.5"/>
					<rect x="442.6" y="275.4" class="st4" width="2.5" height="2.5"/>
					<rect x="442.6" y="279.6" class="st4" width="2.5" height="2.5"/>
					<rect x="442.6" y="283.8" class="st4" width="2.5" height="2.5"/>
					<rect x="442.6" y="288" class="st4" width="2.5" height="2.5"/>
					<rect x="442.6" y="292.1" class="st4" width="2.5" height="2.5"/>
					<rect x="442.6" y="300.5" class="st4" width="2.5" height="2.5"/>
					<rect x="442.6" y="304.7" class="st4" width="2.5" height="2.5"/>
					<rect x="442.6" y="308.9" class="st4" width="2.5" height="2.5"/>
					<rect x="442.6" y="313" class="st4" width="2.5" height="2.5"/>
					<rect x="442.6" y="317.2" class="st4" width="2.5" height="2.5"/>
					<rect x="438.7" y="225.3" class="st4" width="2.5" height="2.5"/>
					<rect x="438.7" y="229.5" class="st4" width="2.5" height="2.5"/>
					<rect x="438.7" y="233.6" class="st4" width="2.5" height="2.5"/>
					<rect x="438.7" y="237.8" class="st4" width="2.5" height="2.5"/>
					<rect x="438.7" y="242" class="st4" width="2.5" height="2.5"/>
					<rect x="438.7" y="246.2" class="st4" width="2.5" height="2.5"/>
					<rect x="438.7" y="250.4" class="st4" width="2.5" height="2.5"/>
					<rect x="438.7" y="254.5" class="st4" width="2.5" height="2.5"/>
					<rect x="438.7" y="258.7" class="st4" width="2.5" height="2.5"/>
					<rect x="438.7" y="262.9" class="st4" width="2.5" height="2.5"/>
					<rect x="438.7" y="267.1" class="st4" width="2.5" height="2.5"/>
					<rect x="438.7" y="271.2" class="st4" width="2.5" height="2.5"/>
					<rect x="438.7" y="275.4" class="st4" width="2.5" height="2.5"/>
					<rect x="438.7" y="279.6" class="st4" width="2.5" height="2.5"/>
					<rect x="438.7" y="283.8" class="st4" width="2.5" height="2.5"/>
					<rect x="438.7" y="288" class="st4" width="2.5" height="2.5"/>
					<rect x="438.7" y="313" class="st4" width="2.5" height="2.5"/>
					<rect x="438.7" y="317.2" class="st4" width="2.5" height="2.5"/>
					<rect x="434.7" y="225.3" class="st4" width="2.5" height="2.5"/>
					<rect x="434.7" y="229.5" class="st4" width="2.5" height="2.5"/>
					<rect x="434.7" y="233.6" class="st4" width="2.5" height="2.5"/>
					<rect x="434.7" y="237.8" class="st4" width="2.5" height="2.5"/>
					<rect x="434.7" y="242" class="st4" width="2.5" height="2.5"/>
					<rect x="434.7" y="246.2" class="st4" width="2.5" height="2.5"/>
					<rect x="434.7" y="250.4" class="st4" width="2.5" height="2.5"/>
					<rect x="434.7" y="254.5" class="st4" width="2.5" height="2.5"/>
					<rect x="434.7" y="258.7" class="st4" width="2.5" height="2.5"/>
					<rect x="434.7" y="262.9" class="st4" width="2.5" height="2.5"/>
					<rect x="434.7" y="267.1" class="st4" width="2.5" height="2.5"/>
					<rect x="434.7" y="271.2" class="st4" width="2.5" height="2.5"/>
					<rect x="434.7" y="275.4" class="st4" width="2.5" height="2.5"/>
					<rect x="434.7" y="279.6" class="st4" width="2.5" height="2.5"/>
					<rect x="434.7" y="283.8" class="st4" width="2.5" height="2.5"/>
					<rect x="434.7" y="288" class="st4" width="2.5" height="2.5"/>
					<rect x="434.7" y="296.3" class="st4" width="2.5" height="2.5"/>
					<rect x="434.7" y="300.5" class="st4" width="2.5" height="2.5"/>
					<rect x="434.7" y="304.7" class="st4" width="2.5" height="2.5"/>
					<rect x="434.7" y="308.9" class="st4" width="2.5" height="2.5"/>
					<rect x="434.7" y="317.2" class="st4" width="2.5" height="2.5"/>
					<rect x="365.7" y="254.5" class="st4" width="2.5" height="2.5"/>
					<rect x="365.7" y="258.7" class="st4" width="2.5" height="2.5"/>
					<rect x="365.7" y="262.9" class="st4" width="2.5" height="2.5"/>
					<rect x="365.7" y="267.1" class="st4" width="2.5" height="2.5"/>
					<rect x="365.7" y="271.2" class="st4" width="2.5" height="2.5"/>
					<rect x="365.7" y="275.4" class="st4" width="2.5" height="2.5"/>
					<rect x="365.7" y="279.6" class="st4" width="2.5" height="2.5"/>
					<rect x="365.7" y="283.8" class="st4" width="2.5" height="2.5"/>
					<rect x="365.7" y="288" class="st4" width="2.5" height="2.5"/>
					<rect x="365.7" y="292.1" class="st4" width="2.5" height="2.5"/>
					<rect x="365.7" y="296.3" class="st4" width="2.5" height="2.5"/>
					<rect x="365.7" y="300.5" class="st4" width="2.5" height="2.5"/>
					<rect x="365.7" y="304.7" class="st4" width="2.5" height="2.5"/>
					<rect x="365.7" y="313" class="st4" width="2.5" height="2.5"/>
					<rect x="365.7" y="317.2" class="st4" width="2.5" height="2.5"/>
					<rect x="365.7" y="321.4" class="st4" width="2.5" height="2.5"/>
					<rect x="365.7" y="325.6" class="st4" width="2.5" height="2.5"/>
					<rect x="365.7" y="333.9" class="st4" width="2.5" height="2.5"/>
					<rect x="365.7" y="338.1" class="st4" width="2.5" height="2.5"/>
					<rect x="365.7" y="342.3" class="st4" width="2.5" height="2.5"/>
					<rect x="361.7" y="254.5" class="st4" width="2.5" height="2.5"/>
					<rect x="361.7" y="258.7" class="st4" width="2.5" height="2.5"/>
					<rect x="361.7" y="262.9" class="st4" width="2.5" height="2.5"/>
					<rect x="361.7" y="267.1" class="st4" width="2.5" height="2.5"/>
					<rect x="361.7" y="271.2" class="st4" width="2.5" height="2.5"/>
					<rect x="361.7" y="275.4" class="st4" width="2.5" height="2.5"/>
					<rect x="361.7" y="279.6" class="st4" width="2.5" height="2.5"/>
					<rect x="361.7" y="283.8" class="st4" width="2.5" height="2.5"/>
					<rect x="361.7" y="288" class="st4" width="2.5" height="2.5"/>
					<rect x="361.7" y="292.1" class="st4" width="2.5" height="2.5"/>
					<rect x="361.7" y="296.3" class="st4" width="2.5" height="2.5"/>
					<rect x="361.7" y="300.5" class="st4" width="2.5" height="2.5"/>
					<rect x="361.7" y="304.7" class="st4" width="2.5" height="2.5"/>
					<rect x="361.7" y="317.2" class="st4" width="2.5" height="2.5"/>
					<rect x="361.7" y="321.4" class="st4" width="2.5" height="2.5"/>
					<rect x="361.7" y="329.8" class="st4" width="2.5" height="2.5"/>
					<rect x="361.7" y="333.9" class="st4" width="2.5" height="2.5"/>
					<rect x="361.7" y="338.1" class="st4" width="2.5" height="2.5"/>
					<rect x="361.7" y="342.3" class="st4" width="2.5" height="2.5"/>
					<rect x="357.7" y="254.5" class="st4" width="2.5" height="2.5"/>
					<rect x="357.7" y="258.7" class="st4" width="2.5" height="2.5"/>
					<rect x="357.7" y="262.9" class="st4" width="2.5" height="2.5"/>
					<rect x="357.7" y="267.1" class="st4" width="2.5" height="2.5"/>
					<rect x="357.7" y="271.2" class="st4" width="2.5" height="2.5"/>
					<rect x="357.7" y="275.4" class="st4" width="2.5" height="2.5"/>
					<rect x="357.7" y="279.6" class="st4" width="2.5" height="2.5"/>
					<rect x="357.7" y="283.8" class="st4" width="2.5" height="2.5"/>
					<rect x="357.7" y="288" class="st4" width="2.5" height="2.5"/>
					<rect x="357.7" y="292.1" class="st4" width="2.5" height="2.5"/>
					<rect x="357.7" y="296.3" class="st4" width="2.5" height="2.5"/>
					<rect x="357.7" y="300.5" class="st4" width="2.5" height="2.5"/>
					<rect x="357.7" y="304.7" class="st4" width="2.5" height="2.5"/>
					<rect x="357.7" y="308.9" class="st4" width="2.5" height="2.5"/>
					<rect x="357.7" y="317.2" class="st4" width="2.5" height="2.5"/>
					<rect x="357.7" y="325.6" class="st4" width="2.5" height="2.5"/>
					<rect x="357.7" y="329.8" class="st4" width="2.5" height="2.5"/>
					<rect x="357.7" y="333.9" class="st4" width="2.5" height="2.5"/>
					<rect x="357.7" y="338.1" class="st4" width="2.5" height="2.5"/>
					<rect x="357.7" y="342.3" class="st4" width="2.5" height="2.5"/>
					<rect x="381.8" y="278.4" class="st4" width="2.5" height="2.5"/>
					<rect x="381.8" y="282.5" class="st4" width="2.5" height="2.5"/>
					<rect x="381.8" y="286.7" class="st4" width="2.5" height="2.5"/>
					<rect x="381.8" y="290.9" class="st4" width="2.5" height="2.5"/>
					<rect x="381.8" y="295.1" class="st4" width="2.5" height="2.5"/>
					<rect x="381.8" y="299.3" class="st4" width="2.5" height="2.5"/>
					<rect x="381.8" y="311.8" class="st4" width="2.5" height="2.5"/>
					<rect x="381.8" y="316" class="st4" width="2.5" height="2.5"/>
					<rect x="381.8" y="320.1" class="st4" width="2.5" height="2.5"/>
					<rect x="381.8" y="324.3" class="st4" width="2.5" height="2.5"/>
					<rect x="381.8" y="328.5" class="st4" width="2.5" height="2.5"/>
					<rect x="381.8" y="332.7" class="st4" width="2.5" height="2.5"/>
					<rect x="381.8" y="336.9" class="st4" width="2.5" height="2.5"/>
					<rect x="377.8" y="278.4" class="st4" width="2.5" height="2.5"/>
					<rect x="377.8" y="282.5" class="st4" width="2.5" height="2.5"/>
					<rect x="377.8" y="286.7" class="st4" width="2.5" height="2.5"/>
					<rect x="377.8" y="290.9" class="st4" width="2.5" height="2.5"/>
					<rect x="377.8" y="295.1" class="st4" width="2.5" height="2.5"/>
					<rect x="377.8" y="299.3" class="st4" width="2.5" height="2.5"/>
					<rect x="377.8" y="311.8" class="st4" width="2.5" height="2.5"/>
					<rect x="377.8" y="316" class="st4" width="2.5" height="2.5"/>
					<rect x="377.8" y="320.1" class="st4" width="2.5" height="2.5"/>
					<rect x="377.8" y="324.3" class="st4" width="2.5" height="2.5"/>
					<rect x="377.8" y="328.5" class="st4" width="2.5" height="2.5"/>
					<rect x="377.8" y="332.7" class="st4" width="2.5" height="2.5"/>
					<rect x="377.8" y="341" class="st4" width="2.5" height="2.5"/>
					<rect x="246.3" y="260" class="st4" width="2.5" height="2.5"/>
					<rect x="246.3" y="264.1" class="st4" width="2.5" height="2.5"/>
					<rect x="246.3" y="268.3" class="st4" width="2.5" height="2.5"/>
					<rect x="246.3" y="272.5" class="st4" width="2.5" height="2.5"/>
					<rect x="246.3" y="276.7" class="st4" width="2.5" height="2.5"/>
					<rect x="246.3" y="280.9" class="st4" width="2.5" height="2.5"/>
					<rect x="246.3" y="285" class="st4" width="2.5" height="2.5"/>
					<rect x="246.3" y="289.2" class="st4" width="2.5" height="2.5"/>
					<rect x="246.3" y="293.4" class="st4" width="2.5" height="2.5"/>
					<rect x="246.3" y="297.6" class="st4" width="2.5" height="2.5"/>
					<rect x="246.3" y="301.7" class="st4" width="2.5" height="2.5"/>
					<rect x="246.3" y="310.1" class="st4" width="2.5" height="2.5"/>
					<rect x="246.3" y="314.3" class="st4" width="2.5" height="2.5"/>
					<rect x="246.3" y="318.5" class="st4" width="2.5" height="2.5"/>
					<rect x="246.3" y="322.6" class="st4" width="2.5" height="2.5"/>
					<rect x="246.3" y="326.8" class="st4" width="2.5" height="2.5"/>
					<rect x="246.3" y="331" class="st4" width="2.5" height="2.5"/>
					<rect x="246.3" y="335.2" class="st4" width="2.5" height="2.5"/>
					<rect x="246.3" y="339.4" class="st4" width="2.5" height="2.5"/>
					<rect x="242.3" y="260" class="st4" width="2.5" height="2.5"/>
					<rect x="242.3" y="264.1" class="st4" width="2.5" height="2.5"/>
					<rect x="242.3" y="268.3" class="st4" width="2.5" height="2.5"/>
					<rect x="242.3" y="272.5" class="st4" width="2.5" height="2.5"/>
					<rect x="242.3" y="276.7" class="st4" width="2.5" height="2.5"/>
					<rect x="242.3" y="280.9" class="st4" width="2.5" height="2.5"/>
					<rect x="242.3" y="285" class="st4" width="2.5" height="2.5"/>
					<rect x="242.3" y="289.2" class="st4" width="2.5" height="2.5"/>
					<rect x="242.3" y="293.4" class="st4" width="2.5" height="2.5"/>
					<rect x="242.3" y="297.6" class="st4" width="2.5" height="2.5"/>
					<rect x="242.3" y="301.7" class="st4" width="2.5" height="2.5"/>
					<rect x="242.3" y="305.9" class="st4" width="2.5" height="2.5"/>
					<rect x="242.3" y="310.1" class="st4" width="2.5" height="2.5"/>
					<rect x="242.3" y="314.3" class="st4" width="2.5" height="2.5"/>
					<rect x="242.3" y="318.5" class="st4" width="2.5" height="2.5"/>
					<rect x="242.3" y="322.6" class="st4" width="2.5" height="2.5"/>
					<rect x="242.3" y="326.8" class="st4" width="2.5" height="2.5"/>
					<rect x="242.3" y="331" class="st4" width="2.5" height="2.5"/>
					<rect x="242.3" y="335.2" class="st4" width="2.5" height="2.5"/>
					<rect x="242.3" y="339.4" class="st4" width="2.5" height="2.5"/>
					<rect x="265.8" y="276.2" class="st4" width="2.5" height="2.5"/>
					<rect x="265.8" y="280.4" class="st4" width="2.5" height="2.5"/>
					<rect x="265.8" y="284.6" class="st4" width="2.5" height="2.5"/>
					<rect x="265.8" y="288.8" class="st4" width="2.5" height="2.5"/>
					<rect x="265.8" y="292.9" class="st4" width="2.5" height="2.5"/>
					<rect x="265.8" y="297.1" class="st4" width="2.5" height="2.5"/>
					<rect x="265.8" y="301.3" class="st4" width="2.5" height="2.5"/>
					<rect x="265.8" y="305.5" class="st4" width="2.5" height="2.5"/>
					<rect x="265.8" y="309.7" class="st4" width="2.5" height="2.5"/>
					<rect x="265.8" y="313.8" class="st4" width="2.5" height="2.5"/>
					<rect x="261.8" y="276.2" class="st4" width="2.5" height="2.5"/>
					<rect x="261.8" y="280.4" class="st4" width="2.5" height="2.5"/>
					<rect x="261.8" y="284.6" class="st4" width="2.5" height="2.5"/>
					<rect x="261.8" y="288.8" class="st4" width="2.5" height="2.5"/>
					<rect x="261.8" y="292.9" class="st4" width="2.5" height="2.5"/>
					<rect x="261.8" y="297.1" class="st4" width="2.5" height="2.5"/>
					<rect x="261.8" y="301.3" class="st4" width="2.5" height="2.5"/>
					<rect x="261.8" y="305.5" class="st4" width="2.5" height="2.5"/>
					<rect x="261.8" y="309.7" class="st4" width="2.5" height="2.5"/>
				</g>
			</g>
			<g>
				<rect x="283.7" y="117.6" class="st1" width="4.2" height="233.1"/>
				<rect x="362.4" y="117.6" class="st1" width="4.2" height="233.1"/>
				<rect x="441.1" y="117.6" class="st1" width="4.2" height="233.1"/>
			</g>
		</g>
		<g>
			<path class="st4" d="M178,382.3h-34.6v-49.8c0-2.4,2-4.4,4.4-4.4h25.8c2.4,0,4.4,2,4.4,4.4V382.3z"/>
			<rect x="143.4" y="335.4" class="st3" width="34.6" height="3.9"/>
			<path class="st1" d="M171.7,375.7h-8.6c-1.3,0-2.4,1.1-2.4,2.4v4.2h13.4v-4.2C174.1,376.8,173,375.7,171.7,375.7z"/>
			<path class="st3" d="M174.1,382.3h-9.6c-0.8,0-1.5-0.7-1.5-1.5l0,0c0-0.8,0.7-1.5,1.5-1.5h9.6c0.8,0,1.5,0.7,1.5,1.5l0,0
				C175.7,381.6,175,382.3,174.1,382.3z"/>
		</g>
		<g>
			
				<ellipse transform="matrix(0.9732 -0.2298 0.2298 0.9732 -10.6237 76.2904)" class="st1" cx="322.3" cy="83.8" rx="23.6" ry="23.6"/>
			<ellipse transform="matrix(0.9871 -0.1602 0.1602 0.9871 -9.2562 52.7085)" class="st4" cx="322.3" cy="83.8" rx="20" ry="20"/>
			<polyline class="st5" points="323.2,70 323.2,84 332.5,78.8 			"/>
		</g>
		<g>
			<g>
				<path class="st1" d="M96.9,313.6c-1.8-3-4.8-0.4-4.8-0.4c0.4-5.7-4.8-9.6-4.8-9.6s6.1,0,6.9-5.8c0.8-5.8-2.1-3.1-4.9-3.1
					c-2.8,0-5.7,8.1-2,12.7c3.7,4.6,2.7,12.4-5.8,19.9c-2.1,1.8-3.5,4.3-4.4,6.9c0.6-6.9,1-16.6-1-23.1c-3.4-11,3.1-14,5-19.5
					c1.9-5.5-5-10.2-5-10.2s6.5-3,3.3-6.4c-3.2-3.4-9.7-2.9-9.7,1.5c0,4.4,4.4,6.1,4.4,6.1s5.1,5.3,5.1,8c0,2.8-5.1,8.7-5.1,8.7
					s2.3-5.1-2.3-5.3c-4.7-0.2-6.1,5.9-4.2,8.7c1.9,2.8,5.1,0.4,5.1,0.4s0.4,5.9,1.5,9.5c0.5,1.6,0.3,7.8-0.1,14.3
					c-0.9-2.3-2.3-4.5-4.1-6.1c-8.5-7.5-9.5-15.3-5.8-19.9c3.7-4.6,0.8-12.7-2-12.7c-2.8,0-5.7-2.7-4.9,3.1s6.9,5.8,6.9,5.8
					s-5.2,3.9-4.8,9.6c0,0-3-2.6-4.8,0.4c-3.2,5.3,4.2,8.6,5.5,6c0,0,15.8,11.2,12,27.3l0.9,1.3c-0.1,1.3-0.2,2.1-0.2,2.1l1.2-0.5
					l1.4,2.1c-0.1,4,0.4,7,0.4,7l3.8-5.6c-3.8-16.1,12-27.3,12-27.3C92.7,322.2,100.1,318.9,96.9,313.6z"/>
				<path class="st6" d="M96.9,313.6c-1.8-3-4.8-0.4-4.8-0.4c0.4-5.7-4.8-9.6-4.8-9.6s6.1,0,6.9-5.8c0.8-5.8-2.1-3.1-4.9-3.1
					c-2.8,0-5.7,8.1-2,12.7c3.7,4.6,2.7,12.4-5.8,19.9c-2.1,1.8-3.5,4.3-4.4,6.9c0.6-6.9,1-16.6-1-23.1c-3.4-11,3.1-14,5-19.5
					c1.9-5.5-5-10.2-5-10.2s6.5-3,3.3-6.4c-3.2-3.4-9.7-2.9-9.7,1.5c0,4.4,4.4,6.1,4.4,6.1s5.1,5.3,5.1,8c0,2.8-5.1,8.7-5.1,8.7
					s2.3-5.1-2.3-5.3c-4.7-0.2-6.1,5.9-4.2,8.7c1.9,2.8,5.1,0.4,5.1,0.4s0.4,5.9,1.5,9.5c0.5,1.6,0.3,7.8-0.1,14.3
					c-0.9-2.3-2.3-4.5-4.1-6.1c-8.5-7.5-9.5-15.3-5.8-19.9c3.7-4.6,0.8-12.7-2-12.7c-2.8,0-5.7-2.7-4.9,3.1s6.9,5.8,6.9,5.8
					s-5.2,3.9-4.8,9.6c0,0-3-2.6-4.8,0.4c-3.2,5.3,4.2,8.6,5.5,6c0,0,15.8,11.2,12,27.3l0.9,1.3c-0.1,1.3-0.2,2.1-0.2,2.1l1.2-0.5
					l1.4,2.1c-0.1,4,0.4,7,0.4,7l3.8-5.6c-3.8-16.1,12-27.3,12-27.3C92.7,322.2,100.1,318.9,96.9,313.6z"/>
			</g>
			<polygon class="st3" points="93.8,382.3 57.7,382.3 53.8,342.7 97.7,342.7 			"/>
			<rect x="51.8" y="338.3" class="st4" width="47.8" height="8.7"/>
		</g>
	</g>
</g>
<g id="Backgorund_Simple" class="st7">
	<g class="st8">
		<path class="st9" d="M308.6,92.6c8-2.8,16.5-4,24.7-3.5c41.6,2.6,67.7,39.1,75.4,77.1c11.1,55.2-17,111.8-56.5,149.1
			c-1.3,1.2-2.6,2.4-3.9,3.6c-41.1,36.6-96.1,55.3-150.6,56.8c-34.3,1-75-10.6-97.6-37.8c-23.7-28.4-18.4-92.7,26.7-95.7
			c18.4-1.2,35.5,5.4,53.2,9.1c24.5,5.1,51.2,0.2,71.3-15.1c40-30.3,4-85.7,28.5-122C286.4,104.1,297,96.7,308.6,92.6z"/>
		<path class="st10" d="M308.6,92.6c8-2.8,16.5-4,24.7-3.5c41.6,2.6,67.7,39.1,75.4,77.1c11.1,55.2-17,111.8-56.5,149.1
			c-1.3,1.2-2.6,2.4-3.9,3.6c-41.1,36.6-96.1,55.3-150.6,56.8c-34.3,1-75-10.6-97.6-37.8c-23.7-28.4-18.4-92.7,26.7-95.7
			c18.4-1.2,35.5,5.4,53.2,9.1c24.5,5.1,51.2,0.2,71.3-15.1c40-30.3,4-85.7,28.5-122C286.4,104.1,297,96.7,308.6,92.6z"/>
	</g>
</g>
<g id="Shadow_1_">
	<ellipse id="_x3C_Path_x3E__359_" class="st2" cx="250" cy="416.2" rx="193.9" ry="11.3"/>
</g>
<g id="Plant">
	<g>
		<g>
			<path class="st9" d="M410.4,384.7c0.2-1,3.7-25.2-3.4-33.5c-1.6-1.8-3.5-2.8-5.8-2.9c-14.2-0.3-16.1,11-16.1,11.2l1.7,0.3
				c0.1-0.4,1.7-10,14.4-9.7c1.8,0,3.3,0.8,4.6,2.3c6.5,7.8,3,31.9,3,32.2L410.4,384.7z"/>
		</g>
		<g>
			<path class="st9" d="M411.3,383.6l1.7-0.1c0-0.2-0.6-22.2,10.3-26.8c10.6-4.5,15.4,4.7,15.6,5.1l1.5-0.8
				c-0.1-0.1-5.7-11-17.8-5.9C410.7,360.2,411.3,382.7,411.3,383.6z"/>
		</g>
		<g>
			<path class="st9" d="M411.3,385.3c0-0.4,0.1-35.2,6.9-45.4c6.5-9.8,17-5.2,17.5-5l0.7-1.5c-0.1-0.1-12.3-5.4-19.6,5.6
				c-7.1,10.6-7.2,44.9-7.2,46.3L411.3,385.3z"/>
		</g>
		<path class="st9" d="M399.2,349.2c0,0,6.2,2.3,4.3,7.7s-21.4,14.2-21.4,14.2s-8.2-7.5-0.7-19.7
			C389.1,339.2,399.1,345.3,399.2,349.2z"/>
		<path class="st9" d="M418.5,338.1c0,0-4.4-0.5-4-3.1c0.4-2.7,17.1-9.5,26.9,1.6c0,0-6.3,10.8-15.4,11
			C416.8,347.7,418.5,338.1,418.5,338.1z"/>
		<path class="st9" d="M423,356c0,0-3-2.4,0.2-3.6c3.3-1.2,19.3-0.9,19.5,15c0,0-18.7,3.1-21-2.9S423,356,423,356z"/>
		<path class="st11" d="M399.2,349.2c0,0,6.2,2.3,4.3,7.7s-21.4,14.2-21.4,14.2s-8.2-7.5-0.7-19.7
			C389.1,339.2,399.1,345.3,399.2,349.2z"/>
		<path class="st11" d="M418.5,338.1c0,0-4.4-0.5-4-3.1c0.4-2.7,17.1-9.5,26.9,1.6c0,0-6.3,10.8-15.4,11
			C416.8,347.7,418.5,338.1,418.5,338.1z"/>
		<path class="st11" d="M423,356c0,0-3-2.4,0.2-3.6c3.3-1.2,19.3-0.9,19.5,15c0,0-18.7,3.1-21-2.9S423,356,423,356z"/>
		<polygon class="st9" points="395.9,417.1 424.9,417.1 428,385.3 392.8,385.3 		"/>
		<polygon class="st12" points="395.9,417.1 424.9,417.1 428,385.3 392.8,385.3 		"/>
		
			<rect x="391.2" y="381.8" transform="matrix(-1 -1.224647e-16 1.224647e-16 -1 820.8201 770.6912)" class="st9" width="38.3" height="7"/>
		
			<rect x="391.2" y="381.8" transform="matrix(-1 -1.224647e-16 1.224647e-16 -1 820.8201 770.6912)" class="st13" width="38.3" height="7"/>
	</g>
</g>
<g id="Chair">
	<g>
		<path class="st14" d="M363.1,394.3l-28.8-2.8V351h-11.4v40.5l-28.9,2.8c-2.9,0.3-5.1,2.7-5.1,5.6v4.3h38.6h2.1h38.6v-4.3
			C368.2,397,366,394.6,363.1,394.3z"/>
		<path class="st13" d="M363.1,394.3l-28.8-2.8V351h-11.4v40.5l-28.9,2.8c-2.9,0.3-5.1,2.7-5.1,5.6v4.3h38.6h2.1h38.6v-4.3
			C368.2,397,366,394.6,363.1,394.3z"/>
		<circle class="st14" cx="292" cy="409.6" r="7.5"/>
		<circle class="st14" cx="365.1" cy="409.6" r="7.5"/>
		<path class="st14" d="M332.1,359.7h-7.1c-2.3,0-4.1-1.9-4.1-4.1v-31.9h15.4v31.9C336.3,357.9,334.4,359.7,332.1,359.7z"/>
		<path class="st15" d="M332.1,359.7h-7.1c-2.3,0-4.1-1.9-4.1-4.1v-31.9h15.4v31.9C336.3,357.9,334.4,359.7,332.1,359.7z"/>
		<path class="st14" d="M355.9,260.3c0,0,2.2,54-12.9,63.3h17.2c0,0,13.3-18.4,9.5-63.3H355.9z"/>
		<path class="st15" d="M355.9,260.3c0,0,2.2,54-12.9,63.3h17.2c0,0,13.3-18.4,9.5-63.3H355.9z"/>
		<path class="st14" d="M294.1,316.1h66.9c2.8,0,5,2.2,5,5v6.7h-76.9v-6.7C289.1,318.3,291.4,316.1,294.1,316.1z"/>
		<g>
			<path class="st14" d="M287.9,321.9h79.3c1.1,0,2,0.9,2,2v1.8c0,1.1-0.9,2-2,2h-79.3c-1.1,0-2-0.9-2-2v-1.8
				C285.9,322.8,286.8,321.9,287.9,321.9z"/>
			<path class="st16" d="M287.9,321.9h79.3c1.1,0,2,0.9,2,2v1.8c0,1.1-0.9,2-2,2h-79.3c-1.1,0-2-0.9-2-2v-1.8
				C285.9,322.8,286.8,321.9,287.9,321.9z"/>
		</g>
		<path class="st14" d="M374,271.3h-27.5c-8.1,0-14.6-6.5-14.6-14.6V246c0-8.1,6.5-14.6,14.6-14.6H374c8.1,0,14.6,6.5,14.6,14.6
			v10.8C388.5,264.8,382,271.3,374,271.3z"/>
	</g>
</g>
<g id="Character">
	<g>
		<path class="st17" d="M263.1,187.3l-5.5-14.5c0,0,2.4-2.2,0.7-4.4c-1.6-2.2-11.7-8.4-13.6-7.3c-1.8,1.1-5.9,5.2-3.7,7.5
			c2.2,2.3,12,6.1,12,6.1l4.9,19L263.1,187.3z"/>
		<g>
			<path class="st9" d="M301.4,214.8c0,0-25-5.1-27.7-6.4c-2.7-1.2-12.8-30.7-12.8-30.7l-7.7,3.6c0,0,6.2,29.5,12.5,36.6
				c6.3,7,33.4,13,33.4,13L301.4,214.8z"/>
			<path class="st11" d="M299.2,230.9c0,0-0.2,0-0.5-0.1c-1.4-0.3-5.6-1.3-10.7-2.8c-8.2-2.4-18.6-6-22.2-10.1
				c-6.3-7-12.5-36.6-12.5-36.6l7.7-3.6c0,0,10.1,29.4,12.8,30.7c2.7,1.2,27.7,6.4,27.7,6.4L299.2,230.9z"/>
			<polygon class="st9" points="261.1,177.2 262.7,180.3 252.8,183.7 253.1,179.9 			"/>
		</g>
		<path class="st11" d="M299.4,230.5c-1.4-0.2-5.7-0.9-10.9-2c3-5.1,11.6-7.7,11.6-7.7L299.4,230.5z"/>
		<path class="st14" d="M336.6,194.4c0,0,1.5,13.8-3.7,17.2c-5.1,3.4-30.3-0.6-33.2-6.1c-2.9-5.6,7.9-20.7,7.9-20.7L336.6,194.4z"/>
		<polygon class="st17" points="234.6,376.4 241.2,378 244.5,368.9 247.5,360.6 240,357.4 237.1,367.5 		"/>
		<polygon class="st11" points="237.1,367.5 244.5,368.9 247.5,360.6 240,357.4 		"/>
		<g>
			<path class="st9" d="M237.8,362.7l9.1,3.4c0,0,24.3-60.8,29.3-61s55.9,23.2,68.7,10.2c12.8-13-5.7-44.2-5.7-44.2
				s-30.7-4.4-33,2.5c-0.5,1.3-0.9,4-1.3,6.2c-0.4,2.1-0.6,3.9-0.6,3.9s0,0,0,0c-0.9-0.2-31.8-8.2-43.9,0
				C248.1,292,237.8,362.7,237.8,362.7z"/>
			<path class="st16" d="M237.8,362.7l9.1,3.4c0,0,24.3-60.8,29.3-61s55.9,23.2,68.7,10.2c12.8-13-5.7-44.2-5.7-44.2
				s-30.7-4.4-33,2.5c-0.5,1.3-0.9,4-1.3,6.2c-0.4,2.1-0.6,3.9-0.6,3.9s0,0,0,0c-0.9-0.2-31.8-8.2-43.9,0
				C248.1,292,237.8,362.7,237.8,362.7z"/>
		</g>
		<polygon class="st17" points="290.3,402.3 296.8,400.7 295.6,391.3 294.4,382.6 286.3,383.4 288.4,393.4 		"/>
		<polygon class="st11" points="288.4,393.6 295.6,391.4 294.4,382.7 286.3,383.4 		"/>
		<polygon class="st9" points="250.7,362.7 237.4,358.2 236.8,363.6 246.9,367.2 		"/>
		<g>
			<path class="st9" d="M322.9,318.4c0,0-2.1,0-34.3-1.5c0,0,4.8,40.2,7.4,70.4l-9.6,1.6c0,0-23-64.5-22.8-74.8s12-13.2,12-13.2
				S298.6,314.2,322.9,318.4z"/>
			<path class="st16" d="M322.9,318.4c0,0-2.1,0-34.3-1.5c0,0,4.8,40.2,7.4,70.4l-9.6,1.6c0,0-23-64.5-22.8-74.8s12-13.2,12-13.2
				S298.6,314.2,322.9,318.4z"/>
			<path class="st18" d="M322.9,318.4c0,0-2.1,0-34.3-1.5c0,0,4.8,40.2,7.4,70.4l-9.6,1.6c0,0-23-64.5-22.8-74.8s12-13.2,12-13.2
				S298.6,314.2,322.9,318.4z"/>
		</g>
		<polygon class="st9" points="297.5,384.4 284.2,385.9 286.8,391.1 297.5,389.7 		"/>
		<path class="st18" d="M304.3,283.7l18,3.7c0,0-9.9-5.5-17.4-7.6C304.6,281.9,304.3,283.7,304.3,283.7z"/>
		<g>
			<g>
				<polygon class="st14" points="338.5,266.2 339.2,271 306.2,273.5 305.4,267.9 				"/>
				<polygon class="st11" points="338.5,266.2 339.2,271 306.2,273.5 305.4,267.9 				"/>
			</g>
			
				<rect x="327.7" y="265.8" transform="matrix(-0.9948 0.1023 -0.1023 -0.9948 682.8523 504.955)" class="st9" width="1.6" height="8.3"/>
			
				<rect x="313.3" y="267.7" transform="matrix(-0.9979 6.413041e-02 -6.413041e-02 -0.9979 650.441 519.9342)" class="st19" width="7.2" height="5.5"/>
			
				<rect x="307.4" y="266.7" transform="matrix(-0.9947 0.1023 -0.1023 -0.9947 642.5431 508.7874)" class="st9" width="1.6" height="8.3"/>
			
				<rect x="327.7" y="265.8" transform="matrix(-0.9948 0.1023 -0.1023 -0.9948 682.8523 504.955)" class="st16" width="1.6" height="8.3"/>
			
				<rect x="307.4" y="266.7" transform="matrix(-0.9947 0.1023 -0.1023 -0.9947 642.5431 508.7874)" class="st16" width="1.6" height="8.3"/>
		</g>
		<path class="st9" d="M300.8,214.3c0,0,8.4,2.6,19,2.1c10.6-0.5,23.2,4.6,23.2,4.6l-4.5,45.2l-33.1,1.7
			C305.4,267.9,294.2,230.2,300.8,214.3z"/>
		<path class="st14" d="M306.1,188.8c0,0,1.9-21.9,20.2-14c23,10,4.7,36.7-6.5,31.3S306.1,188.8,306.1,188.8z"/>
		<path class="st11" d="M311.2,217.7l0.5,12.4l4.1-5.8c0,0-1.5,13.7-0.6,21.2c0,0,0.8-13.4,2.6-21.2l4.4,5.8l6.3-12.3
			C328.6,217.7,318.4,214.1,311.2,217.7z"/>
		<path class="st17" d="M316.9,220l9.5-2.7c-5.8-4-2.9-13-2.9-13l-9.4,3.3c0.5,1.6,0.8,2.9,1,4c1,5.9-1.7,6.3-1.7,6.3L316.9,220z"/>
		<path class="st11" d="M314.1,207.6c0.5,1.6,0.8,2.9,1,4c4.5-1.8,8.4-7.3,8.4-7.3L314.1,207.6z"/>
		<g>
			<path class="st17" d="M320.3,179.4c-8.3-1.8-12,2-14.5,10.5c-3.1,10.5-2.4,18.7,8.5,18.7C329.1,208.6,334.1,182.5,320.3,179.4z"
				/>
			<path class="st20" d="M311.2,190.6c0,0-1.6,1.9-3.2,2.9c0,0,0.5,1.3,2,1.4L311.2,190.6z"/>
			<g>
				<path class="st14" d="M316.5,191.1c-0.2,0.7,0.1,1.3,0.5,1.4c0.5,0.1,1-0.3,1.1-1c0.2-0.7-0.1-1.3-0.5-1.4
					C317.2,189.9,316.7,190.4,316.5,191.1z"/>
				<path class="st14" d="M317.8,190.1l-1.3-0.9C316.5,189.2,316.9,190.6,317.8,190.1z"/>
			</g>
			<g>
				<path class="st14" d="M308.1,188.9c-0.2,0.7,0.1,1.3,0.5,1.4c0.5,0.1,1-0.3,1.1-1c0.2-0.7-0.1-1.3-0.5-1.4
					C308.7,187.7,308.2,188.2,308.1,188.9z"/>
				<path class="st14" d="M309.4,187.9L308,187C308,187,308.5,188.4,309.4,187.9z"/>
			</g>
			<path class="st21" d="M317.8,185.4c0,0,2.4,0.2,3.3,2.1"/>
			<path class="st21" d="M311.9,183.7c0,0-1.3-0.9-3.5,0"/>
			<path class="st14" d="M326.2,195.5c0,0-2.4-7.7-0.6-12.8c0,0-15-10.4-19.5,6.2c0,0,1.7-15.2,16.1-12.4
				c14.4,2.8,9.7,23.8,0.9,28.4C323.1,204.8,327.7,200.3,326.2,195.5z"/>
			<path class="st17" d="M324.5,196.9c0.4-1.3,2.2-3.3,4.7-2.5c2.5,0.9,2.6,6.4-4.1,6.3C324.1,200.7,323.8,199.7,324.5,196.9z"/>
			<g>
				<path class="st14" d="M308.6,198.1c0.3,1.1,0.4,3.1,0.4,3.1c0.2,0,0.4,0,0.5,0.1c2.5,0.2,3.7-0.5,4.3-1.4c0.3-0.5,0.5-1,0.5-1.4
					c0.1-0.5,0-0.9,0-0.9c-1.4,0.7-3.7,0.7-5,0.6C308.9,198.2,308.6,198.1,308.6,198.1z"/>
				<path class="st19" d="M309.4,198.2l0.2,0.9c2.3,0.2,4,0,4.8-0.6c0.1-0.5,0-0.9,0-0.9C313,198.3,310.6,198.3,309.4,198.2z"/>
				<path class="st20" d="M309.5,201.3c2.5,0.2,3.7-0.5,4.3-1.4c-0.8,0-1.9,0-2.8,0.3C310.3,200.5,309.9,200.9,309.5,201.3z"/>
			</g>
			<path class="st14" d="M320.3,180.1c0,0,0.3,14.4,9,16.2c8.7,1.7-0.8-18.6-0.8-18.6s-12.9-8.4-21.5-2.5
				c-8.6,5.9-0.9,13.6-0.9,13.6S307.9,178.1,320.3,180.1z"/>
			<path class="st22" d="M320.6,179.2c0,0-3.1,9.1,3,13.9"/>
		</g>
		<g>
			<path class="st9" d="M331.8,199.3c-1.1,2.9-3.9,4.6-6.3,3.7c-2.4-0.9-3.4-4-2.3-6.9c1.1-2.9,3.9-4.6,6.3-3.7
				C331.9,193.2,332.9,196.3,331.8,199.3z"/>
			<path class="st23" d="M331.8,199.3c-1.1,2.9-3.9,4.6-6.3,3.7c-2.4-0.9-3.4-4-2.3-6.9c1.1-2.9,3.9-4.6,6.3-3.7
				C331.9,193.2,332.9,196.3,331.8,199.3z"/>
			<path class="st9" d="M329,194.4c0,0,3.6-16.1-4.5-20.3c0,0,1.7,0.2,2.7,0.5c1,0.3,7.5,6.8,4.2,21.3L329,194.4z"/>
			<path class="st11" d="M329,194.4c0,0,3.6-16.1-4.5-20.3c0,0,1.7,0.2,2.7,0.5c1,0.3,7.5,6.8,4.2,21.3L329,194.4z"/>
			<g>
				<g>
					<path class="st9" d="M313.9,203.6c-0.2,0-0.4-0.1-0.6-0.1l0.2-1c7.2,1.2,12.6-2.7,12.7-2.7l0.6,0.8
						C326.6,200.8,321.3,204.6,313.9,203.6z"/>
				</g>
				<g class="st11">
					<path d="M313.9,203.6c-0.2,0-0.4-0.1-0.6-0.1l0.2-1c7.2,1.2,12.6-2.7,12.7-2.7l0.6,0.8C326.6,200.8,321.3,204.6,313.9,203.6z"
						/>
				</g>
			</g>
			<path class="st9" d="M331.5,198.9c-0.7,1.9-2.6,3-4.2,2.4c-1.6-0.6-2.3-2.6-1.5-4.6c0.7-1.9,2.6-3,4.2-2.4
				C331.5,194.9,332.2,196.9,331.5,198.9z"/>
			<g>
				<path class="st9" d="M313.1,204l-0.8-0.1c-0.6-0.1-1-0.6-0.9-1.2l0,0c0.1-0.6,0.6-1,1.2-0.9l0.8,0.1c0.6,0.1,1,0.6,0.9,1.2l0,0
					C314.2,203.6,313.7,204,313.1,204z"/>
				<path class="st23" d="M313.1,204l-0.8-0.1c-0.6-0.1-1-0.6-0.9-1.2l0,0c0.1-0.6,0.6-1,1.2-0.9l0.8,0.1c0.6,0.1,1,0.6,0.9,1.2l0,0
					C314.2,203.6,313.7,204,313.1,204z"/>
			</g>
		</g>
		<polygon class="st9" points="323.9,213.8 317.9,219.7 320.3,226.8 328.6,217.7 		"/>
		<polygon class="st9" points="315.3,215.1 316.2,219.6 313.2,225.9 311.2,217.7 		"/>
		<path class="st17" d="M322.6,218.9l3.5-12.6c0,0-1.7-3.1-1.3-3.8c0.4-0.7,2.2-9.1,3.4-10.1c1.3-0.9,6.5,0.7,7.1,1.5
			c0.5,0.9-5,12.4-5,12.4l-2,13.7L322.6,218.9z"/>
		<g>
			<path class="st9" d="M343,221c9.5,9.7-9.5,31.7-20.4,30.8c-10.9-0.9,0.3-40.9,0.3-40.9l7,1.1c0,0-2.5,17.3-1.7,18.6
				C329,232.1,339.9,217.8,343,221z"/>
			<path class="st11" d="M343,221c9.5,9.7-9.5,31.7-20.4,30.8c-10.9-0.9,0.3-40.9,0.3-40.9l7,1.1c0,0-2.5,17.3-1.7,18.6
				C329,232.1,339.9,217.8,343,221z"/>
			<polygon class="st9" points="322.3,209.7 321.3,213 331,213.8 331,211 			"/>
		</g>
		<g>
			<path class="st16" d="M307.6,244.8h-3.9c-0.4,0-0.8-0.4-0.8-0.8v-7.4c0-0.4,0.4-0.8,0.8-0.8h3.9c0.4,0,0.8,0.4,0.8,0.8v7.4
				C308.3,244.5,308,244.8,307.6,244.8z"/>
			<rect x="303.2" y="236.4" class="st11" width="4.5" height="6.1"/>
			<rect x="305" y="233.6" class="st14" width="1" height="3.6"/>
		</g>
		<path class="st9" d="M223.7,389.2c1-0.5,2.1-0.7,3.2-0.8l0,0c0,0,3.8-2.2,7.6-10.9l4.2,0c1.5,0,2.8,0.9,3.3,2.3
			c0.1,0.2,0.1,0.4,0.1,0.6c0,1-0.2,2-0.3,3.1c-0.4,3.2-2.5,10-2.5,10l-0.7-0.2l1.3-6.3c0.4-2.1-1.8-0.1-2.9,2.1
			c-1,2.2-2.7,4.3-7.3,3.3C224.2,390.9,222,390.1,223.7,389.2z"/>
		<path class="st17" d="M235.2,375.2c0,0-5.3,11.1-8.3,13.2c0,0,4.1,2.4,8.3-3c5.5-7,6.8-5,6.8-5s-0.2-2.4-0.7-3.6
			C240.6,374.5,235.2,375.2,235.2,375.2z"/>
		<path class="st9" d="M281.9,415.5c0.9-0.7,1.8-1.2,2.9-1.5l0,0c0,0,3.2-3.1,4.8-12.4l4.1-1c1.4-0.3,2.9,0.3,3.7,1.5
			c0.1,0.2,0.2,0.3,0.3,0.5c0.2,1,0.3,2,0.4,3c0.4,3.2,0,10.3,0,10.3l-0.7,0l-0.2-6.4c-0.1-2.2-1.8,0.4-2.3,2.7
			c-0.5,2.4-1.5,4.8-6.3,4.9C282.8,417.1,280.5,416.9,281.9,415.5z"/>
		<path class="st17" d="M289.8,399.2c0,0-2.5,12-5,14.8c0,0,4.5,1.4,7.4-4.9c3.7-8.1,5.4-6.5,5.4-6.5s-0.8-2.3-1.5-3.3
			C294.8,397.3,289.8,399.2,289.8,399.2z"/>
	</g>
</g>
<g id="Speech_bubble">
	<g>
		<path class="st9" d="M382.8,182.2h-34.9c-2.8,0-5.1-2.3-5.1-5.1v-14.9c0-2.8,2.3-5.1,5.1-5.1h34.9c2.8,0,5.1,2.3,5.1,5.1v14.9
			C387.8,180,385.6,182.2,382.8,182.2z"/>
		<polygon class="st9" points="354.9,179.4 344.3,193.7 361.3,180.3 		"/>
		<g>
			<path class="st19" d="M355.2,169.7c0,0.8-0.7,1.5-1.5,1.5c-0.8,0-1.5-0.7-1.5-1.5c0-0.8,0.7-1.5,1.5-1.5
				C354.6,168.2,355.2,168.9,355.2,169.7z"/>
			<path class="st19" d="M362.9,169.7c0,0.8-0.7,1.5-1.5,1.5s-1.5-0.7-1.5-1.5c0-0.8,0.7-1.5,1.5-1.5S362.9,168.9,362.9,169.7z"/>
			<path class="st19" d="M370.6,169.7c0,0.8-0.7,1.5-1.5,1.5c-0.8,0-1.5-0.7-1.5-1.5c0-0.8,0.7-1.5,1.5-1.5
				C370,168.2,370.6,168.9,370.6,169.7z"/>
			<path class="st19" d="M378.3,169.7c0,0.8-0.7,1.5-1.5,1.5c-0.8,0-1.5-0.7-1.5-1.5c0-0.8,0.7-1.5,1.5-1.5
				C377.7,168.2,378.3,168.9,378.3,169.7z"/>
		</g>
	</g>
</g>
<g id="Bird">
	<g>
		<g>
			<path class="st9" d="M242.4,162.5l-24.9-13.4c-0.7-0.4-0.9-1.2-0.6-1.9l7.9-14.7c0.4-0.7,1.2-0.9,1.9-0.6l24.9,13.4
				c0.7,0.4,0.9,1.2,0.6,1.9l-7.9,14.7C243.9,162.6,243.1,162.9,242.4,162.5z"/>
			<path class="st24" d="M242.4,162.5l-24.9-13.4c-0.7-0.4-0.9-1.2-0.6-1.9l7.9-14.7c0.4-0.7,1.2-0.9,1.9-0.6l24.9,13.4
				c0.7,0.4,0.9,1.2,0.6,1.9l-7.9,14.7C243.9,162.6,243.1,162.9,242.4,162.5z"/>
			<path class="st11" d="M224.3,133.7l7.8,14.5c0.6,1.1,1.8,1.8,3.1,1.7l16.2-1.6l-16.5,2.4c-1.5,0.2-2.9-0.6-3.6-1.9L224.3,133.7z"
				/>
		</g>
		<g>
			<path class="st9" d="M205.3,131c0.3-5.6,4.4-16.8,9.4-20.2c5-3.4,1.7,1.3,1.7,1.3s4.7-4.6,7.3-4.5c2.5,0.1,0,3,0,3s5.1-3.2,7.5-3
				c2.4,0.1,0,2.9,0,2.9s4.2-3,5.9-1.6c1.7,1.5-21.9,17-24.5,23.3C210,138.6,205.1,136.6,205.3,131z"/>
			<path class="st25" d="M205.3,131c0.3-5.6,4.4-16.8,9.4-20.2c5-3.4,1.7,1.3,1.7,1.3s4.7-4.6,7.3-4.5c2.5,0.1,0,3,0,3
				s5.1-3.2,7.5-3c2.4,0.1,0,2.9,0,2.9s4.2-3,5.9-1.6c1.7,1.5-21.9,17-24.5,23.3C210,138.6,205.1,136.6,205.3,131z"/>
		</g>
		<g>
			<path class="st9" d="M225.6,130.2l3.2,2c0.2,0.1,0.1,0.5-0.2,0.5l-3.3-0.3l0.3,2.5c0,0.3-0.3,0.4-0.5,0.2l-1.9-2.2L225.6,130.2z"
				/>
			<path class="st15" d="M225.6,130.2l3.2,2c0.2,0.1,0.1,0.5-0.2,0.5l-3.3-0.3l0.3,2.5c0,0.3-0.3,0.4-0.5,0.2l-1.9-2.2L225.6,130.2z
				"/>
		</g>
		<g>
			<path class="st9" d="M181.4,117.6c0,0,4.4-3,10.9-1.1c0,0,1.9,8.7,7.1,11.6c2.8,1.6,9.8,1.5,15.3-0.3c6.6-2.1,9.8-2.1,10.9,0.3
				c1.1,2.3-0.1,5-5.1,6.2s-9,9.9-18.1,10c-9.1,0.1-13.9-9-11.6-17C190.9,127.4,188.1,121.4,181.4,117.6z"/>
			<path class="st12" d="M181.4,117.6c0,0,4.4-3,10.9-1.1c0,0,1.9,8.7,7.1,11.6c2.8,1.6,9.8,1.5,15.3-0.3c6.6-2.1,9.8-2.1,10.9,0.3
				c1.1,2.3-0.1,5-5.1,6.2s-9,9.9-18.1,10c-9.1,0.1-13.9-9-11.6-17C190.9,127.4,188.1,121.4,181.4,117.6z"/>
		</g>
		<path class="st14" d="M223.2,129.8c0,0.2-0.2,0.4-0.4,0.4c-0.2,0-0.4-0.2-0.4-0.4c0-0.2,0.2-0.4,0.4-0.4
			C223,129.4,223.2,129.6,223.2,129.8z"/>
		<path class="st9" d="M200.4,137.2c-5.4,1.5-17.3,1-22.1-2.7c-4.8-3.7,0.7-2,0.7-2s-5.9-3.1-6.5-5.5c-0.6-2.4,2.9-0.9,2.9-0.9
			s-4.6-3.9-5.2-6.2c-0.6-2.3,2.8-0.9,2.8-0.9s-4.2-3.1-3.3-5.2c0.9-2.1,22.9,15.6,29.8,16.1C206.2,130.4,205.8,135.7,200.4,137.2z"
			/>
		<path class="st25" d="M200.4,137.2c-5.4,1.5-17.3,1-22.1-2.7c-4.8-3.7,0.7-2,0.7-2s-5.9-3.1-6.5-5.5c-0.6-2.4,2.9-0.9,2.9-0.9
			s-4.6-3.9-5.2-6.2c-0.6-2.3,2.8-0.9,2.8-0.9s-4.2-3.1-3.3-5.2c0.9-2.1,22.9,15.6,29.8,16.1C206.2,130.4,205.8,135.7,200.4,137.2z"
			/>
		<g>
			<g>
				<path class="st26" d="M165.2,112.5c-0.9-0.3-1.9-0.6-2.8-0.9"/>
				<path class="st27" d="M156.5,110c-3.5-0.7-7.1-1.2-10.6-1.5c-9.7-0.7-25-1.6-30.9,8c-5.4,8.8,3.9,23.9,7.2,32.1
					c4.1,10,8.9,22.5,4.1,33.1c-9.9,21.8-52,10.5-66.3-9.6"/>
				<path class="st26" d="M58.4,169.6c-0.5-0.9-0.9-1.8-1.3-2.7"/>
			</g>
		</g>
	</g>
</g>
<g id="Desk">
	<g>
		<g>
			<rect x="141.8" y="249" class="st19" width="38" height="7.8"/>
			<rect x="141.8" y="249" class="st18" width="38" height="7.8"/>
			<rect x="141.8" y="249" class="st18" width="16" height="7.8"/>
			<polygon class="st18" points="141.8,250.2 175.6,250.2 141.8,251.1 			"/>
			<polygon class="st18" points="179.8,251.5 150.5,252.2 179.8,252.2 			"/>
			<polygon class="st18" points="143.4,253.7 157.8,253.1 179.1,253.7 157.8,254 			"/>
			<polygon class="st18" points="141.8,255.3 166.9,255.3 141.8,255.9 			"/>
			<polygon class="st18" points="179.8,255.9 163,256.2 179.8,256.2 			"/>
		</g>
		<g>
			<rect x="136.6" y="241.3" class="st19" width="38" height="7.8"/>
			<rect x="136.6" y="241.3" class="st18" width="38" height="7.8"/>
			<rect x="136.6" y="241.3" class="st18" width="16" height="7.8"/>
			<polygon class="st18" points="136.6,242.4 170.4,242.4 136.6,243.3 			"/>
			<polygon class="st18" points="174.5,243.7 145.2,244.5 174.5,244.5 			"/>
			<polygon class="st18" points="138.1,245.9 152.6,245.3 173.8,245.9 152.6,246.2 			"/>
			<polygon class="st18" points="136.6,247.6 161.6,247.6 136.6,248.1 			"/>
			<polygon class="st18" points="174.5,248.1 157.8,248.5 174.5,248.5 			"/>
		</g>
		<g>
			<rect x="140.9" y="233.5" class="st19" width="38" height="7.8"/>
			<rect x="140.9" y="233.5" class="st18" width="38" height="7.8"/>
			<rect x="140.9" y="233.5" class="st18" width="16" height="7.8"/>
			<polygon class="st18" points="140.9,234.6 174.7,234.6 140.9,235.5 			"/>
			<polygon class="st18" points="178.9,235.9 149.6,236.7 178.9,236.7 			"/>
			<polygon class="st18" points="142.4,238.1 156.9,237.5 178.1,238.1 156.9,238.5 			"/>
			<polygon class="st18" points="140.9,239.8 165.9,239.8 140.9,240.4 			"/>
			<polygon class="st18" points="178.8,240.4 162.1,240.7 178.9,240.7 			"/>
		</g>
		<g>
			<polygon class="st14" points="204.1,256.7 205.1,252.9 245.7,252.9 264.4,254.8 265.1,256.7 			"/>
			<polygon class="st23" points="245.7,252.9 245.7,256.7 204.1,256.7 205.1,252.9 			"/>
		</g>
		<g>
			<path class="st14" d="M237.5,235.1c0.2,2-1.3,3.6-3.2,3.6h-62.1c-2,0-3.7-1.6-3.9-3.6l-3.7-39.8c0-0.4,0-0.8,0.1-1.2
				c0.3-1.4,1.6-2.4,3.1-2.4H230c2,0,3.7,1.6,3.9,3.6L237.5,235.1z"/>
			<path class="st23" d="M234.1,238.6h-61.9c-2,0-3.7-1.6-3.9-3.6l-3.7-39.8c0-0.4,0-0.8,0.1-1.2h61.9c2,0,3.7,1.6,3.9,3.6l3.7,39.8
				C234.2,237.9,234.2,238.3,234.1,238.6z"/>
			<polygon class="st14" points="191.4,214.3 204.3,214.3 200.8,251.1 221.2,254.1 221.2,256.7 178.4,256.7 178.4,254.1 
				187.1,251.1 			"/>
			<polygon class="st28" points="204.3,214.3 194.8,256.1 187.1,255.9 191.4,214.3 			"/>
		</g>
		<g>
			<g>
				<polygon class="st14" points="204.2,417.1 198.1,417.1 187.1,263.8 195.2,263.8 				"/>
				<polygon class="st25" points="204.2,417.1 198.1,417.1 187.6,271.4 187.1,264.1 195.2,264.1 195.6,271.4 				"/>
				<polygon class="st11" points="195.6,271.1 187.6,271.1 187.1,264.1 195.2,264.1 				"/>
			</g>
			<g>
				<polygon class="st14" points="249.2,417.1 243,417.1 242,263.8 250.2,263.8 				"/>
				<polygon class="st12" points="250.2,264.1 250,288.8 249.2,417.1 243,417.1 242.2,288.8 242,264.1 				"/>
				<polygon class="st11" points="250.2,264.1 250,289.1 242.2,289.1 242,264.1 				"/>
			</g>
			<g>
				<polygon class="st14" points="314.2,417.1 308.1,417.1 297.1,263.8 305.2,263.8 				"/>
				<polygon class="st12" points="314.2,417.1 308.1,417.1 297.6,271.4 297.1,264.1 305.2,264.1 305.6,271.4 				"/>
				<polygon class="st11" points="305.6,271.1 297.6,271.1 297.1,264.1 305.2,264.1 				"/>
			</g>
			<g>
				<polygon class="st14" points="134.1,417.1 128,417.1 137,263.8 145.1,263.8 				"/>
				<polygon class="st12" points="145.1,264.1 144.6,271.4 134.1,417.1 128,417.1 136.6,271.4 137,264.1 				"/>
				<polygon class="st11" points="137,264.1 145.1,264.1 144.6,271.1 136.6,271.1 				"/>
			</g>
			<g>
				<path class="st9" d="M309.5,267.7H132.7c-1.2,0-2.2-1-2.2-2.2V260h181.1v5.5C311.7,266.7,310.7,267.7,309.5,267.7z"/>
				<path class="st16" d="M309.5,267.7H132.7c-1.2,0-2.2-1-2.2-2.2V260h181.1v5.5C311.7,266.7,310.7,267.7,309.5,267.7z"/>
			</g>
			<rect x="130.6" y="260" class="st11" width="181.1" height="3.8"/>
			<g>
				<path class="st9" d="M315.4,261H126.8c-1.2,0-2.2-1-2.2-2.2l0,0c0-1.2,1-2.2,2.2-2.2h188.7c1.2,0,2.2,1,2.2,2.2l0,0
					C317.6,260,316.6,261,315.4,261z"/>
				<path class="st16" d="M315.4,261H126.8c-1.2,0-2.2-1-2.2-2.2l0,0c0-1.2,1-2.2,2.2-2.2h188.7c1.2,0,2.2,1,2.2,2.2l0,0
					C317.6,260,316.6,261,315.4,261z"/>
			</g>
		</g>
		<g>
			<path class="st9" d="M270.8,250l2.3-3.5c0.5-0.7,1.2-1.1,2.1-1.1h2.9c0.2,0,0.5,0,0.7,0.1l10.5,3.2c0.6,0.2,1.1,0.6,1.4,1.1
				l1.5,2.5L270.8,250z"/>
			<path class="st11" d="M292.3,252.3l-15.3-1.7l-6.2-0.7l2.3-3.5c0.5-0.7,1.2-1.1,2.1-1.1h2.9c0.2,0,0.5,0,0.7,0.1l0.2,0.1
				l10.2,3.1c0.6,0.2,1.1,0.6,1.4,1.1L292.3,252.3z"/>
			<path class="st11" d="M292.3,252.3l-15.3-1.7l2.1-5.1l10.2,3.1c0.6,0.2,1.1,0.6,1.4,1.1L292.3,252.3z"/>
			<path class="st9" d="M299.5,256.3v0.3h-13.3h-19.1l1.2-4.7c0.5-1.8,2.1-3,3.9-3h14.4c0.5,0,0.9,0.1,1.4,0.2l1.8,0.7l7.1,2.7
				C298.5,253.2,299.5,254.7,299.5,256.3z"/>
			<path class="st11" d="M299.5,256.3v0.3h-13.3l0,0l0.7-5.1c0.2-1.3,1.6-2.2,2.8-1.7l7.1,2.7C298.5,253.2,299.5,254.7,299.5,256.3z
				"/>
			<path class="st14" d="M288.3,253.2l4.2-12.7c0.2-0.5,0.8-0.8,1.3-0.5l0,0c0.4,0.2,0.6,0.6,0.5,1.1l-3.6,13.6
				C290.8,254.6,288.4,255.6,288.3,253.2z"/>
			<polygon class="st11" points="270.8,255.6 268.9,255.6 269.3,253.8 271.2,253.8 			"/>
			<polygon class="st11" points="273.6,255.5 271.7,255.5 272.1,253.7 274,253.7 			"/>
		</g>
	</g>
</g>
</svg>
