<svg xmlns="http://www.w3.org/2000/svg" xmlns:xlink="http://www.w3.org/1999/xlink" viewBox="0 0 400 300"><defs><linearGradient id="linear-gradient" x1="97.63" y1="169.38" x2="74.32" y2="201.37" gradientUnits="userSpaceOnUse"><stop offset="0" stop-color="#f15a24"/><stop offset="1" stop-color="#fff"/></linearGradient><linearGradient id="linear-gradient-2" x1="161.38" y1="227.21" x2="151.17" y2="242.63" xlink:href="#linear-gradient"/><linearGradient id="linear-gradient-3" x1="217.01" y1="169.17" x2="192.52" y2="202.79" xlink:href="#linear-gradient"/></defs><title>101-110</title><g style="isolation:isolate"><g id="Layer_2" data-name="Layer 2"><path d="M49.38,174l115.5-67.17a5.46,5.46,0,0,1,5.46,0L343.06,205.7a5.46,5.46,0,0,1,0,9.47L232.63,278.94a17.83,17.83,0,0,1-17.83,0L49.4,183.48A5.46,5.46,0,0,1,49.38,174Z" fill="#ffd5b8"/><path d="M84.15,204.12c6.5-5.58,11.23-10.79,18-16.09l-23.67-2.39-15.06,5.94C70.19,196,77.16,200,84.15,204.12Z" fill="url(#linear-gradient)" style="mix-blend-mode:multiply"/><path d="M183.44,261.13,212,245.19l-88.68-43-17.2,14C109.9,218.81,179.72,258.46,183.44,261.13Z" fill="url(#linear-gradient-2)" style="mix-blend-mode:multiply"/><path d="M229.07,246.38l44.57-28.86L164.78,150l-49.46,32.68C121.36,186.82,223.13,242.09,229.07,246.38Z" fill="url(#linear-gradient-3)" style="mix-blend-mode:multiply"/><polygon points="191.07 256.66 212 245.19 212 221.63 187.08 232.2 191.07 256.66" fill="#e87d34"/><polygon points="112.09 187.5 112.09 211.06 191.07 256.66 191.6 233.41 112.09 187.5" fill="#ef8a3f"/><polygon points="112.09 187.5 133.12 175.44 212 221.63 191.6 233.41 112.09 187.5" fill="#ff9a55"/><path d="M135.16,151.27l63,36.39a1.93,1.93,0,0,1,1,1.67v27.4a1.93,1.93,0,0,1-2.9,1.67l-63-36.39a1.93,1.93,0,0,1-1-1.67v-27.4A1.93,1.93,0,0,1,135.16,151.27Z" fill="#091114"/><polyline points="156.56 193.9 155.51 203.27 168.59 210.46 167.15 200.02" fill="#091114"/><ellipse cx="162.05" cy="205.38" rx="2.51" ry="13.46" transform="translate(-93.35 262.05) rotate(-64.24)" fill="#091114"/><path d="M80.8,175.32a3,3,0,0,1-1.23-.27l-.19,1.25,20,.51v-1.49Z" fill="#ef8a3f"/><path d="M79.56,175.1l-.18,1.2,11.05,6.38v-1.55C86.7,179.32,83.11,177.25,79.56,175.1Z" fill="#ef8a3f"/><path d="M90.72,88.79a3.19,3.19,0,0,1-1.92-.28L76.11,186.37c.77.47,1.57.89,2.35,1.33l12.83-99Z" fill="#ef8a3f"/><path d="M93.64,88.68a6.38,6.38,0,0,1-1.39,0c-.37,0-.75,0-1.12.06l8.57,100.34a20.33,20.33,0,0,1,2-.85l.34-.17.06,0Z" fill="#ef8a3f"/><path d="M92.25,88.69a11.51,11.51,0,0,0-1.53.11,3.81,3.81,0,0,1-.6,0l-.84,106h0a2.61,2.61,0,0,1,1.34-.11h.72l.42,0,.84-106Z" fill="#ef8a3f"/><path d="M78.41,90.38V112.3s25.22.75,25.22,0V90.38" fill="#68e1fd"/><ellipse cx="91.02" cy="90.34" rx="12.61" ry="5.84" fill="#68e1fd"/><ellipse cx="91.02" cy="90.34" rx="12.61" ry="5.84" fill="#091114" opacity="0.46"/><ellipse cx="91.02" cy="112.63" rx="12.61" ry="5.84" fill="#68e1fd"/><path d="M265,221.56a19.5,19.5,0,0,0,8.62-4c4.61-3.56-8.62-3.05-8.62-3.05Z" fill="#68e1fd"/><path d="M265,221.56a19.5,19.5,0,0,0,8.62-4c4.61-3.56-8.62-3.05-8.62-3.05Z" fill="#091114" opacity="0.22"/><path d="M167.93,155.95v11.87s.61,1.71,3.34,1.5,3.14-1.84,3.14-1.84V153.29Z" fill="#091114"/><path d="M254.64,209.07v11.87s.61,1.71,3.34,1.5,3.14-1.84,3.14-1.84V206.41Z" fill="#091114"/><path d="M273.83,158.43c5.91-3.91,12-7.54,17.88-11.47L196,92.22a12.35,12.35,0,0,0-12.39.07l-26.46,15.52c-4.35,2.56-3.69,6.45-3.69,6.45s-1.17,36.35,0,38.7,4.81,4.06,4.81,4.06L265,221.56C273.8,214.92,266.68,163.16,273.83,158.43Z" fill="#68e1fd"/><path d="M273.83,158.43c5.91-3.91,12-7.54,17.88-11.47L196,92.22a12.35,12.35,0,0,0-12.39.07l-26.46,15.52c-4.35,2.56-3.69,6.45-3.69,6.45s-1.17,36.35,0,38.7,4.81,4.06,4.81,4.06L265,221.56C273.8,214.92,266.68,163.16,273.83,158.43Z" fill="#091114" opacity="0.46"/><path d="M278.76,166.75s-89-51.07-88.87-51.61,0-19.16,0-19.16L295,156.46Z" fill="#68e1fd"/><path d="M303.86,155.12l-1.22-.1a26.84,26.84,0,0,1-6,3.42,188.2,188.2,0,0,1-28.69,17.21v42.75a13.94,13.94,0,0,0,3.85.22l27.38-16.23a11.83,11.83,0,0,0,5.8-10.18v-36C304.58,155.87,304.21,155.5,303.86,155.12Z" fill="#68e1fd"/><path d="M278.76,166.75s-89-51.07-88.87-51.61,0-19.16,0-19.16L295,156.46Z" fill="#091114" opacity="0.22"/><path d="M163.27,130.12l26.89-15,101.71,58.37-30.54,16.7a4.8,4.8,0,0,1-4.65,0l-93.42-52.41A4.37,4.37,0,0,1,163.27,130.12Z" fill="#68e1fd"/><path d="M303.86,155.12l-1.22-.1a26.84,26.84,0,0,1-6,3.42,188.2,188.2,0,0,1-28.69,17.21v42.75a13.94,13.94,0,0,0,3.85.22l27.38-16.23a11.83,11.83,0,0,0,5.8-10.18v-36C304.58,155.87,304.21,155.5,303.86,155.12Z" fill="#091114" opacity="0.22"/><path d="M154.32,109s-2.58.86,0,4.06,12-3.56,12-3.56L189.9,96,295,156.46l-27.42,15.61s-2.12,1.66-.52,3.53,3.85,1,8.32-1.2,28.84-16,28.84-16,2.42-1.64-1.27-4.75-108-61.86-108-61.86a7.84,7.84,0,0,0-8.64-1.11C181.48,93.16,154.32,109,154.32,109Z" fill="#68e1fd"/><path d="M277.55,65.62l-.76,41.91a2.64,2.64,0,0,1-3.81,2.31L237.36,92.1a3.49,3.49,0,0,1-1.93-3.19L236.19,47a2.85,2.85,0,0,1,4.15-2.49l35.31,18A3.49,3.49,0,0,1,277.55,65.62Z" fill="#ff9a55"/><path d="M255.51,86.38q-3.78-6.67-7.12-13.57c-1.4-2.9-5.71-.36-4.32,2.52q3.34,6.9,7.12,13.57C252.78,91.7,257.1,89.18,255.51,86.38Z" fill="#981e61"/><path d="M265.8,85.35a261.34,261.34,0,0,1-14.06-24.74c-1.44-2.88-5.75-.35-4.32,2.52a261.35,261.35,0,0,0,14.06,24.74C263.22,90.57,267.55,88.07,265.8,85.35Z" fill="#981e61"/><path d="M264.18,67.3c-3.22,0-3.22,5,0,5S267.4,67.3,264.18,67.3Z" fill="#981e61"/><polygon points="278.28 172.23 272.32 169.89 274.16 160.4 279.72 159.24 278.28 172.23" fill="#7c1251"/><path d="M191,85.55s-3.16,1.12-3.51,1.12-5.92-.07-5.55,3.16S191,92.22,191,92.22l4-4.16" fill="#ea831c"/><path d="M179.76,89.45,184.21,88s5.41-1.16,5.95,0-1,5-1.49,5.09l-4.1.93-4,.46" fill="#f7931e"/><path d="M214.93,132.25s27.61,17.91,30.32,18.16,29.94,10.75,29.94,10.75-1.35,6.77-.63,9.88c0,0-49.76-12.38-56-14.49s-20.66-16.19-17-20S214.93,132.25,214.93,132.25Z" fill="#e86a58"/><path d="M198.94,104c2.26-2.11,6-11.54,5.11-13.71s-7,1.43-7,1.43L191,85.55s8.48-6.89,12.54-8,7.19.18,8.48,5-2.95,21.74-2.41,25.35,5.36,24.35,5.36,24.35c-3.87,6.58-19.73,10-21.94,9.46s-13.46-25.38-13.46-25.38-21-13.52-18.25-19.82,14.93-8.08,17.42-8.36,4.37,7.65,4.37,7.65-8,2.21-8.71,3.23,2.77,3.6,9.4,5,8.11.63,8.11.63" fill="#9bc634"/><path d="M278.28,172.23s-.51-4.49-.87-6.56-1.68-13.57,3.6-13.18,1.94,11.58,2.1,12.82.7,4.74-.08,5.83S280,173.39,278.28,172.23Z" fill="#7c1251"/><path d="M284.93,163.31s1.92,1.29,3.2-.24,2-14,3-16.52,1.07-6.92-2-7.21-3.52,1.21-4.16,3.21-3.13,8.21-5.44,9a55.38,55.38,0,0,1-5.86,1.49l.53,7.35Z" fill="#981e61"/><path d="M196.64,107.36s5.42,24.25,5.65,24.89,5.14,3.48,5.14,3.48l1.09-4.36-10.38-24.45Z" fill="#091114"/><path d="M189.47,104.86s7.08,6.05,6.77,5.6,1.51-2.79,1.51-2.79l3.18,1-3.64-6.29" fill="#85aa1d"/><path d="M200.72,93.6s2.68,9.79-1.75,11.94-7.53-1.05-8.88-4-.83-9.77,4.89-10.47C200,90.48,200.72,93.6,200.72,93.6Z" fill="#f7931e"/><path d="M201.58,91.74c.47-1.2.66-3.33-.74-4a3.06,3.06,0,0,0-3.15.58,4.36,4.36,0,0,0-1.7-.8,6.9,6.9,0,0,0-6.47,1.4,1,1,0,0,1-.27.19,1.14,1.14,0,0,1-.42.05c-3.48.06-4.23,4-3.63,6.68a13.43,13.43,0,0,0,4.2,7.21,8.34,8.34,0,0,0,3.16,1.6.26.26,0,0,0,.33-.27.33.33,0,0,0,.1-.46,3.13,3.13,0,0,1-.3-1.9.28.28,0,0,0-.08-.26.31.31,0,0,0-.26-.52,2.45,2.45,0,0,1-2-.71c-.33-.34-.59-1,0-1.16a.76.76,0,0,1,.69.19,2.51,2.51,0,0,0,.33.45.31.31,0,0,0,.18.1c.24.08.54-.12.39-.38a2.57,2.57,0,0,0-.38-.52,1.8,1.8,0,0,1,.33-2.25c.81-.72,1.57-.33,2.5-.29a1.19,1.19,0,0,0,1.31-.86,4.46,4.46,0,0,0-.14-1.17,1.42,1.42,0,0,1,.88-1.38c1-.39,1.64.45,2.36,1a2.57,2.57,0,0,0,2.13.43,1.76,1.76,0,0,0,.95-2.8A.3.3,0,0,0,201.58,91.74Zm-6,1.39a1,1,0,0,1,.46-.39.85.85,0,0,0,.18-.11l.06,0,.1,0A2,2,0,0,0,195.56,93.13Zm5.6-2.07,0,0a2.82,2.82,0,0,0,.12-.32C201.22,90.83,201.19,90.95,201.16,91.05Z" fill="#935542"/><path d="M193,141.71s4.56,14.11,13.64,17,16.42-2.69,20.66-1.4,38.86,5.52,47.89,3.86c0,0,1.53-9.68-.63-11.71s-40-9.65-43.69-10.16-20.21-3-20.21-3" fill="#ff7b61"/></g></g></svg>