<?xml version="1.0" encoding="utf-8"?>
<!-- Generator: Adobe Illustrator 24.3.0, SVG Export Plug-In . SVG Version: 6.00 Build 0)  -->
<svg version="1.1" id="Layer_1" xmlns="http://www.w3.org/2000/svg" xmlns:xlink="http://www.w3.org/1999/xlink" x="0px" y="0px"
	 viewBox="0 0 309 288" style="enable-background:new 0 0 309 288;" xml:space="preserve">
<style type="text/css">
	.st0{fill:#FFFFFF;stroke:#000000;stroke-miterlimit:10;}
	.st1{fill:#16234B;}
	.st2{fill:#799EB5;}
</style>
<circle class="st0" cx="147.9" cy="147.2" r="141.2"/>
<g>
	<g>
		<path class="st1" d="M24.8,91c0.6-0.3,1.1-0.7,1.7-1c0.5-0.3,0.7-0.6,0.8-1.1c0.1-0.9,0.2-1.9,0.3-2.8c0.2-1.4,0.3-2.8,0.5-4.2
			c0.3-1.6,0.6-3.2,0.9-4.8c0.2-0.9,0.9-1.5,1.8-1.5c0.9,0.2,1.9,0.2,2.7,0.4c1.8,0.3,2.9,1.5,3.7,3.2c0.2,0.5,0.3,1,0.7,1.5
			c0.3-0.3,0.3-0.5,0.3-0.8c0.2-0.9,0.3-1.9,0.7-2.8c0.5-1.6,1.6-2.4,3.3-2.4c1.5,0,2.8,0.3,3.9,1.3c0.9,0.7,1.5,1.5,1.8,2.6
			c0.2,0.5,0,1.1-0.1,1.6c0,0.4-0.3,0.9-0.1,1.3c0.2,0.3,0.7,0.3,1.1,0.3c0.2,0,0.3,0.1,0.4,0.1c0.7,0.3,1.3,0.3,1.8-0.4
			c0.3-0.5,0.9-0.7,1.6-0.8c1.3-0.1,2.6,0,3.8,0.6c0.4,0.2,0.7,0.2,1.1-0.2c0.7-0.6,1.5-0.9,2.3-0.9c0.2,0,0.4,0,0.7,0
			c0.9,0.2,2,0.3,2.8-0.3c2-0.6,3.9-0.5,5.6,0.7c0.3,0.3,0.6,0.2,0.9,0c0.7-0.5,1.4-0.9,2.2-1.1c0.5-0.2,1-0.2,1.5,0
			c0.5,0.2,1.1,0.3,1.6,0.2c1.7-0.1,3.3,0.4,4.6,1.3c0.3,0.3,0.6,0.3,1,0c1.4-0.9,2.8-1.1,4.5-0.5c0.5,0.2,0.9,0.2,1.3-0.3
			c0.5-0.5,1.1-0.8,1.8-0.8c1.5-0.1,3,0.2,4.4,1c0.4,0.3,0.8,0.6,1,1c0.5,0.7,0.9,1.4,1.3,2.1c0.2,0.3,0.3,0.7,0.3,1.1
			c0,1-0.2,2-0.4,3c-0.3,0.9-0.5,1.9-0.8,2.7c-0.1,0.3,0,0.5,0.3,0.6c2.1,0.7,2.9,2.5,3.6,4.2c0.3,0.8,0,1.6-0.3,2.4
			c-0.9,1.6-2.2,2.5-4,2.7c-2,0.3-3.8-0.2-5.5-1.2c-0.7-0.4-0.7-0.4-1.3,0c-0.3,0.3-0.9,0.3-1.2,0.7c0.5,0.4,1.2,0.5,1.8,0.8
			c1.9,0.9,3.6,2,4.9,3.6c1,1.3,1.8,2.7,2.3,4.3c0.5,1.5,0.5,3.1,0.5,4.5c0,0.3-0.1,0.8,0.1,1.1c0.2,0.1,0.4,0,0.6,0
			c2.4-0.4,4.7-0.3,7,0.5c0.3,0.1,0.7,0.1,1,0c2.5-0.9,5-0.9,7.4,0.3c0.6,0.3,0.6,0.3,0.8-0.3c0.1-0.5,0.3-1.1,0.3-1.6
			c0.1-0.3,0.1-0.7-0.1-1c-1.2-2.3-0.3-4.2,1.4-5.6c2-1.6,4.2-2.7,6.7-3.1c2.2-0.3,4.4-0.2,6.2,1.2c2.1,1.5,3.1,3.6,2.7,6.2
			c-0.1,0.8-0.3,1.5-0.3,2.4c-0.1,0.6,0,0.7,0.6,0.6c1.4-0.1,2.7,0.1,4.1,0.4c1.5,0.4,2.8,1.3,3.9,2.4c0.4,0.4,0.4,0.4,1,0.1
			c3.3-2.1,6.8-3.1,10.6-3c2.2,0.1,4.4,0.7,6.2,2c1.1,0.8,2,1.8,2.7,3.1c1.1,2.1,1.1,4.2,0.3,6.4c-0.1,0.3,0.3,1,0.6,1.1
			c0.2,0,0.3-0.1,0.3-0.2c0.4-0.3,0.8-0.8,1.2-1c0.3-0.2,0.2-0.4,0.2-0.7c-0.1-0.8-0.1-1.6,0.1-2.4c0.3-2.1,1.3-3.9,2.9-5.3
			c2.7-2.4,5.9-3.3,9.5-3.3c2.3,0.1,4.5,0.5,6.5,1.4c0.6,0.3,0.7,0.3,0.9-0.3c0.3-0.8,0.4-1.6,0.6-2.4c0.1-0.3-0.1-0.4-0.2-0.7
			c-0.9-1.5-0.6-3,0.3-4.4c0.5-0.8,1.3-1.3,2.1-1.9c1.8-1.2,3.8-2.1,5.9-2.5c2.1-0.3,4.1-0.3,6,0.8c0.7,0.3,1.2,0.9,1.7,1.5
			c1.6,1.9,1.5,4,1,6.2c-0.1,0.4-0.2,0.9-0.3,1.4c-0.1,0.5-0.1,0.6,0.4,0.6c0.8,0.1,1.5,0.2,2.2,0.3c2.1,0.5,3.8,1.5,5,3.3
			c0.4,0.6,0.4,0.5,0.9,0.1c2.1-1.5,4.4-2.7,6.9-3.3c2.9-0.7,5.9-0.7,8.7,0.3c1.1,0.4,2.1,1,3.1,1.6c0.6,0.4,0.6,0.4,1.3,0
			c1.7-1.1,3.6-1.9,5.6-2.4c2.2-0.5,4.4-0.5,6.5,0.6c0.3,0.2,0.6,0.2,0.9,0c1.5-0.6,3.2-0.9,4.9-0.9c1.7,0.1,3.3,0.6,4.6,1.6
			c0,0,0,0,0.1,0.1c0.4,0.4,0.9,0.4,1.5,0.2c1.5-0.8,3-1.3,4.7-1.6c3.1-0.7,6.2-0.8,9.1,0.6c2.8,1.3,4.6,3.4,5.1,6.6
			c0.2,1.1-0.1,2.2-0.4,3.3c-0.3,0.8-0.2,1.4,0.3,2.1c0.8,1.3,0.7,2.7,0.2,4.1c-0.8,2-2.2,3.3-3.8,4.5c-2.5,1.9-5.3,3.3-8.4,3.9
			c-3.4,0.8-6.8,0.4-9.9-1.1c-0.9-0.5-1.8-1.2-2.6-2c-1.5-1.4-2.2-3.3-2.9-5.1c-0.1-0.3-0.3-0.5-0.7-0.5c-0.2,0-0.4,0-0.7-0.1
			c-1.1-0.2-1.1-0.2-1.5,1c-0.5,1.5-0.9,3.3-2,4.6c-0.3,0.3-0.2,0.6,0.1,0.9c1.6,1.7,1.9,3.8,1.4,6.1c-0.2,0.9-0.5,1.8-0.6,2.7
			c0,0.2-0.1,0.3,0.1,0.4c0.4-0.1,0.9-0.2,1.4-0.3c2.4-0.6,4.8-0.7,7.1,0.3c0.4,0.2,0.8,0.2,1.1,0c1.2-0.4,2.5-0.8,3.8-0.8
			c1.5-0.1,3,0.3,4.4,0.9c0.5,0.3,0.9,0.2,1.3-0.1c1.6-0.7,3.4-1.1,5.2-1.1c1.5,0,3,0.3,4.4,1.1c0.4,0.3,0.8,0.3,1.2,0.1
			c1.2-0.5,2.5-0.9,3.9-1.1c2.1-0.3,4.3-0.1,6.1,1.3c1.5,1.1,2.3,2.7,2.2,4.6c-0.1,1.5-0.5,3-0.9,4.5c-0.1,0.3-0.3,0.8-0.3,1.1
			c-0.5,1.9-1,3.8-1.6,5.6c-0.5,1.8-1,3.7-1.8,5.5c-0.9,2-2.1,3.7-3.6,5.2c-2.3,2.3-5.1,3.9-8.1,4.8c-3.3,0.9-6.5,1-9.8,0
			c-2.6-0.9-4.5-2.5-5.4-5.1c-0.2-0.5-0.3-1.1-0.3-1.7c-0.1-1.7,0.3-3.3,1.2-4.8c0.2-0.3,0.5-0.7,0.8-1c0.3-0.3,0.3-0.6,0.3-0.9
			c-0.1-0.7-0.2-1.4-0.2-2.1c0-0.3-0.1-0.5-0.4-0.5c-0.6-0.1-1.2-0.1-1.7-0.2c-0.4-0.1-0.6,0.1-0.7,0.4c-0.1,0.4-0.2,0.9-0.3,1.2
			c-0.4,1.4-0.9,2.7-1.9,3.9c-1.4,1.6-3.1,2.6-5.1,2.9c-0.4,0.1-0.9,0.2-1.4,0.1c-1.1-0.1-2.1,0.2-3.2,0.7c-1.5,0.7-3.1,0.4-4.5-0.5
			c-0.5-0.3-1-0.5-1.6-0.3c-1.4,0.4-2.9,0.6-4.4,0.5c-1.3-0.1-2.5-0.3-3.6-0.9c-0.7-0.3-1.3-0.3-2.1,0c-2.6,1.2-5.2,1.4-7.9,0.4
			c-0.6-0.3-1.2-0.5-1.8-0.9c-0.5-0.3-0.9-0.4-1.5-0.2c-1.5,0.7-3.1,1.2-4.7,1.5c-2.7,0.3-5.1,0-7.4-1.5c-0.4-0.3-0.9-0.4-1.4-0.1
			c-1,0.7-2.1,1.1-3.3,1.2c-0.9,0.1-1.6,0.1-2.5,0.1c-0.4,0-0.8,0.1-1.1,0.3c-1.8,0.9-3.5,0.8-5.1-0.3c-0.4-0.3-0.8-0.3-1.4-0.2
			c-1.3,0.4-2.6,0.6-3.9,0.6c-1.5,0-3-0.3-4.5-0.9c-0.5-0.2-0.9-0.3-1.4,0c-2.1,0.9-4.4,1.2-6.7,0.9c-1.2-0.2-2.3-0.7-3.3-1.3
			c-0.5-0.3-0.9-0.3-1.4-0.1c-1.6,0.8-3.4,1.4-5.3,1.5c-1.9,0.2-3.7-0.2-5.3-1c-0.4-0.2-0.8-0.3-1.2,0c-0.5,0.3-1,0.5-1.5,0.7
			c-0.8,0.3-0.8,0.3-0.7,1.2c0.1,0.7,0.1,1.4,0,2c-0.1,1.5-0.4,3-1,4.5c-0.6,1.5-1.5,2.7-2.6,3.9c-3.3,3.5-7.3,5.1-11.9,5.7
			c-4.2,0.5-8.2-0.1-12.1-1.6c-2-0.8-4-1.6-6-2.5c-0.5-0.3-0.9-0.2-1.5,0.1c-2.7,1.6-5.4,2.7-8.4,3.4c-4,0.9-8.1,1-12.2-0.2
			c-2.4-0.7-4.5-2-6.3-3.8c-2-2.1-3-4.5-3.1-7.3c-0.1-1.4,0.2-2.8,0.8-4.2c0.8-1.8,2-3.3,3.6-4.5c2.7-2,5.6-2.8,8.8-3
			c0.3,0,0.7,0,0.9-0.2c0.1-0.3-0.2-0.4-0.3-0.6c-1.7-1.7-3.1-3.7-4-5.9c-0.3-0.8-0.6-1.6-0.9-2.4c-0.2-0.7-0.3-0.7-0.9-0.3
			c-2,1-4,1.9-6.2,2.3c-2.2,0.4-4.4,0.5-6.6,0.4c-3.7-0.2-7.1-1.5-10.4-2.9c-1.2-0.5-2.4-1-3.6-1.5c-0.5-0.3-0.9-0.1-1.5,0.2
			c-2.1,1.4-4.4,2.3-6.8,3.1c-4,1.2-8.1,1.5-12.2,0.6c-2.3-0.5-4.5-1.4-6.2-2.8c-1.6-1.4-3-2.9-3.9-4.9c-1.2-2.7-1.2-5.3-0.3-8
			c0.4-1.4,1.2-2.7,2.3-3.7c2.7-2.8,6.1-3.9,9.8-4.2c0.3,0,0.9,0.2,0.9-0.2c0.2-0.3-0.3-0.5-0.5-0.8c-1.5-1.6-2.7-3.4-3.7-5.4
			c-0.7-1.4-1.2-2.8-1.4-4.4c-0.3-2-0.3-4,0.2-6.1c0.3-1.5,0.9-3,1.7-4.4c1.5-2.4,3.3-4.5,5.7-5.9c4.5-2.6,9.2-2.7,13.9-0.7
			c2.2,0.9,4.1,2.4,5.7,4.1c0,0.1,0.1,0.1,0.1,0.1c0.4,0.4,0.4,0.4,0.9,0c0.3-0.3,0.6-0.6,0.9-0.9c1.6-1.9,3.4-3.5,5.7-4.8
			c1.6-0.9,3.4-1.7,5.3-2.1c1-0.3,2.1-0.3,3.2-0.5c0.1-0.2,0-0.3-0.1-0.3c-0.5-0.4-1-0.8-1.5-1.4c-0.2-0.3-0.4-0.3-0.8-0.1
			c-2.8,1.2-5.3,1.3-8,0.4c-1.2-0.3-2.1-1.1-3-2.1c-0.9-1-1.7-2.1-2.3-3.3c-0.2-0.3-0.3-0.7-0.6-0.6c-0.4,0-0.3,0.4-0.4,0.7
			c-0.4,1.2-0.6,2.4-0.5,3.7c0,1.2-0.2,1.5-1.3,2c-1.3,0.6-2.7,0.4-4,0.3c-0.3-0.1-0.7-0.1-1,0.1c-1.5,0.7-3,0.8-4.6,0.4
			c-0.4-0.1-0.8-0.1-1.1,0.3c-1.5,1.5-3.3,2-5.2,1.5c-0.7-0.2-1.4-0.3-2.1-0.6c0,0.1-0.1,0.2-0.1,0.3c0.2,1.9-1.5,3.3-3.4,3.5
			c-0.5,0-0.9,0-1.5,0c-1.4,0-2.5-0.6-3.2-1.8c-0.5-0.9-1.3-1.6-1.5-2.7c-0.1-0.3-0.1-0.7-0.3-0.9c-0.3,0.3-0.2,0.7-0.2,1
			c-0.1,2.2-0.2,4.5-0.1,6.8c0.1,1.7-0.7,2.7-2.3,3.4c-1.2,0.5-2.5,0.6-3.8,0.3c-0.8-0.2-1.4-0.5-1.7-1.2c-0.1-0.3-0.3-0.4-0.4-0.7
			c-0.3-0.6-0.6-1.2-0.6-2c-0.1-2.5,0-5.1,0.1-7.5c0-0.4-0.1-0.7-0.4-0.9c-0.5-0.4-0.9-1-1.2-1.6c-0.3-0.5-0.6-1.1-0.9-1.6
			c-0.7-1-0.5-2.8,0.3-3.8C24.9,91.6,25,91.5,24.8,91z M194.4,107C194.3,107,194.3,106.9,194.4,107c-0.1-0.1-0.1-0.1-0.2-0.1
			C194.2,107,194.3,107,194.4,107c0.2,0.3-0.3,0.6-0.1,1c0.3,0,0.2-0.4,0.4-0.3c0.2,0.1,0.3,0.2,0.2-0.1
			C194.8,107.3,194.5,107.3,194.4,107z M65.3,140.8c1.3-2,2.2-4,3-6.1c0.1-0.3,0.3-0.5,0.3-0.7c0.1-0.3,0.3-0.5,0.7-0.6
			c3.4-0.8,6.8-2.1,9.8-3.9c2.5-1.5,4.7-3.2,6.6-5.3c1.6-1.8,2.9-3.7,3.9-5.9c0.7-1.5,1-3.1,1.2-4.7c0.2-1.4,0.1-2.7-0.3-4
			c-0.3-1.1-0.9-2.2-1.7-3.1c-1.5-1.7-3.5-2.6-5.8-2.7c-3.2-0.3-5.9,0.9-8.5,2.7c-2.7,1.9-4.7,4.4-6.3,7.2c-0.7,1.1-1.1,2.3-1.7,3.4
			c-0.9,2-1.7,4-2.5,6.2c-0.4,1-0.8,2.1-1.1,3.1c-0.1,0.3-0.3,0.5-0.6,0.3c-1.5-0.5-3.2-1.1-4.5-2.1c-1.9-1.5-2.7-3.3-2.4-5.7
			c0-0.3,0.2-0.8,0.3-1c1.2-1.9,3.6-2.4,5.4-1c0.4,0.3,0.8,0.6,1.2,0.9c0.7,0.5,1.4,0.4,2-0.1c0.6-0.5,0.7-1.2,0.6-2
			c-0.3-2.4-1.4-4.3-3.1-5.9c-2.4-2.3-5.3-3.4-8.7-3.2c-2.8,0.3-5.1,1.5-7,3.5c-0.7,0.7-1.3,1.5-1.7,2.4c-0.9,1.6-1.5,3.3-1.5,5.1
			c-0.1,1.5,0.1,3,0.6,4.5c0.3,1.3,0.9,2.4,1.7,3.5c1.4,2.1,3.2,3.7,5.3,5c2.9,1.7,6.1,2.7,9.4,3.1c0.6,0.1,0.6,0.1,0.4,0.6
			c-0.4,1.5-0.9,2.7-1.7,4c-0.2,0.3-0.3,0.3-0.7,0.2c-0.9-0.3-1.8-0.7-2.7-0.9c-3.1-1-6.2-1.9-9.3-2.1c-2.1-0.1-4.4,0-6.3,0.9
			c-2.2,1-3.9,2.7-4.5,5.2c-0.4,2.3,0.2,4.5,1.6,6.2c1.1,1.4,2.7,2.3,4.4,2.9c2.6,0.9,5.1,1,7.8,0.8c0.9-0.1,1.6-0.2,2.5-0.3
			c1.2-0.3,2.4-0.7,3.6-1.2c2.1-0.9,3.9-2,5.6-3.3c0.3-0.3,0.5-0.3,0.9-0.2c2.6,1.2,5.1,2.3,7.7,3.4c3.3,1.5,6.8,2.2,10.4,1.9
			c2.6-0.3,5-0.8,7.2-2.1c2.4-1.4,4.1-3.3,5-6c1-3.2,0.3-6-1.8-8.4c-1.3-1.5-3-2.4-5-2.8c-2.9-0.6-5.8-0.2-8.6,0.9
			c-0.9,0.3-1.7,0.8-2.4,1.5c-0.8,0.8-0.7,2.1,0.6,2.4c0.5,0.1,0.9,0.3,1.4,0.5c0.3,0.2,0.6,0.4,0.7,0.8c0.3,1,0.2,2-0.5,2.7
			c-0.6,0.7-1.4,1.1-2.2,1.3c-1,0.3-2.1,0.1-3,0C68.9,142.1,67.1,141.5,65.3,140.8z M115.6,171.5c0.9-1,1.5-2.2,2.1-3.4
			c0.4-0.9,0.9-1.9,1.3-2.9c0.2-0.3,0.3-0.7,0.8-0.8c5.2-1.2,9.9-3.3,14-6.8c2.7-2.2,4.9-4.8,6.3-8c0.9-2,1.5-4.1,1.4-6.2
			c0-0.3-0.2-0.7-0.2-1.1c-0.1-1-0.4-2.1-1-3c-1.5-2.2-3.8-3.3-6.4-3.4c-2.3-0.2-4.5,0.4-6.6,1.5c-3.2,1.6-5.7,4.1-7.5,7.1
			c-0.9,1.5-1.8,3.1-2.6,4.7c-1.1,2.2-2.1,4.5-2.9,6.9c-0.2,0.5-0.4,1-0.6,1.5c-0.1,0.3-0.3,0.4-0.7,0.3c-1.5-0.5-3.2-1.1-4.5-2.1
			c-1.6-1.2-2.3-2.9-2.2-4.9c0.1-0.9,0.3-1.8,1.1-2.4c1.5-1.2,3.5-1.2,5,0c0.3,0.3,0.6,0.5,0.9,0.8c1,0.8,2.1,0.3,2.6-0.9
			c0.1-0.3,0.2-0.4,0.1-0.7c0-1.3-0.3-2.5-0.9-3.5c-0.7-1.3-1.5-2.3-2.7-3.3c-2-1.6-4.3-2.6-6.8-2.6c-4.3,0-7.5,1.9-9.9,5.5
			c-1.1,1.7-1.7,3.7-1.8,5.7c-0.1,3.2,1,6,3,8.4c2.1,2.5,4.6,4,7.6,5.1c2,0.8,3.9,1.1,6,1.5c0.7,0.1,0.7,0.1,0.4,0.8
			c-0.4,1.3-1,2.5-1.7,3.6c-0.3,0.5-0.3,0.5-0.9,0.3c-2.5-0.9-5.1-1.7-7.7-2.2s-5.3-0.9-8-0.4c-2.4,0.4-4.6,1.4-6.1,3.5
			c-1.7,2.4-1.5,5.1-0.3,7.4c0.9,1.6,2.5,2.7,4.3,3.5c3,1.2,6.1,1.4,9.2,0.9c3.9-0.6,7.4-2,10.4-4.5c0.5-0.4,1-0.6,1.7-0.3
			c2.6,1.2,5.2,2.4,7.9,3.4c2.4,1,5,1.6,7.6,1.6c2,0,3.9-0.3,5.7-0.8c2-0.6,3.8-1.5,5.3-3c1.5-1.4,2.5-3.1,3-5.1
			c0.3-1.4,0.4-2.8,0-4.2c-1-3.3-3.4-5.1-6.8-5.9c-1.7-0.3-3.4-0.3-5.1,0.1c-1.5,0.3-2.8,0.6-4.1,1.4c-0.5,0.3-0.9,0.6-1.3,1
			c-0.8,0.9-0.4,1.9,0.7,2.2c0.3,0.1,0.4,0.1,0.7,0.2c1.7,0.4,1.6,2.1,1,3.1c-1,1.6-2.6,2.1-4.4,2
			C120,172.9,117.9,172.3,115.6,171.5z M157.8,133.2c-0.7,0.6-1.3,1.2-2,1.7c-1.9,1.5-3.9,2.7-6.2,3.4c-1.3,0.4-2.6,0.7-3.9,0.9
			c-0.6,0.1-0.6,0.1-0.4,0.7c0.3,1.3,0.6,2.7,0.5,3.9c0,0.2,0,0.3,0,0.6s0.2,0.4,0.4,0.4c0.2,0,0.3,0,0.5-0.1c2-0.2,3.9,0,5.7,0.6
			c0.4,0.2,0.8,0.1,1.1-0.1c2.8-0.9,5.6-0.9,8,1c0.4,0.3,0.8,0.2,1.1,0c1.1-0.6,2.3-1,3.5-1.4c2.4-0.7,4.8-0.6,6.9,0.7
			c0.5,0.3,0.9,0.3,1.3,0.1c1.6-0.8,3.3-1.2,5.1-1.2c2.1,0,3.9,0.5,5.6,1.9c0.3,0.3,0.5,0.2,0.9,0c1.5-0.8,2.9-1.5,4.5-1.9
			c2.1-0.5,4.3-0.5,6.3,0.3c0.3,0.2,0.7,0.2,1.1,0c1.8-0.6,3.8-0.9,5.7-0.8c1.8,0.2,3.4,0.8,4.9,1.9c0.8,0.6,1.3,1.4,2,2.1
			c0.3-0.2,0.6-0.3,0.9-0.6c2.6-2,5.4-3.3,8.6-3.5c0.8-0.1,0.9-0.2,1-0.9c0.1-0.3-0.1-0.6-0.2-0.9c-0.7-1.4-0.7-2.7,0.1-4
			c0.2-0.3,0.3-0.5,0.4-0.8c0.1-0.1,0.2-0.2,0.1-0.3c-0.2-0.6-0.5-0.8-1.1-0.5c-1.4,0.6-2.7,1.1-4.3,1.4c-2.2,0.5-4.5,0.5-6.7,0
			c-1.5-0.3-3-0.9-4.3-1.9c-0.3-0.3-0.7-0.3-1,0c-1.2,0.8-2.6,1.4-4,1.8c-3.4,0.9-6.7,0.8-9.7-1.2c-0.3-0.3-0.6-0.3-0.9,0
			c-1.6,1.1-3.5,1.6-5.5,1.5c-0.7,0-1.3,0.1-1.8,0.4c-2,1.2-4.4,0.7-5.6-0.7c-0.3-0.3-0.6-0.4-1-0.3c-3.9,1.4-7.9,1.5-11.9,0.3
			c-2.1-0.7-3.9-1.9-5.2-3.9C158.4,133.9,158.2,133.5,157.8,133.2z M264.4,162.5C264.4,162.6,264.5,162.6,264.4,162.5
			c-0.4,1.2-1,2.2-2,3.1c-1.4,1.2-2.9,1.6-4.6,1.2c-1-0.3-1.7-0.8-2.1-1.8c0-0.1-0.1-0.2-0.1-0.3c-0.1-0.2-0.3-0.2-0.4-0.1
			c-1.3,0.7-2.4,1.5-2.9,2.9c-0.4,1.4,0.1,2.9,1,3.8c0.7,0.7,1.5,1,2.5,1.3c2.7,0.7,5.2,0.3,7.7-0.6c1.7-0.6,3.2-1.6,4.5-2.8
			c1.7-1.5,2.8-3.4,3.6-5.5c0.5-1.5,0.9-2.9,1.3-4.4c0.6-2.1,1.2-4.1,1.8-6.2c0.3-0.9,0.5-1.9,0.7-2.8c0.3-1.1-0.3-2.2-1.8-2.5
			c-0.7-0.1-1.3-0.1-2,0.1c-1.8,0.3-3.3,1.2-4.9,2.4c1.2,0.6,1,1.5,0.8,2.5c-0.3,1.1-0.7,2.1-0.9,3.3c-0.2,0.5-0.4,1-0.7,1.5
			c-0.4,0.7-1,1-1.8,1c-0.9,0-1.5-0.6-1.2-1.5c0.2-0.6,0.3-1.1,0.5-1.7c0.3-1,0.5-2.1,0.9-3.3c0.3-0.7,0.5-1.5,0.4-2.2
			c0-0.6-0.3-1.1-0.8-1.5c-0.7-0.5-1.5-0.6-2.3-0.5c-2.1,0.2-3.9,1.1-5.6,2.2c-0.3,0.2-0.3,0.4,0,0.6c0.7,0.5,0.7,1.2,0.5,2
			c-0.1,0.2-0.1,0.4-0.2,0.6c-0.6,2.2-1.3,4.5-1.9,6.7c-0.5,1.8,0.3,3.6,2.1,4.3c0.9,0.3,1.8,0.4,2.7,0.3c1.2-0.2,2.3-0.5,3.3-1
			C263.2,163.1,263.8,162.8,264.4,162.5z M68.2,88.4c0.2,0.3,0,0.4,0,0.6c0,2.3,0.7,4.3,2.8,5.6c1.7,1,4.6,0.9,6.2-0.4
			c1.1-1,1.7-2.4,2.1-3.8c0.5-1.6,0.6-3.3,0.3-4.9c-0.2-1.3-0.7-2.2-1.8-2.9c-1.1-0.7-2.4-0.7-3.7-0.4c-0.3,0.1-0.6,0.1-0.8-0.2
			c-0.4-0.3-0.8-0.3-1.3-0.1c-0.9,0.4-1.5,1.1-2.1,1.9c-0.5,0.8-0.9,1.6-1.3,2.5c-0.3,0.9-1.3,1.5-2.1,1.3c-0.6-0.1-0.9-0.3-0.9-0.9
			c0-0.6,0.2-1.1,0.4-1.7c0.3-0.6,0.6-1.1,0.8-1.7c0.3-0.7,0-1-0.7-1.2s-1.5-0.3-2.1,0.1c-0.3,0.2-0.6,0.3-0.7,0.7
			c-0.3,1.1-0.8,2.2-1.2,3.3c-0.2,0.5-0.4,0.9-0.7,1.5c-0.1,0.2-0.2,0.3-0.3,0.2c-0.1-0.1-0.1-0.2-0.1-0.3c0.1-1,0.3-2,0.3-3
			c0.2-1.5,0.3-1.5-1.3-1.8c-1.1-0.2-1.6,0.2-1.9,1.3c-0.2,0.7-0.2,1.4-0.2,2.1c0,1.7,0.1,3.3-0.1,5.1c-0.1,1-0.6,2-1.3,2.7
			c-0.6,0.7-1.5,0.8-2,0.3c-0.3-0.3-0.6-0.8-0.7-1.3c0-0.7,0-1.5,0.1-2.1c0.4-2.1,0.8-4.2,1.2-6.2c0.1-0.6,0-0.8-0.5-1
			c-0.5-0.3-1-0.3-1.5-0.3c-0.9,0-0.9,0-1.1,0.9c-0.3,1.6-0.7,3.3-1.3,4.8c-0.7,2.1-1.6,4.1-2.7,6.1c-0.2,0.3-0.3,0.5-0.5,0.8
			c-0.1,0.2-0.2,0.2-0.3,0.1c-0.2,0-0.2-0.2-0.2-0.3c0-0.2,0-0.3,0-0.5c0-1.3,0-2.5,0.2-3.8c0.2-1,0.3-2.1,0.5-3
			c0.3-1,0.5-2.1,0.9-3.3c0.1-0.2,0.1-0.3-0.1-0.5c-0.5-0.6-1.9-0.5-2.3,0.1c-0.3,0.6-0.8,1.1-0.9,1.8c-0.4,1.5-0.9,2.9-1.2,4.5
			s-0.4,3.1-0.3,4.6c0,0.7,0.3,1.3,0.9,1.7c0.7,0.4,1.4,0.9,2.1,0.9c1,0.2,1.9-0.1,2.6-1c0.4-0.6,0.8-1.2,1-1.9
			c0.3-0.6,0.5-1.2,0.9-2c0.2,0.3,0.1,0.6,0.2,0.8c0.2,1.2,0.9,2.2,2.1,2.3c1.2,0.1,2.2-0.3,3.1-1c0.3-0.2,0.4-0.5,0.9-0.7
			c-0.1,0.4,0,0.8,0.3,0.9c0.8,0.3,1.5,0.4,2.4,0.3c0.4-0.1,0.5-0.3,0.5-0.7c0-2.1,0.4-4,1.3-5.9c0.3-0.6,0.3-1.3,0.9-1.8
			c0.1,0.1,0.2,0.2,0.2,0.3c0.3,0.8,0.9,1.2,1.8,1.3C66.5,88.9,67.4,88.8,68.2,88.4z M225.2,140.1c0.3,0.3,0.4,0.3,0.6,0.5
			c0.3,0.3,0.4,0.6,0.4,1c0,0.4-0.1,0.8-0.2,1.2c-0.3,0.9-0.5,1.7-0.7,2.6c-0.3,1.2-0.7,2.4-1,3.6c-0.5-0.3-1-0.6-1.6-0.8
			c-1.6-0.3-3.2-0.3-4.7,0.3c-2.2,0.8-4,2.2-5.5,4.1c-1.7,2.2-2.6,4.7-2.4,7.5c0.1,1.1,0.4,2.2,1.1,3.1c1.3,1.5,2.9,1.7,4.7,1.4
			c1.3-0.3,2.3-0.9,3.3-1.7c0.8-0.7,1.5-1.4,2.2-2.2c0,0.3,0,0.4,0,0.5c-0.1,1.5,0.9,2.9,2.5,3.3c0.8,0.2,1.5,0.3,2.2,0.2
			c1.9-0.3,3.7-0.9,5.3-2c0.7-0.5,1.5-0.9,1.7-1.8c0.1-0.3,0.2-0.7-0.1-1c-0.3-0.3-0.6-0.3-0.9-0.2c-0.4,0.1-0.9,0.3-1.4,0.3
			c-0.9,0.1-1.5-0.5-1.4-1.5c0-0.3,0.1-0.6,0.2-0.9c0.8-2.9,1.5-5.7,2.3-8.6c0.2-0.6,0.3-1.2,0.5-1.9c0.7-2.2,1.3-4.5,1.8-6.7
			c0.3-1.5-0.5-2.7-2.1-2.8C229.3,137.5,227.3,138.7,225.2,140.1z M121.4,128c0.9,2.3,2.3,4.5,3.4,5.6c1.1,1.2,2.5,1.6,4.1,1.4
			s3.1-0.9,4.5-1.8c0.7-0.4,1.3-0.9,1.6-1.5c0.3-0.5,0-1.1-0.6-1.2c-0.2,0-0.3,0-0.5,0c-2.1,0.4-3.5-0.5-4.8-1.9
			c-0.9-1-1.6-2.1-2.4-3.3c-0.6-0.9-0.5-1.3,0.2-2c0.5-0.6,1.1-0.9,1.8-1.3c0,0.2,0,0.3,0,0.3c-0.2,1,0.2,1.7,1,2.3
			c1,0.6,2.1,0.6,3.2,0.2c2.2-0.9,3.1-4,0.8-5.8c-1.4-1.1-2.9-1.2-4.5-0.9c-2.1,0.4-3.8,1.8-5.4,3.2c-0.3,0.2-0.4,0.4-0.7,0.7
			c-0.3,0.2-0.3,0.5-0.8,0.7c0.6-2.7,1.1-5.3,1.6-7.9c0.3-1.5,0.8-3.1,0.9-4.6c0.1-0.8-0.2-1.4-0.7-1.9c-0.7-0.6-1.5-0.8-2.5-0.7
			c-1.4,0.1-2.7,0.5-3.9,1.3c-0.6,0.3-1.2,0.7-1.6,1.4c1,0.7,1,1.6,0.8,2.6c-0.5,2-0.8,3.9-1.2,5.9c-0.7,2.9-1.1,5.8-1.7,8.8
			c-0.2,0.9-0.6,1.8-0.7,2.7c-0.2,1.5-0.4,2.8-0.8,4.2c-0.1,0.4-0.2,0.9-0.2,1.4c0.1,0,0.2,0,0.2,0c0.1,0,0.2-0.1,0.2-0.1
			c0.8-0.6,1.7-0.8,2.7-0.8c0.5,0,1,0,1.6,0c1.5,0,2.9-0.8,3.3-2.8c0.2-0.9,0.3-1.8,0.6-2.7C121.2,128.7,121.1,128.3,121.4,128z
			 M180.3,134.9c0.1,0,0.2,0,0.2,0c0.1,0,0.2-0.1,0.3-0.2c0.9-0.6,1.8-0.8,2.8-0.8c0.5,0,1,0,1.6,0c1.6-0.2,3-0.9,3.4-2.8
			c0.3-1.6,0.9-3.3,1.2-4.9c0.2-0.7,0.5-1.4,0.9-2c0.4-0.7,1-0.9,1.8-1c0.9-0.1,1.4,0.5,1.3,1.4c0,0.7-0.3,1.3-0.4,2
			c-0.3,1.3-0.8,2.6-0.9,3.9c-0.1,1.1,0.2,2.1,1.1,2.7c1,0.9,2.3,1.1,3.6,1c1.2-0.1,2.4-0.3,3.5-0.9c1.2-0.6,2.3-1.3,3.3-2.3
			c0.3-0.3,0.5-0.7,0.6-1.2c0.1-0.6-0.3-0.9-0.9-0.8c-0.3,0.1-0.7,0.3-1,0.3c-0.5,0.1-1.1,0.2-1.6-0.2c-0.7-0.5-0.6-1.2-0.4-1.9
			c0.3-1,0.5-2,0.8-3c0.3-1.1,0.7-2.2,0.9-3.3c0.3-2.1-1-3.3-2.5-3.8c-2.1-0.6-4.2-0.2-6.1,0.9c-0.7,0.3-1.2,0.9-2.1,1.1
			c0-0.3,0-0.5,0.1-0.7c0.4-1.7,0.9-3.4,1.4-5.1c0.3-1.3,0.7-2.5,0.9-3.8c0.2-0.6,0.1-1.2-0.1-1.7c-0.3-0.9-1.1-1.2-2-1.4
			c-0.4-0.1-0.8,0.1-1.2-0.2c-0.1-0.1-0.2-0.1-0.3,0.1s-0.3,0.2-0.3,0.2c-1.3,0.3-2.4,0.7-3.5,1.4c-0.5,0.3-1.1,0.6-1.5,1.2
			c1.1,0.4,1.1,1.3,0.9,2.1c-0.1,0.3-0.3,0.5-0.3,0.9c-0.4,2.4-1.2,4.8-1.7,7.2c-0.5,2.5-1.2,5-1.8,7.4c-0.6,2.3-1,4.6-1.7,6.9
			C180.4,134.2,180.2,134.5,180.3,134.9z M150,160.9c0,0.3,0.1,0.3,0.1,0.5c0,0.5,0,1,0.2,1.6c0.5,1.5,2.2,2.1,3.6,2.1
			c1.4-0.1,2.6-0.3,3.8-0.9c1.2-0.5,2.2-1.2,3.1-2.2c0.5-0.5,0.6-1.2,0.3-1.5c-0.4-0.5-0.9-0.3-1.4-0.2c-0.3,0.1-0.7,0.3-1.1,0.3
			c-1,0-1.6-0.7-1.4-1.7c0.7-2.7,1.4-5.3,1.9-8c0.3-1.1-0.2-1.8-1.3-2.1c-0.8-0.2-1.5-0.1-2.2,0.3c-0.8,0.3-1.5,0.7-2.1,1.2
			c-0.3,0.2-0.4,0.3-0.7,0c-1.7-1.5-3.8-1.8-5.9-1.3c-2.5,0.7-4.5,2.1-5.9,4.3c-1.3,1.9-2.1,3.9-2.1,6.2c0,1.5,0.3,2.9,1.2,4
			c1,1.3,2.4,1.9,4.1,1.7c1.8-0.3,3.1-1.2,4.3-2.5C148.9,162.1,149.3,161.5,150,160.9z M29.1,94.3c0.2,0.3,0.1,0.6,0.1,0.8
			c-0.2,1.1-0.2,2.3-0.3,3.4c-0.1,2-0.1,3.9-0.2,5.8c0,0.7,0.1,1.4,0.1,2c0,0.4,0.2,0.6,0.6,0.6c0.6,0,1.1-0.1,1.6-0.2
			c0.6-0.2,0.8-0.4,0.8-1c-0.1-2.7-0.1-5.5,0.1-8.2c0.1-1.5,0.3-2.9,0.3-4.3c0-0.3,0.1-0.4,0.3-0.5c0.8-0.4,1.5-0.6,2.2-0.9
			c1.2-0.5,2.5-0.9,3.7-1.2c0.7-0.2,0.8-0.2,0.7,0.5c-0.2,2.2-0.3,4.5-0.5,6.7c0,0.3,0,0.5-0.3,0.6c-0.3,0.1-0.3,0.3-0.3,0.5
			c-0.1,1.2,0.8,2.1,1.9,2.2c0.3,0,0.6,0,0.9-0.1c0.8-0.1,1.1-0.3,1-1.3c-0.1-1.8,0.1-3.6,0.3-5.4c0.3-3,0.5-6,1-9
			c0.4-2.2,0.5-4.5,1-6.7c0.3-0.9,0.2-1-0.9-1.4c-0.3-0.1-0.4-0.1-0.7-0.2c-0.9-0.1-1.3,0.3-1.5,0.9c-0.8,2.7-1.1,5.4-1.5,8.1
			c-0.1,0.7-0.2,1.4-0.3,2.1c-0.9-0.3-1.1-0.3-2-0.1c-1.5,0.4-3,0.9-4.4,1.5c-0.4,0.2-0.5,0.1-0.4-0.3c0.1-0.5,0.1-1,0.2-1.6
			c0.2-1.5,0.3-3.1,0.6-4.6c0.2-0.7,0-1.6,0.8-2.1c0.1-0.1,0.1-0.3,0.1-0.3c0-0.3,0-0.7,0-0.9c0-0.7-0.3-1-1-1.1
			c-0.4-0.1-0.8-0.2-1.2-0.2c-0.8,0-0.8,0-0.9,0.7c-0.3,1.5-0.5,3.1-0.8,4.5c-0.4,2.3-0.6,4.6-0.9,7c-0.1,0.4-0.2,0.7-0.6,0.9
			c-0.9,0.4-1.7,1-2.7,1.5c-0.3,0.2-0.4,0.3-0.4,0.7c0,1,1.1,1.7,2,1.3C28.3,94.7,28.7,94.4,29.1,94.3z M224.7,123.6
			c0-0.1,0-0.2,0-0.3c0-2.9-1.8-5.2-4.5-6c-1.4-0.4-2.7-0.5-4.2-0.3c-2.7,0.3-5.1,1.4-7.2,3.2c-1.9,1.8-3.1,4-3.3,6.7
			c-0.3,2.9,1.2,5.3,3.7,6.5c1.7,0.9,3.6,0.9,5.5,0.7c3.3-0.5,6-1.9,8-4.5C224,127.7,224.7,125.8,224.7,123.6z M173.2,162.2
			c0.2,0.4,0.2,0.8,0.3,1c0.4,0.9,1.2,1.4,2.1,1.6c1,0.3,2.1,0.2,3.1,0c1.9-0.4,3.7-1.1,5.1-2.5c0.4-0.3,0.8-0.9,0.9-1.4
			s-0.2-0.9-0.7-1c-0.3,0-0.6,0.1-0.9,0.2c-0.3,0.2-0.8,0.3-1.2,0.2c-0.7-0.1-1-0.4-1-1c0-0.3,0.1-0.8,0.1-1.1
			c0.6-2.4,1.2-4.8,1.7-7.2c0.1-0.3,0.1-0.5,0-0.8c-0.3-0.9-0.8-1.5-1.7-1.6c-0.6-0.2-1.2-0.2-1.7-0.1c-1.9,0.3-3.5,1.1-5.1,2.2
			c-0.3,0.3-0.3,0.3,0.1,0.5c0.5,0.3,0.7,0.7,0.7,1.3c0,0.3,0,0.5-0.1,0.8c-0.3,1.3-0.7,2.6-1,3.8c-0.1,0.3-0.3,0.7-0.4,0.9
			c-0.4,0.8-1.5,1.2-2.3,0.9c-0.4-0.1-0.7-0.3-0.7-0.8s0-0.8,0.1-1.2c0.4-1.9,0.9-3.8,1.3-5.6c0.3-1.5-0.6-2.6-2.1-2.7
			c-0.8-0.1-1.5,0-2.3,0.3c-1.5,0.4-2.8,1.1-4.1,2.1c-0.1,0.1-0.2,0.2-0.2,0.3c1,0.5,1,1.4,0.8,2.4c-0.3,1.1-0.5,2.2-0.8,3.3
			c-0.3,1.5-0.7,2.8-0.9,4.3c-0.2,0.8,0,1.5,0.5,2.2c0.8,1,1.9,1.5,3.1,1.6c1.3,0.1,2.6-0.2,3.8-0.7
			C170.9,163.8,172.1,163.1,173.2,162.2z M185.2,165.1C185.2,165.2,185.2,165.2,185.2,165.1c1.1-0.7,2.2-0.8,3.4-0.7
			c0.5,0,1,0,1.5,0c1.1-0.1,2-0.5,2.7-1.5c0.3-0.5,0.6-1,0.8-1.7c0.3-1.6,0.9-3.3,1.3-4.9c0.1-0.3,0.2-0.6,0.3-0.9
			c0.4-0.8,1-1.4,2-1.5c0.9-0.2,1.5,0.5,1.4,1.4c-0.3,1.5-0.6,3.2-1.1,4.6c-0.8,2.2,0.3,3.9,2.2,4.5c0.4,0.1,0.9,0.2,1.3,0.3
			c2.4,0.1,4.6-0.6,6.6-1.9c0.6-0.4,1.3-0.9,1.6-1.6c0.2-0.3,0.4-0.6,0.1-1c-0.3-0.3-0.6-0.4-1-0.3c-0.3,0.1-0.7,0.2-1.1,0.3
			c-1.2,0.3-2.2-0.3-1.7-1.8c0.6-1.9,1-3.8,1.5-5.7c0.6-2.2-0.4-3.9-2.6-4.4c-0.3-0.1-0.6-0.1-0.9-0.2c-2-0.1-3.8,0.4-5.4,1.4
			c-0.5,0.3-0.9,0.6-1.5,0.9c-0.3-1.8-0.9-2.2-2.6-2.2c-1.5-0.1-2.7,0.3-4,0.9c-0.8,0.4-1.6,0.8-2.4,1.5c0.2,0.1,0.3,0.2,0.3,0.2
			c0.5,0.3,0.6,0.8,0.6,1.3c0,0.6-0.2,1.2-0.3,1.7c-0.4,1.8-0.9,3.5-1.4,5.2c-0.3,1.2-0.5,2.5-0.9,3.8
			C185.5,163.6,185.3,164.4,185.2,165.1z M100.7,130.6c0,0.4,0,0.7,0,0.9c0,1.4,0.7,2.3,1.8,2.9c1.1,0.6,2.2,0.6,3.4,0.4
			c1.9-0.3,3.5-1.1,5-2.3c0.5-0.4,1-0.9,1.2-1.5c0.2-0.8-0.3-1.4-1.1-1.1c-0.3,0.1-0.7,0.3-1,0.3c-1.3,0.3-2.1-0.4-1.9-1.6
			c0.3-2.1,0.8-4.1,1.2-6.2c0.2-0.7,0.3-1.5,0.4-2.1c0.3-1-0.2-1.9-1.3-2.2c-0.9-0.3-1.7-0.1-2.6,0.3c-0.7,0.3-1.4,0.7-2,1.1
			c-0.3,0.2-0.5,0.2-0.7,0c-0.3-0.3-0.6-0.6-1-0.8c-2.3-1.2-4.5-1-6.8,0.1c-1.5,0.7-2.7,1.8-3.7,3.1c-1.2,1.4-1.9,3.1-2.3,4.8
			c-0.5,2.2-0.4,4.4,0.9,6.4c0.3,0.6,0.8,1,1.4,1.5c1.2,0.8,2.6,0.9,3.9,0.4c1.2-0.3,2.1-1,3.1-1.9
			C99.4,132.4,99.9,131.5,100.7,130.6z M144.4,134.9c0.4,0,0.8,0,1.2,0c0.2,0,0.3-0.1,0.5-0.1c2.7-0.4,5.1-1.6,7.2-3.3
			c0.8-0.6,1.5-1.3,1.9-2.2s-0.2-1.6-1.1-1.5c-0.5,0-1,0.3-1.5,0.6c-1.3,0.8-2.7,1.5-4.1,1.8c-0.9,0.2-1.8,0.3-2.7-0.1
			c-0.4-0.2-0.7-0.4-0.9-0.9c-0.3-0.6-0.2-0.9,0.5-0.9c2.1-0.2,3.9-0.6,5.7-1.5c1.6-0.9,2.9-2,3.3-3.9c0.2-0.8,0.1-1.5-0.3-2.1
			c-0.7-1.4-1.8-2.2-3.2-2.7c-2.3-0.7-4.5-0.3-6.8,0.4c-1.8,0.6-3.4,1.6-4.9,2.9c-1.2,1-2,2.3-2.6,3.8c-0.5,1.1-0.5,2.3-0.4,3.5
			c0.2,2.1,1.1,3.8,2.9,5.1C140.8,134.6,142.5,135,144.4,134.9z M253.6,133.9c0.9,0,1.5,0,2.2-0.1c2.7-0.4,5.1-1.7,7.4-3.3
			c0.8-0.6,1.5-1.3,2-2.2c0.3-0.5,0.3-1,0-1.4c-0.3-0.4-0.8-0.5-1.3-0.3c-0.4,0.2-0.9,0.3-1.3,0.6c-1.6,0.9-3.3,1.6-5.1,1.9
			c-0.6,0.1-1.1,0-1.6-0.2c-0.6-0.2-0.9-0.6-1.1-1.2c-0.2-0.5-0.1-0.6,0.4-0.7c1.3-0.1,2.6-0.3,3.8-0.7c2-0.6,3.8-1.5,5.1-3
			c1.2-1.3,1.4-4.2-0.3-5.6c-1.2-0.9-2.7-1.4-4.2-1.5c-1.6-0.1-3.3,0.3-4.8,0.8c-3.2,1-5.7,2.8-7.4,5.7c-1.1,1.9-1.6,3.9-1,6
			c0.4,1.7,1.5,3,3,3.9C250.7,133.6,252.3,133.9,253.6,133.9z M244.9,151.4c0-0.4,0.1-0.7,0.1-0.9c0.2-0.9-0.2-1.8-0.9-2.1
			c-0.3-0.2-0.8-0.3-1.2-0.3c-2.4-0.1-4.5,0.9-6.5,2.2c-0.3,0.2-0.2,0.4,0.1,0.5c0.5,0.3,0.6,0.8,0.5,1.4c-0.1,0.5-0.2,1.1-0.3,1.6
			c-0.6,2.1-1.2,4.2-1.7,6.3c-0.2,0.6-0.3,1.2-0.4,1.7c-0.3,1.1-0.6,2.2-0.9,3.3c0,0.1,0,0.2,0.2,0.2c1.1-0.8,2.4-0.9,3.7-0.9
			c0.4,0,0.8,0,1.2,0c0.7-0.1,1.3-0.3,1.8-0.6c1-0.7,1.5-1.7,1.8-2.7c0.3-1,0.6-2,0.9-3c0.3-0.9,0.9-1.9,1.5-2.7
			c0.7-0.8,1.5-1.5,2.5-2c-0.2,0.9,0.1,1.5,0.8,2.1c0.4,0.3,0.9,0.5,1.5,0.6c1.9,0.1,3.3-0.7,4.4-2.1c0.7-0.9,1.2-2,1-3.2
			c0-0.5-0.2-0.9-0.5-1.4c-0.9-1.2-2.1-1.4-3.5-1.2c-1.6,0.2-3.1,0.9-4.4,2C246,150.4,245.5,150.8,244.9,151.4z M169.3,134.7
			c1.6,0.1,3.3-0.2,4.8-0.9c2-0.8,3.5-2,4.2-4.2c0.5-1.6,0.1-3-1-4.2c-0.9-0.9-2-1.4-3-2c-0.8-0.3-1.5-0.7-2.1-1.4
			c-0.2-0.3-0.3-0.5-0.2-0.8c0.2-0.3,0.4-0.4,0.8-0.5c0.3,0,0.7,0.1,0.9,0.3c0.3,0.3,0.7,0.4,0.9,0.7c0.3,0.4,0.9,0.7,1.3,0.9
			c0.8,0.5,1.6,0.7,2.5,0.2c1.2-0.7,1.7-2,0.8-3.3c-0.5-0.7-1.2-1.1-1.9-1.4c-1.6-0.7-3.3-0.9-5.1-0.8c-2.1,0.1-4,0.7-5.6,2.1
			c-1.5,1.3-2,2.7-1.4,4.9c0.1,0.3,0.3,0.6,0.5,0.9c0.9,1,2.1,1.7,3.2,2.4c0.8,0.5,1.6,0.9,2.4,1.5c0.5,0.3,0.6,0.7,0.4,1.2
			c-0.2,0.4-0.5,0.7-1.1,0.6c-0.3,0-0.5-0.1-0.8-0.2c-0.5-0.3-0.9-0.6-1.4-1c-0.4-0.5-0.9-0.9-1.5-1.3c-0.5-0.5-1.2-0.8-2-0.9
			c-1.2-0.1-2.2,0.3-2.9,1.4c-0.6,1-0.5,2.1,0.2,3.2c0.5,0.8,1.3,1.3,2.1,1.6C166.1,134.5,167.7,134.7,169.3,134.7z M83.7,90.3
			c-0.2-0.3-0.2-0.3-0.2-0.5c0-1.4,0.3-2.7,0.6-4c0.2-0.8,0.3-1.5,0.5-2.2c0.2-0.9,0-1-0.9-1.1c-0.9-0.1-1.6,0.3-2.1,1.2
			c-0.3,0.7-0.5,1.5-0.8,2.2c-0.3,1.2-0.3,2.4-0.4,3.6c-0.1,1.6-0.2,3.3,0.3,5c0.3,1.2,1.5,2,2.7,1.7c0.3-0.1,0.6-0.3,0.6-0.7
			s0-0.9,0.1-1.3c0.4-1.7,1-3.3,1.8-4.9c0.3-0.7,0.7-1.3,1-1.9c0.1-0.2,0.3-0.3,0.5-0.3c0.3,0.1,0.2,0.3,0.1,0.5
			c-0.2,0.8-0.3,1.5-0.5,2.3c-0.2,1.2-0.3,2.4-0.1,3.6c0.3,1,0.7,2,1.7,2.5c1.3,0.8,2.7,0.9,4,0.3c0.9-0.3,1.6-0.9,1.6-2.1
			c0-0.3-0.1-0.6-0.3-0.9c-0.3-0.2-0.4-0.2-0.6,0.1c-0.2,0.3-0.3,0.6-0.5,0.8c-0.4,0.5-1,0.8-1.6,0.6c-0.7-0.2-1.2-0.6-1.4-1.3
			c0-0.3-0.1-0.8-0.1-1.1c0-1.3,0.2-2.6,0.5-3.8c0.5-1.6,1-3.3,1.3-5c0.2-0.9-0.1-1.4-0.9-1.7c-0.5-0.2-1.1-0.3-1.7-0.3
			c-0.3,0-0.7,0.1-0.9,0.4c-0.3,0.5-0.7,1-1,1.5c-0.9,1.5-1.8,3.2-2.6,4.8C84.3,89.1,84.1,89.7,83.7,90.3z M239.4,122.3
			c0,0.7,0,1.2,0.5,1.7c0.9,0.9,2.1,1,3.3,0.8c2.1-0.6,3.4-2.1,4-4.2c0.4-1.5-0.5-3.4-2.2-3.8c-1.4-0.3-2.6,0-3.9,0.5
			s-2.2,1.4-3.3,2.2c-0.3,0.2-0.4,0.5-0.9,0.5c0.2-0.5,0.2-1,0.2-1.5c0-0.7-0.3-1.2-0.9-1.5c-0.4-0.2-0.8-0.3-1.2-0.3
			c-0.9-0.1-1.9,0.1-2.7,0.4c-1.5,0.4-2.8,1.1-4,2.1c0.9,0.9,0.9,1.4,0.7,2.6c0,0.1-0.1,0.2-0.1,0.3c-0.5,2.1-1.1,4.2-1.7,6.3
			c-0.4,1.6-0.8,3.3-1.4,4.9c-0.1,0.4-0.4,0.9-0.1,1.4c0.8-0.5,1.7-0.9,2.7-0.9c0.7-0.1,1.4,0,2-0.1c1.9,0,3.2-0.9,3.8-2.7
			c0.3-0.9,0.5-1.8,0.8-2.7c0.4-1.5,1.2-3.1,2.3-4.3C237.9,123.3,238.5,122.7,239.4,122.3z M35.8,98c0.3-0.6,0.6-1.1,0.7-1.8
			c0-0.2,0-0.3-0.1-0.3c-0.2-0.1-0.3,0-0.4,0.1s-0.2,0.2-0.2,0.3c0,0.4-0.1,0.9-0.2,1.3C35.5,97.8,35.4,97.9,35.8,98z M37.5,84.3
			C37,85,37,85,37.3,85.4C37.4,85.2,37.5,84.8,37.5,84.3z M192.9,105.5c-0.1,0.4,0,0.6,0.1,0.8C193.3,106,193.1,105.8,192.9,105.5z
			 M28.6,81.2c0,0.1,0.1,0.2,0.2,0.2s0.2-0.1,0.2-0.2c0-0.2-0.1-0.3-0.3-0.3C28.7,81.1,28.6,81.2,28.6,81.2z M187.4,106.3
			c0.1,0.3,0.3,0.3,0.5,0.3C187.7,106.5,187.7,106.2,187.4,106.3z"/>
		<path class="st1" d="M196.4,112.8c0.1,0,0.2-0.1,0.2-0.2c0-0.1,0-0.2-0.1-0.2s-0.2,0.1-0.2,0.1
			C196.3,112.7,196.3,112.8,196.4,112.8z"/>
		<path class="st1" d="M184.4,107.3c0-0.1,0-0.2-0.1-0.3c-0.1,0-0.2,0-0.2,0.1s0.1,0.2,0.1,0.2C184.3,107.4,184.4,107.4,184.4,107.3
			z"/>
		<path class="st1" d="M197.4,115.5c-0.1,0-0.2,0.1-0.1,0.2c0,0.1,0.1,0.1,0.1,0.1c0.1,0.1,0.2,0,0.2-0.1S197.5,115.5,197.4,115.5z"
			/>
		<path class="st1" d="M186.9,104.8L186.9,104.8h-0.2C186.7,104.8,186.8,104.9,186.9,104.8C186.9,104.9,186.9,104.9,186.9,104.8z"/>
		<path class="st1" d="M197,105.6C197,105.6,196.9,105.6,197,105.6c-0.2-0.1-0.2-0.1-0.2,0c-0.1,0.1,0,0.2,0.1,0.2
			C197,105.7,197,105.6,197,105.6z"/>
		<path class="st1" d="M194.3,111.1c-0.1,0-0.1,0.1-0.1,0.2c0,0.1,0.1,0.1,0.2,0.1c0.1,0,0.1-0.1,0.1-0.1
			C194.5,111.1,194.4,111.1,194.3,111.1z"/>
		<path class="st2" d="M24.8,91c0.2,0.6,0.1,0.6-0.6,0.6C24.4,91.3,24.6,91.2,24.8,91z"/>
		<path class="st2" d="M65.3,140.8c1.8,0.8,3.6,1.3,5.5,1.5c1,0.2,2,0.3,3,0c0.9-0.2,1.6-0.6,2.2-1.3c0.7-0.8,0.9-1.8,0.5-2.7
			c-0.1-0.3-0.3-0.6-0.7-0.8c-0.4-0.2-0.9-0.3-1.4-0.5c-1.3-0.3-1.5-1.6-0.6-2.4c0.7-0.7,1.5-1.1,2.4-1.5c2.7-1,5.6-1.5,8.6-0.9
			c2,0.4,3.6,1.4,5,2.8c2.1,2.4,2.8,5.2,1.8,8.4c-0.9,2.7-2.6,4.6-5,6c-2.2,1.3-4.6,1.9-7.2,2.1c-3.7,0.3-7.1-0.4-10.4-1.9
			c-2.6-1.1-5.1-2.2-7.7-3.4c-0.3-0.2-0.6-0.1-0.9,0.2c-1.7,1.4-3.6,2.5-5.6,3.3c-1.1,0.5-2.4,0.9-3.6,1.2c-0.8,0.3-1.6,0.3-2.5,0.3
			c-2.7,0.3-5.3,0.2-7.8-0.8c-1.7-0.6-3.2-1.5-4.4-2.9c-1.5-1.8-2.1-3.9-1.6-6.2c0.5-2.6,2.1-4.1,4.5-5.2c2.1-0.9,4.2-1.1,6.3-0.9
			c3.3,0.2,6.3,1,9.3,2.1c0.9,0.3,1.8,0.6,2.7,0.9c0.3,0.1,0.4,0.1,0.7-0.2c0.8-1.3,1.4-2.7,1.7-4c0.2-0.5,0.1-0.6-0.4-0.6
			c-3.3-0.4-6.5-1.4-9.4-3.1c-2.1-1.2-3.9-2.8-5.3-5c-0.7-1.1-1.3-2.2-1.7-3.5c-0.4-1.4-0.6-2.8-0.6-4.4c0.1-1.9,0.7-3.5,1.5-5.1
			c0.4-0.9,1-1.7,1.7-2.4c2-2,4.2-3.3,7-3.5c3.4-0.3,6.3,0.9,8.8,3.2c1.7,1.6,2.8,3.5,3.1,5.9c0.1,0.8,0,1.5-0.6,2
			c-0.6,0.5-1.3,0.6-2,0.1c-0.4-0.3-0.8-0.6-1.2-0.9c-1.8-1.4-4.3-0.9-5.4,1c-0.2,0.3-0.3,0.7-0.3,1c-0.3,2.4,0.5,4.3,2.4,5.7
			c1.4,1,2.9,1.6,4.5,2.1c0.3,0.2,0.5,0,0.6-0.3c0.3-1,0.7-2.1,1.1-3.1c0.8-2.1,1.5-4.1,2.5-6.2c0.6-1.1,1-2.3,1.7-3.4
			c1.6-2.8,3.7-5.3,6.3-7.2c2.5-1.8,5.3-2.8,8.5-2.7c2.3,0.2,4.3,1,5.8,2.7c0.8,0.9,1.4,1.9,1.7,3.1c0.4,1.4,0.5,2.7,0.3,4
			c-0.3,1.6-0.6,3.2-1.2,4.7c-0.9,2.2-2.3,4.1-3.9,5.9c-1.9,2.1-4.1,3.9-6.6,5.3c-3.1,1.8-6.3,3.2-9.8,3.9c-0.3,0.1-0.6,0.2-0.7,0.6
			c-0.1,0.3-0.3,0.5-0.3,0.7C67.5,136.8,66.6,138.9,65.3,140.8z M78.8,136.9L78.8,136.9c0.1,0.3-0.1,0.3-0.2,0.5
			c-0.4,0.9-0.3,1.3,0.6,1.8c0.8,0.4,1.6,0.3,2.4-0.1c0.4-0.2,0.8-0.4,1.2-0.8c-0.1,0.3-0.2,0.7-0.2,1c0,0.7,0.3,1,0.9,1.3
			c0.9,0.3,1.6,0.1,2.2-0.6c0.3-0.3,0.6-0.8,0.9-1.1s0.6-0.8,1-0.9c0.6-0.3,0.9-0.2,1.2,0.3c0.1,0.2,0.2,0.3,0.2,0.4
			c0.7,1.9,0.6,3.7-0.2,5.5c-0.5,1-1.3,1.9-2.1,2.7c-1.4,1.3-2.9,2.3-4.7,2.8c-2.7,0.8-5.4,0.7-8.1,0.3c-1-0.2-2-0.5-3-0.7
			c0.7,0.3,1.4,0.6,2.1,0.9c1.8,0.5,3.7,0.8,5.6,0.8c1.5,0,2.9-0.3,4.4-0.7c2.2-0.7,4.1-1.9,5.7-3.7c0.6-0.7,1.2-1.4,1.5-2.2
			c0.4-1.3,0.9-2.7,0.6-4c-0.3-1.5-0.6-3-1.6-4.3c-1.5-1.7-3.3-2.7-5.5-3c-2.3-0.3-4.6,0-6.8,0.9c-0.7,0.3-1.4,0.6-1.8,1.3
			c-0.3,0.4-0.3,0.9,0.2,1.2c0.2,0.2,0.5,0.3,0.8,0.4C76.9,137.3,77.9,137.1,78.8,136.9z M89.9,112.7c0-0.4,0-1-0.1-1.5
			c-0.1-0.4-0.3-0.9-0.3-1.3c-0.8-2.5-2.6-3.9-5-4.5c-2.2-0.6-4.5-0.3-6.7,0.6c-1.9,0.8-3.4,1.9-4.9,3.3c-2.2,2.1-3.9,4.5-5.1,7.3
			c-0.1,0.2-0.2,0.4-0.3,0.6c-1,2-1.9,4.1-2.6,6.2c-0.5,1.5-1.1,2.9-1.6,4.5c-0.2,0.5-0.3,0.6-0.8,0.4c-1.7-0.6-3.4-1.1-5-2.1
			c-0.9-0.6-1.7-1.4-2.3-2.3c-0.9-1.5-1.1-3-0.9-4.6c0.2-1,0.6-2.1,1.5-2.7c1.7-1.1,4.5-1,5.9,0.3c0.3,0.3,0.6,0.5,0.9,0.7
			c0.3,0.2,0.6,0.2,0.9,0c0.3-0.2,0.4-0.6,0.3-0.9c-0.1-1-0.3-2.1-0.8-3c-0.9-1.8-2.2-3.2-3.9-4.2c-2.2-1.4-4.6-2-7.2-1.4
			c-2.5,0.5-4.5,1.9-6.2,3.9c-1,1.3-1.7,2.8-2.1,4.5c-0.7,2.8-0.2,5.5,1.1,8c1.1,2.1,2.7,3.9,4.6,5.2c2.6,1.8,5.5,2.8,8.6,3.4
			c0.9,0.2,1.9,0.3,2.7,0.4c0.2,0,0.4,0,0.4,0.3c0.1,0.5,0.3,0.4,0.7,0.3c1-0.1,2.1-0.2,3-0.3c1.2-0.1,2.3-0.2,3.4-0.4
			c3-0.7,5.8-1.7,8.5-3.1c2.1-1,4.1-2.4,5.9-4c1.8-1.5,3.3-3.3,4.5-5.5c0.3-0.5,0.5-1,0.8-1.5C89.3,117,89.9,114.9,89.9,112.7z
			 M87,139.6c-0.3,0.3-0.6,0.7-0.9,0.9c-0.5,0.6-1.1,0.8-1.9,0.8c-0.3,0-0.6-0.1-0.9-0.2c-0.3-0.1-0.4-0.1-0.5,0.2
			c-0.3,0.7-0.8,1.3-1.1,1.9c-0.4,0.7-0.9,1.1-1.5,1.5c-1.2,0.9-2.7,1.2-4.1,1.3c-2.4,0.1-4.8-0.5-7-1.4c-0.7-0.3-1.5-0.6-2.1-0.9
			c0.2,0.3,0.4,0.4,0.7,0.5c2.5,1.5,5.1,2.6,8,2.9c1.5,0.2,3,0.2,4.5-0.3c2.3-0.8,4.2-2.1,5.6-4.1C86.1,142,86.7,140.9,87,139.6z
			 M54.1,143.4c-2.4-0.8-4.5-1.5-6.8-1.7c-0.7-0.1-1.4,0.2-1.9,0.7c-0.7,0.7-0.7,1.5,0,2.2c0.3,0.3,0.8,0.6,1.2,0.8
			c1,0.3,2.1,0.3,3.3,0.1C51.4,145.3,52.6,144.4,54.1,143.4z M82,139.5c-0.6,0.2-0.9,0.3-1.4,0.3c-0.4,0-0.9-0.2-1.2,0.1
			c-0.3,0.3-0.4,0.8-0.6,1.1c-0.9,1.9-2.3,2.7-4.3,2.6c-0.8,0-1.5-0.1-2.2-0.3c-0.9-0.2-1.7-0.3-2.6-0.6c2.1,0.9,4.1,1.6,6.3,1.6
			c1.6,0,3-0.5,4.1-1.7C81.1,141.9,81.7,140.8,82,139.5z M77.1,137.6c0.7,1,0.9,2.6,0.2,3.7c-0.9,1.5-2.3,1.8-4.1,1.7
			c1.2,0.3,2.2,0.3,3.3-0.2c1.3-0.7,1.9-1.8,2.3-3.1c0.1-0.2,0.1-0.3-0.1-0.3c-0.8-0.4-0.9-1.1-0.7-2.1
			C77.7,137.6,77.5,137.5,77.1,137.6z"/>
		<path class="st2" d="M115.6,171.5c2.2,0.9,4.4,1.5,6.6,1.6c1.8,0.1,3.3-0.3,4.4-2c0.6-0.9,0.6-2.7-1-3.1c-0.3-0.1-0.4-0.1-0.7-0.2
			c-1.1-0.3-1.4-1.4-0.7-2.2c0.3-0.4,0.9-0.8,1.3-1c1.3-0.7,2.7-1.1,4.1-1.4c1.7-0.3,3.4-0.4,5.1-0.1c3.3,0.7,5.7,2.6,6.8,5.9
			c0.4,1.4,0.3,2.8,0,4.2c-0.5,2-1.5,3.7-3,5.1c-1.5,1.4-3.3,2.4-5.3,3c-1.9,0.6-3.8,0.9-5.7,0.8c-2.7,0-5.2-0.6-7.6-1.6
			c-2.7-1.1-5.3-2.2-7.9-3.4c-0.7-0.3-1.2-0.2-1.7,0.3c-3,2.5-6.6,3.9-10.4,4.5c-3.2,0.5-6.2,0.3-9.2-0.9c-1.8-0.8-3.3-1.8-4.3-3.5
			c-1.4-2.3-1.5-5.1,0.3-7.4c1.5-2.1,3.7-3.1,6.1-3.5c2.7-0.5,5.3-0.2,8,0.4c2.7,0.5,5.1,1.4,7.7,2.2c0.6,0.2,0.6,0.2,0.9-0.3
			c0.7-1.1,1.3-2.3,1.7-3.6c0.2-0.6,0.2-0.6-0.4-0.8c-2.1-0.3-4-0.8-6-1.5c-2.9-1.1-5.6-2.7-7.6-5.1c-2-2.4-3.1-5.2-3-8.4
			c0.1-2.1,0.6-4,1.8-5.7c2.4-3.5,5.6-5.5,9.9-5.5c2.6,0,4.9,1,6.8,2.6c1.1,0.9,2.1,2,2.7,3.3c0.6,1.1,0.9,2.3,0.9,3.5
			c0,0.3-0.1,0.5-0.1,0.7c-0.3,1.2-1.5,1.6-2.6,0.9c-0.3-0.3-0.6-0.5-0.9-0.8c-1.5-1.2-3.5-1.2-5,0c-0.7,0.6-1,1.5-1.1,2.4
			c-0.1,2,0.6,3.7,2.2,4.9c1.4,1,2.8,1.6,4.5,2.1c0.3,0.1,0.5,0,0.7-0.3c0.2-0.5,0.4-1,0.6-1.5c0.9-2.3,1.9-4.6,2.9-6.9
			c0.8-1.6,1.5-3.3,2.6-4.7c2-3,4.4-5.5,7.5-7.1c2.1-1,4.3-1.6,6.6-1.5c2.7,0.2,4.9,1.2,6.4,3.4c0.6,0.9,0.9,1.9,1,3
			c0,0.3,0.2,0.7,0.2,1.1c0,2.2-0.5,4.3-1.4,6.2c-1.5,3.2-3.7,5.8-6.3,8c-4.1,3.4-8.8,5.6-14,6.8c-0.5,0.1-0.7,0.4-0.8,0.8
			c-0.3,1-0.9,2-1.3,2.9C117.2,169.2,116.6,170.4,115.6,171.5z M136.8,170.8c-0.3,0-0.5,0.3-0.8,0.5c-0.8,0.7-1.6,0.9-2.5,0.5
			c-0.4-0.2-0.6,0-0.8,0.3c-0.3,0.8-0.9,1.5-1.4,2.1c-0.6,0.7-1.4,1.4-2.2,1.6c-1.3,0.5-2.6,0.8-4,0.7c-1.9-0.2-3.8-0.5-5.6-1.2
			c-0.5-0.2-1-0.5-1.5-0.5c-0.2-0.2-0.3-0.3-0.5-0.3c0.2,0.3,0.3,0.3,0.5,0.3c0,0.3,0.3,0.3,0.4,0.4c1.9,1,3.9,1.9,5.9,2.3
			c2.7,0.6,5.2,0.4,7.6-0.9c2.1-1.2,3.7-3,4.6-5.3C136.7,171.1,136.7,171,136.8,170.8C136.8,170.7,136.9,170.7,136.8,170.8
			c0.1-0.2,0.2-0.3,0-0.3c0,0.1-0.1,0.2-0.1,0.2C136.7,170.6,136.7,170.7,136.8,170.8z M140.7,143.8c0-0.2,0-0.4,0-0.7
			c-0.1-2.1-1-3.9-2.8-5.1c-2-1.4-4.2-1.5-6.4-1.2c-3,0.5-5.6,2.1-7.7,4.1c-1.6,1.6-3,3.4-4.1,5.5c-1.5,2.8-2.8,5.6-4,8.6
			c-0.4,1.1-0.9,2.2-1.4,3.4c-0.2,0.5-0.3,0.6-0.8,0.4c-1-0.3-2.1-0.7-3.1-1.1c-0.9-0.3-1.6-0.8-2.4-1.3c-1.7-1.4-2.7-3.1-2.6-5.3
			c0-0.9,0.2-1.9,0.9-2.7c1.5-1.9,4.3-2.2,6.3-0.8c0.3,0.3,0.7,0.5,1.1,0.8c0.7,0.5,1.3,0.2,1.4-0.7c0.2-1.5-0.4-2.8-1.2-4
			c-0.9-1.5-2.1-2.6-3.7-3.4c-2.4-1.4-5-1.7-7.5-1c-2.2,0.6-4.1,1.9-5.6,3.7c-1.5,1.8-2.2,3.8-2.5,6c-0.3,1.8,0.3,3.6,0.9,5.2
			c0.8,1.9,2,3.4,3.4,4.7c2.2,2,4.9,3.3,7.8,3.9c1.5,0.4,3.1,0.8,4.7,0.9c0.2,0,0.5,0,0.4,0.3c-0.1,0.3,0.1,0.3,0.3,0.3
			c1.3-0.1,2.7-0.1,3.9-0.3c0.9-0.1,2,0.1,2.8-0.4c2.9-0.6,5.7-1.6,8.4-2.9c2.6-1.3,4.9-2.8,6.9-4.8c1.9-1.8,3.5-3.8,4.7-6.1
			C140.1,148,140.7,146,140.7,143.8z M132.7,169.3c0.2,0.2,0.1,0.4,0.1,0.6c0,0.9,0.5,1.4,1.5,1.5c0.7,0.1,1.3-0.2,1.8-0.7
			c0.3-0.3,0.5-0.5,0.7-0.9c0.3-0.4,0.6-0.8,1-1c0.6-0.3,1-0.3,1.3,0.3c0.2,0.4,0.4,0.9,0.5,1.5c0.2,2-0.2,3.9-1.5,5.5
			c-1.2,1.5-2.6,2.7-4.2,3.5c-1.9,1-4,1.3-6.2,1.3c-1.8,0.1-3.5-0.3-5.2-0.7c-0.4-0.1-0.9-0.3-1.5-0.3c2.3,1.2,4.8,1.5,7.3,1.6
			c2.3,0.1,4.5-0.4,6.7-1.5c2.4-1.2,4.3-3,5.2-5.5c1.1-2.7,0.9-5.4-0.9-7.8c-1-1.3-2.4-2.1-3.9-2.6c-2.3-0.6-4.6-0.3-6.9,0.3
			c-1,0.3-2,0.8-2.7,1.5c-0.4,0.5-0.4,0.9,0.1,1.3c0.2,0.2,0.4,0.3,0.7,0.3c0.7,0.2,1.5,0.3,2.1,0c0.2-0.1,0.4-0.2,0.7-0.1
			c-0.2,0.3-0.3,0.5-0.5,0.8c-0.2,0.3-0.2,0.6,0.1,0.9c0.8,0.8,1.6,0.9,2.7,0.6C131.9,169.8,132.2,169.6,132.7,169.3z M104.6,174
			c-2.1-0.8-4.3-1.4-6.5-1.6c-0.7-0.1-1.4,0.1-2,0.5c-1,0.7-1,1.9-0.1,2.7c0.9,0.7,1.9,0.9,2.9,0.8
			C101.1,176.3,102.8,175.2,104.6,174z M119.8,173.4c0.3,0.1,0.7,0.3,1,0.4c1.8,0.8,3.6,1.2,5.6,1.2c1.4,0,2.5-0.4,3.6-1.2
			c1.1-0.9,1.7-2.1,2.2-3.3c0.1-0.1,0.1-0.2,0-0.3c-0.1-0.1-0.2-0.1-0.3,0c-0.3,0.2-0.6,0.3-0.9,0.3c-0.4,0-1-0.2-1.4,0.1
			c-0.3,0.3-0.4,0.8-0.6,1.2c-0.6,1.3-1.6,2.1-2.9,2.4c-0.9,0.2-1.8,0.2-2.7,0C122.1,173.9,120.9,173.6,119.8,173.4z M123.9,173.8
			c0.4,0,0.9,0,1.4,0c0.7,0,1.3-0.3,1.9-0.7c0.9-0.7,1.4-1.5,1.8-2.5c0.2-0.3,0.1-0.5-0.3-0.7c-0.5-0.3-0.6-0.7-0.6-1.2
			c0-0.2,0.2-0.3,0-0.4c-0.3,0-0.5,0-0.8,0C128.9,170.2,127.9,173.4,123.9,173.8z"/>
		<path class="st2" d="M264.4,162.5c-0.6,0.3-1.2,0.6-1.7,0.9c-1,0.5-2.1,0.9-3.3,1c-0.9,0.1-1.9,0-2.7-0.3
			c-1.7-0.7-2.6-2.5-2.1-4.3c0.6-2.2,1.2-4.5,1.9-6.7c0.1-0.2,0.1-0.4,0.2-0.6c0.2-0.8,0.2-1.5-0.5-2c-0.3-0.3-0.3-0.4,0-0.6
			c1.7-1.1,3.5-2.1,5.6-2.2c0.9-0.1,1.6,0,2.3,0.5c0.5,0.3,0.8,0.9,0.8,1.5c0,0.8-0.2,1.5-0.4,2.2c-0.3,1-0.6,2.1-0.9,3.3
			c-0.2,0.6-0.3,1.1-0.5,1.7c-0.3,0.9,0.3,1.5,1.2,1.5c0.8,0,1.4-0.3,1.8-1c0.3-0.5,0.6-0.9,0.7-1.5c0.3-1.1,0.7-2.1,0.9-3.3
			c0.3-0.9,0.5-1.9-0.8-2.5c1.5-1.2,3.1-2.1,4.9-2.4c0.7-0.1,1.3-0.2,2-0.1c1.5,0.3,2.1,1.4,1.8,2.5c-0.2,0.9-0.4,1.9-0.7,2.8
			c-0.6,2.1-1.2,4.1-1.8,6.2c-0.4,1.5-0.8,2.9-1.3,4.4c-0.8,2.1-1.9,4-3.6,5.5c-1.4,1.2-2.7,2.2-4.5,2.8c-2.5,0.9-5.1,1.3-7.7,0.6
			c-0.9-0.3-1.8-0.6-2.5-1.3c-0.9-0.9-1.4-2.4-1-3.8c0.4-1.5,1.6-2.2,2.9-2.9c0.2-0.1,0.3-0.1,0.4,0.1c0,0.1,0.1,0.2,0.1,0.3
			c0.3,1,1,1.6,2.1,1.8c1.7,0.3,3.3,0,4.6-1.2C263.4,164.7,264,163.7,264.4,162.5C264.5,162.6,264.4,162.6,264.4,162.5z
			 M274.8,149.9c0.1-0.4-0.1-0.7-0.4-0.9c-0.4-0.4-0.9-0.5-1.5-0.5c-1.7,0-3.3,0.7-4.6,1.5c-0.3,0.2-0.2,0.3-0.1,0.5
			c0.2,0.3,0.3,0.8,0.3,1.2c0,0.5-0.3,0.9-0.3,1.5c-0.1,0.5,0,0.6,0.5,0.7c1.4,0.2,2.7,0.3,4.1,0.6c0.8,0.2,0.9,0,1.1-0.8
			c0.2-0.9,0.4-1.8,0.7-2.7C274.6,150.7,274.8,150.3,274.8,149.9z M256.8,150.3c0.6,0.7,0.4,1.4,0.4,2.1c0,0.5,0,0.5,0.5,0.5
			c0.9,0,1.9,0.1,2.9,0.1c0.7,0,1.3,0.2,2,0.2c0.2,0,0.4,0.1,0.5-0.2c0.3-1.2,0.8-2.3,0.7-3.5c0-0.5-0.3-0.8-0.8-0.9
			c-0.3-0.1-0.7-0.2-1.1-0.2C260.1,148.5,258.4,149.3,256.8,150.3z"/>
		<path class="st2" d="M68.2,88.4c-0.9,0.3-1.7,0.4-2.6,0.3c-0.9-0.1-1.5-0.5-1.8-1.3c0-0.1-0.1-0.2-0.2-0.3
			c-0.5,0.5-0.7,1.2-0.9,1.8c-0.8,1.9-1.2,3.9-1.3,5.9c0,0.4-0.2,0.6-0.5,0.7c-0.9,0.2-1.6-0.1-2.4-0.3c-0.3-0.1-0.4-0.4-0.3-0.9
			c-0.4,0.2-0.6,0.5-0.9,0.7c-0.9,0.8-1.9,1.1-3.1,1c-1.3-0.1-2-1.1-2.1-2.3c0-0.3,0-0.5-0.2-0.8c-0.3,0.7-0.6,1.3-0.9,2
			s-0.6,1.3-1,1.9c-0.7,0.9-1.5,1.2-2.6,1c-0.8-0.1-1.5-0.5-2.1-0.9c-0.5-0.4-0.9-0.9-0.9-1.7c-0.1-1.5,0.1-3.1,0.3-4.6
			c0.3-1.5,0.8-2.9,1.1-4.5c0.2-0.7,0.5-1.2,0.9-1.8c0.4-0.6,1.8-0.7,2.3-0.1c0.2,0.2,0.1,0.3,0.1,0.5c-0.3,1-0.5,2.1-0.9,3.3
			c-0.3,0.9-0.4,2-0.5,3c-0.2,1.3-0.3,2.5-0.2,3.8c0,0.2,0,0.3,0,0.5c0,0.1,0,0.2,0.2,0.3c0.2,0.1,0.3,0,0.3-0.1
			c0.2-0.3,0.4-0.5,0.5-0.8c1-2,2-3.9,2.7-6.1c0.5-1.5,0.9-3.2,1.3-4.8c0.2-0.9,0.3-0.9,1.1-0.9c0.5,0,1,0.1,1.5,0.3s0.6,0.5,0.5,1
			c-0.4,2.1-0.8,4.2-1.2,6.2c-0.2,0.7-0.2,1.5-0.1,2.1c0,0.5,0.3,0.9,0.7,1.3c0.5,0.5,1.5,0.4,2-0.3c0.7-0.8,1.1-1.6,1.3-2.7
			c0.2-1.7,0.1-3.3,0.1-5.1c0-0.7,0-1.4,0.2-2.1c0.2-1.1,0.8-1.5,1.9-1.3c1.5,0.3,1.5,0.2,1.3,1.8c-0.1,1-0.3,2-0.3,3
			c0,0.1,0,0.3,0.1,0.3c0.2,0.1,0.3,0,0.3-0.2c0.3-0.5,0.4-0.9,0.7-1.5c0.4-1.1,0.8-2.2,1.2-3.3c0.1-0.3,0.3-0.6,0.7-0.7
			c0.7-0.3,1.5-0.3,2.1-0.1c0.7,0.2,0.9,0.5,0.7,1.2c-0.2,0.6-0.5,1.2-0.8,1.7c-0.3,0.5-0.5,1-0.5,1.6s0.2,0.9,0.9,0.9
			c0.9,0.2,1.9-0.4,2.1-1.3c0.3-0.9,0.8-1.7,1.3-2.5c0.5-0.8,1.2-1.5,2.1-1.9c0.4-0.3,0.9-0.3,1.3,0.1c0.3,0.2,0.5,0.2,0.8,0.2
			c1.3-0.3,2.5-0.2,3.7,0.4c1.1,0.6,1.6,1.6,1.8,2.9c0.2,1.6,0.1,3.3-0.3,4.9c-0.4,1.4-1,2.7-2.1,3.8c-1.5,1.5-4.5,1.5-6.2,0.4
			c-2.1-1.3-2.7-3.3-2.8-5.6C68.2,88.9,68.4,88.7,68.2,88.4z M71,88.8c-0.2,0.7-0.3,1.8-0.2,2.3c0.2,0.7,0.3,1.4,0.8,1.9
			c0.9,0.7,2.1,0.8,3,0.2c0.8-0.5,1.2-1.2,1.5-2c0.9-1.9,1.3-3.9,1.4-6c0-0.3-0.1-0.8-0.2-1.1c-0.2-0.6-0.5-0.9-1.1-0.9
			c-0.7,0-1.3,0.3-1.8,0.8c-1.1,1.2-1.8,2.7-2.2,4.2c-0.2,0.7-0.2,0.7-0.9,0.6C71.2,88.9,71.1,88.9,71,88.8z"/>
		<path class="st2" d="M225.2,140.1c2.1-1.5,4.2-2.7,6.8-2.4c1.6,0.2,2.6,1.3,2.1,2.8c-0.5,2.2-1.1,4.5-1.8,6.7
			c-0.2,0.6-0.3,1.2-0.5,1.9c-0.8,2.9-1.5,5.7-2.3,8.6c-0.1,0.3-0.2,0.6-0.2,0.9c-0.1,0.9,0.5,1.5,1.4,1.5c0.5-0.1,0.9-0.2,1.4-0.3
			c0.3-0.1,0.7-0.2,0.9,0.2c0.3,0.3,0.3,0.7,0.1,1c-0.3,0.9-1,1.4-1.7,1.8c-1.6,1-3.3,1.7-5.3,2c-0.8,0.1-1.5,0.1-2.2-0.2
			c-1.6-0.4-2.6-1.8-2.5-3.3c0-0.1,0-0.3,0-0.5c-0.8,0.9-1.5,1.5-2.2,2.2c-0.9,0.9-2.1,1.5-3.3,1.7c-1.8,0.3-3.5,0.1-4.7-1.4
			c-0.8-0.9-1.1-2-1.1-3.1c-0.2-2.8,0.7-5.3,2.4-7.5c1.5-1.9,3.3-3.3,5.5-4.1c1.5-0.5,3.1-0.6,4.7-0.3c0.6,0.1,1,0.4,1.6,0.8
			c0.3-1.2,0.7-2.4,1-3.6c0.3-0.9,0.4-1.7,0.7-2.6c0.1-0.4,0.2-0.8,0.2-1.2c0-0.3-0.1-0.8-0.4-1
			C225.6,140.5,225.4,140.3,225.2,140.1z M223.3,155.8c0.2,0.1,0.2,0.1,0.3,0.1c1.8-0.1,3.7-0.4,5.5-0.5c0.3,0,0.3-0.2,0.4-0.4
			c0.3-1.3,0.7-2.5,0.9-3.7c0.6-2.2,1.2-4.4,1.8-6.6c0.3-1.4,0.7-2.7,1-4c0.3-1.4-0.3-2.1-1.6-2.1c-1.9-0.2-3.4,0.6-5,1.5
			c-0.3,0.2-0.3,0.3-0.1,0.5c0.3,0.6,0.3,1.3,0.3,2c-0.3,1.5-0.8,2.8-1.1,4.3c-0.3,1-0.4,2.1-0.9,3.2c-0.2,0.4-0.3,0.4-0.6,0.2
			c-0.6-0.5-1.3-0.9-2.1-1c-1.8-0.2-3.6,0-5.2,0.9c-1.5,0.9-2.8,1.9-3.9,3.3c-0.6,0.8-1.2,1.6-1.5,2.7c-0.1,0.4-0.2,0.5,0.3,0.5
			c1.9,0.3,3.9,0.1,5.7,0c0.3,0,0.3-0.2,0.3-0.4c0-0.2,0-0.3,0-0.5c0.1-1.3,1.2-3.3,3-3.6c1.5-0.3,2.7,0.5,2.7,2
			C223.8,154.4,223.7,155.1,223.3,155.8z M220.1,156.2c0.4,0,1.1-0.2,1.8-0.2c0.3,0,0.4-0.1,0.6-0.3c0.2-0.3,0.4-0.6,0.5-0.9
			c0.2-0.6,0.3-1.2-0.2-1.8c-0.5-0.6-1.1-0.5-1.8-0.3c-1,0.3-2,1.5-2.1,2.7C218.9,156.1,219.1,156.2,220.1,156.2z"/>
		<path class="st2" d="M121.4,128c-0.3,0.3-0.2,0.7-0.3,1c-0.2,0.9-0.3,1.8-0.6,2.7c-0.4,2.1-1.8,2.8-3.3,2.8c-0.5,0-1,0-1.6,0
			c-0.9,0-1.9,0.2-2.7,0.8c-0.1,0.1-0.2,0.1-0.2,0.1c-0.1,0-0.1,0-0.2,0c0-0.4,0.1-0.9,0.2-1.4c0.3-1.4,0.6-2.7,0.8-4.2
			c0.1-0.9,0.5-1.8,0.7-2.7c0.6-2.9,1.1-5.9,1.7-8.8c0.4-2,0.8-3.9,1.2-5.9c0.3-1,0.3-1.9-0.8-2.6c0.4-0.7,1-1,1.6-1.4
			c1.2-0.8,2.5-1.1,3.9-1.3c0.9-0.1,1.8,0.1,2.5,0.7c0.6,0.5,0.8,1.1,0.7,1.9c-0.2,1.5-0.6,3.1-0.9,4.6c-0.5,2.7-1.1,5.2-1.6,7.9
			c0.3-0.2,0.5-0.5,0.8-0.7c0.3-0.2,0.5-0.4,0.7-0.7c1.6-1.4,3.3-2.7,5.4-3.2c1.6-0.3,3.2-0.3,4.5,0.9c2.2,1.9,1.4,4.9-0.8,5.8
			c-1,0.4-2.1,0.5-3.2-0.2c-0.9-0.6-1.2-1.2-1-2.3c0-0.1,0-0.2,0-0.3c-0.7,0.3-1.3,0.8-1.8,1.3c-0.7,0.8-0.8,1.2-0.2,2
			c0.8,1.1,1.5,2.3,2.4,3.3c1.3,1.5,2.7,2.4,4.8,1.9c0.2,0,0.3,0,0.5,0c0.6,0.1,0.9,0.7,0.6,1.2c-0.3,0.8-1,1.2-1.6,1.5
			c-1.4,0.9-2.9,1.5-4.5,1.8c-1.6,0.3-2.9-0.2-4.1-1.4C123.7,132.4,122.3,130.2,121.4,128z M115.3,126.3c1.8,0.1,3.5-0.3,5.1-0.2
			c0.3,0,0.4-0.3,0.4-0.5c0-0.9,0.3-1.9,0.5-2.8c0.3-1.4,0.5-2.7,0.8-4.1c0.7-2.8,1.2-5.6,1.8-8.5c0.1-0.2,0.1-0.4,0.1-0.6
			c-0.2-0.8-0.7-1.3-1.5-1.4c-1.8-0.1-3.3,0.6-4.7,1.5c-0.2,0.1-0.2,0.3-0.1,0.4c0.4,0.9,0.3,1.9,0.2,2.8c-0.4,2.5-1,4.9-1.5,7.4
			C116.1,122.3,115.4,124.1,115.3,126.3z M130.2,120.4c0.1,0.6-0.1,0.9-0.3,1.4c-0.1,0.3-0.2,0.4-0.3,0.7c-0.2,0.5,0,0.9,0.3,1.2
			c1,0.9,2.4,0.8,3.4-0.2c0.9-0.8,1.1-2,0.7-2.8c-0.9-1.7-2.4-2-3.7-1.9c-1.5,0.2-2.9,0.9-4.2,1.8c-1.7,1.3-3.2,2.8-4.7,4.4
			c-0.2,0.2-0.3,0.3-0.3,0.7c0.2,0.3,0.3,0.5,0.7,0.5c1.4-0.1,2.7,0,4.2-0.3c-0.3-0.5-0.5-1-0.8-1.5c-0.1-0.3-0.2-0.4,0.1-0.7
			C126.7,122,128.3,121.1,130.2,120.4z"/>
		<path class="st2" d="M180.3,134.9c-0.1-0.3,0.1-0.8,0.2-1.1c0.7-2.3,1.1-4.6,1.7-6.9c0.6-2.5,1.3-5,1.8-7.4
			c0.5-2.4,1.3-4.7,1.7-7.2c0.1-0.3,0.2-0.5,0.3-0.9c0.3-0.9,0.3-1.7-0.9-2.1c0.4-0.6,0.9-0.9,1.5-1.2c1-0.7,2.2-1.1,3.5-1.4
			c0.2,0,0.3,0,0.3-0.2s0.1-0.2,0.3-0.1c0.3,0.3,0.8,0.1,1.2,0.2c0.9,0.1,1.6,0.4,2,1.4c0.2,0.6,0.3,1.1,0.1,1.7
			c-0.3,1.3-0.7,2.5-0.9,3.8c-0.3,1.7-0.9,3.4-1.4,5.1c-0.1,0.2-0.1,0.4-0.1,0.7c0.8-0.3,1.4-0.7,2.1-1.1c1.9-1.1,3.9-1.5,6.1-0.9
			c1.4,0.4,2.8,1.7,2.5,3.8c-0.2,1.1-0.6,2.2-0.9,3.3c-0.2,1-0.5,2.1-0.8,3c-0.2,0.7-0.3,1.4,0.4,1.9c0.5,0.3,1,0.3,1.6,0.2
			c0.3-0.1,0.7-0.3,1-0.3c0.6-0.2,0.9,0.2,0.9,0.8c0,0.5-0.3,0.9-0.6,1.2c-0.9,1-2.1,1.7-3.3,2.3c-1.1,0.5-2.3,0.8-3.5,0.9
			c-1.3,0.1-2.6-0.2-3.6-1c-0.9-0.7-1.2-1.7-1.1-2.7c0.2-1.4,0.5-2.7,0.9-3.9c0.2-0.7,0.4-1.3,0.4-2c0-0.9-0.4-1.4-1.3-1.4
			c-0.8,0-1.4,0.3-1.8,1c-0.3,0.6-0.7,1.3-0.9,2c-0.3,1.6-0.9,3.3-1.2,4.9c-0.3,1.9-1.8,2.7-3.4,2.8c-0.5,0.1-1,0-1.6,0
			c-1,0-2,0.2-2.8,0.8c-0.1,0.1-0.2,0.1-0.3,0.2C180.4,134.9,180.4,134.9,180.3,134.9z M190.3,121.4c-0.1-0.3-0.1-0.4-0.1-0.6
			c0.3-1.5,0.8-3.1,1.2-4.5c0.3-1.2,0.6-2.4,0.9-3.6c0.3-1,0.5-2.1,0.8-3.3c0.2-0.8-0.2-1.7-1-1.8c-0.3,0-0.6-0.1-0.9-0.1
			c-1,0-2.1,0.4-3,0.8c-0.6,0.3-1.1,0.5-1.6,0.9c0.5,0.7,0.5,1.4,0.3,2.1c-0.2,0.6-0.3,1.2-0.4,1.8c-0.3,1.8-0.9,3.5-1.3,5.3
			c-0.2,0.9-0.4,1.6-0.6,2.4c-0.3,1.2-0.5,2.3-0.9,3.5c-0.3,1-0.5,2.1-0.7,3.1c1.8-0.2,3.4-0.5,5.1-0.8c0.3-0.1,0.6-0.2,0.8-0.6
			c0.1-0.4,0.3-0.9,0.5-1.4c0.3-1.1,1.1-1.8,2.2-2.1c0.9-0.3,2.1,0,2.7,0.7c0.3,0.4,0.3,0.9,0.3,1.5c0,0.7,0,0.7,0.7,0.6
			c0.4-0.1,0.9-0.2,1.4-0.3c1.1-0.2,2.1-0.4,3.3-0.6c0.3-0.1,0.5-0.2,0.7-0.6c0.3-0.9,0.5-1.8,0.7-2.7c0.3-1.2-0.1-2.2-1-2.7
			c-0.6-0.3-1.3-0.5-2.1-0.6c-1.8-0.1-3.4,0.6-4.9,1.6C192.3,120.2,191.3,120.8,190.3,121.4z"/>
		<path class="st2" d="M150,160.9c-0.6,0.7-1.1,1.3-1.6,1.9c-1.2,1.2-2.6,2.2-4.3,2.5c-1.7,0.3-3-0.4-4.1-1.7
			c-0.9-1.2-1.2-2.6-1.2-4c0-2.3,0.9-4.4,2.1-6.2c1.5-2.2,3.4-3.6,5.9-4.3c2.1-0.5,4.2-0.3,5.9,1.3c0.3,0.3,0.4,0.2,0.7,0
			c0.7-0.4,1.4-0.9,2.1-1.2c0.8-0.3,1.5-0.4,2.2-0.3c1.1,0.3,1.5,0.9,1.3,2.1c-0.6,2.7-1.2,5.3-1.9,8c-0.3,1,0.3,1.7,1.4,1.7
			c0.3,0,0.8-0.1,1.1-0.3c0.5-0.2,1-0.3,1.4,0.2c0.3,0.3,0.2,1-0.3,1.5c-0.9,0.9-2,1.6-3.1,2.2c-1.2,0.5-2.5,0.9-3.8,0.9
			c-1.4,0.1-3.2-0.6-3.6-2.1c-0.2-0.5-0.2-1-0.2-1.6C150,161.3,150,161.1,150,160.9z M139.9,157.4c1.8-0.6,3.5-1.1,5.2-1.5
			c0.4-0.1,0.9-0.1,1.3-0.3c0.3-0.3,0.3-0.8,0.5-1.2c0.4-1,1.3-1.6,2.4-1.9c1.5-0.3,2.5,0.5,2.6,2c0,0.3,0.2,0.4,0.5,0.4
			c1.5-0.1,3.2,0.1,4.7,0.3c0.3,0,0.3-0.2,0.4-0.3c0.3-1.1,0.5-2.2,0.8-3.3c0.1-0.3,0.1-0.4,0.2-0.7c0.1-0.7-0.1-1-0.8-1.3
			c-0.3-0.1-0.8-0.1-1.1,0c-1.1,0.3-2.1,0.9-3,1.5c-0.6,0.3-0.6,0.3-1-0.1c-1-1-2.2-1.5-3.6-1.5c-1.7-0.1-3.2,0.5-4.5,1.4
			c-1.9,1.3-3.3,3.1-4.2,5.2C140,156.5,139.9,156.8,139.9,157.4z M151.2,154.6c0-1.2-0.7-1.7-1.6-1.6c-1.3,0.2-2.2,1.5-2.2,2.5
			c-0.1,1.4,1,2.1,2.2,1.5C150.7,156.4,151,155.5,151.2,154.6z"/>
		<path class="st2" d="M29.1,94.3c-0.4,0.3-0.8,0.4-1.2,0.6c-0.9,0.4-2-0.3-2-1.3c0-0.3,0.1-0.5,0.4-0.7c0.9-0.5,1.7-1,2.7-1.5
			c0.4-0.3,0.5-0.5,0.6-0.9c0.3-2.3,0.4-4.7,0.9-7c0.3-1.5,0.5-3.1,0.8-4.5c0.2-0.8,0.2-0.8,0.9-0.7c0.4,0,0.8,0.2,1.2,0.2
			c0.7,0.1,0.9,0.5,1,1.1c0,0.3,0,0.7,0,0.9c0,0.2,0,0.3-0.1,0.3c-0.8,0.5-0.7,1.5-0.8,2.1c-0.3,1.5-0.4,3.1-0.6,4.6
			c-0.1,0.5-0.1,1-0.2,1.6c-0.1,0.4,0,0.5,0.4,0.3c1.5-0.6,2.9-1.1,4.4-1.5c0.9-0.3,1.2-0.2,2,0.1c0.1-0.7,0.2-1.5,0.3-2.1
			c0.4-2.7,0.8-5.5,1.5-8.1c0.2-0.7,0.6-1,1.5-0.9c0.3,0,0.5,0.1,0.7,0.2c1.1,0.3,1.1,0.4,0.9,1.4c-0.5,2.1-0.7,4.5-1,6.7
			c-0.5,3-0.8,6-1,9c-0.2,1.8-0.3,3.6-0.3,5.4c0.1,1-0.3,1.1-1,1.3c-0.3,0.1-0.6,0.1-0.9,0.1c-1.2,0-2-1-1.9-2.2
			c0-0.3,0-0.4,0.3-0.5c0.3-0.1,0.3-0.3,0.3-0.6c0.2-2.2,0.3-4.5,0.5-6.7c0.1-0.7,0-0.8-0.7-0.5c-1.3,0.4-2.5,0.7-3.7,1.2
			c-0.8,0.3-1.5,0.6-2.2,0.9c-0.3,0.2-0.3,0.3-0.3,0.5c-0.1,1.5-0.2,2.9-0.3,4.3c-0.2,2.7-0.2,5.5-0.1,8.2c0,0.7-0.2,0.9-0.8,1
			c-0.5,0.2-1.1,0.3-1.6,0.2c-0.4,0-0.6-0.2-0.6-0.6c0-0.7-0.1-1.4-0.1-2c0-2,0.1-3.9,0.2-5.8c0.1-1.1,0-2.3,0.3-3.4
			C29.2,94.8,29.2,94.5,29.1,94.3z"/>
		<path class="st2" d="M224.7,123.6c0,2.1-0.7,4.1-2,5.8c-2.1,2.7-4.7,4-8,4.5c-1.9,0.3-3.8,0.2-5.5-0.7c-2.5-1.2-3.9-3.6-3.7-6.5
			c0.2-2.7,1.4-4.9,3.3-6.7c2-1.9,4.5-2.9,7.2-3.2c1.5-0.2,2.8-0.1,4.2,0.3c2.7,0.9,4.5,3.1,4.5,6
			C224.7,123.5,224.7,123.5,224.7,123.6z M223.8,123.6c0.2-3.1-1.9-5.1-4.6-5.7c-1.3-0.3-2.5-0.2-3.8,0c-3.2,0.5-5.6,2.1-7.5,4.7
			c-0.2,0.2-0.3,0.4-0.3,0.7c0.8,0.1,1.5-0.1,2.3-0.2c0.8-0.1,1.5-0.1,2.3-0.1c0.6,0,0.9-0.3,1.2-0.8c0.4-0.8,1-1.4,1.9-1.6
			c1.5-0.5,3.2,0.1,3.4,2.1c0.1,0.3,0.2,0.4,0.4,0.5c0.9,0.2,1.8,0.1,2.7,0.3C222.5,123.6,223.1,123.8,223.8,123.6z M213.7,124.2
			c-0.2,1.2,0.9,2.3,2.5,1.5c1-0.6,1.6-1.5,1.7-2.7c0.1-0.7-0.2-1.2-0.8-1.5c-0.7-0.3-1.3-0.3-1.9,0.1
			C214.3,122.2,213.7,123,213.7,124.2z"/>
		<path class="st2" d="M173.2,162.2c-1.1,0.9-2.2,1.6-3.5,2.1c-1.2,0.5-2.5,0.8-3.8,0.7c-1.3-0.1-2.3-0.6-3.1-1.6
			c-0.5-0.7-0.7-1.4-0.5-2.2c0.3-1.5,0.6-2.9,0.9-4.3c0.3-1.1,0.5-2.2,0.8-3.3c0.3-1,0.3-1.9-0.8-2.4c0-0.2,0.1-0.3,0.2-0.3
			c1.3-0.9,2.6-1.6,4.1-2.1c0.8-0.3,1.5-0.3,2.3-0.3c1.5,0.2,2.3,1.3,2.1,2.7c-0.3,1.9-0.9,3.8-1.3,5.7c-0.1,0.4-0.2,0.8-0.1,1.2
			c0,0.4,0.3,0.7,0.7,0.8c0.9,0.3,1.9-0.2,2.3-0.9c0.2-0.3,0.3-0.6,0.4-0.9c0.3-1.3,0.8-2.5,1-3.8c0.1-0.3,0.1-0.5,0.1-0.8
			c0-0.5-0.2-0.9-0.7-1.3c-0.4-0.2-0.4-0.3-0.1-0.5c1.5-1,3.2-2,5.1-2.2c0.6-0.1,1.2-0.1,1.7,0.1c0.9,0.2,1.4,0.8,1.7,1.6
			c0.1,0.3,0.1,0.5,0,0.8c-0.6,2.4-1.2,4.8-1.7,7.2c-0.1,0.3-0.2,0.8-0.1,1.1c0,0.7,0.4,1,1,1c0.4,0,0.8,0,1.2-0.2
			c0.3-0.2,0.6-0.2,0.9-0.2c0.5,0,0.9,0.5,0.7,1c-0.2,0.5-0.5,0.9-0.9,1.4c-1.5,1.4-3.3,2.1-5.1,2.5c-1,0.3-2.1,0.3-3.1,0
			c-0.9-0.3-1.7-0.7-2.1-1.6C173.3,162.9,173.3,162.6,173.2,162.2z M168.3,156.4c0.2,0,0.4,0,0.7,0c0.9,0,0.9,0,1.2-0.9
			c0.3-1.5,0.7-2.8,0.9-4.3c0.2-0.8-0.3-1.7-1-1.8c-0.8-0.1-1.6-0.2-2.4,0.1c-1.1,0.3-2.1,0.8-3.1,1.4c-0.3,0.2-0.3,0.3-0.2,0.5
			c0.2,0.3,0.3,0.4,0.3,0.8c0,0.6,0,1.2-0.2,1.7c-0.2,0.5-0.3,1.1-0.3,1.7c-0.1,0.3,0,0.5,0.3,0.5
			C165.9,156.2,167.1,156.5,168.3,156.4z M175.1,151c0.8,0.8,0.8,1.5,0.5,2.4c-0.2,0.8-0.4,1.5-0.6,2.2c-0.1,0.4,0,0.5,0.3,0.4
			c0.3,0,0.7-0.1,1-0.2c1.4-0.2,2.7-0.3,4-0.6c0.3-0.1,0.5-0.2,0.6-0.5c0.3-1.2,0.5-2.4,0.9-3.6c0.3-1.1-0.3-1.9-1.5-2
			C178.4,149.1,176.8,150,175.1,151z"/>
		<path class="st2" d="M185.2,165.1c0.2-0.8,0.3-1.5,0.5-2.3c0.4-1.2,0.6-2.5,0.9-3.8c0.4-1.8,0.9-3.5,1.4-5.2
			c0.2-0.6,0.3-1.1,0.3-1.7c0-0.5-0.1-1-0.6-1.3c-0.1-0.1-0.2-0.1-0.3-0.2c0.8-0.7,1.6-1,2.4-1.5c1.3-0.6,2.6-1,4-0.9
			c1.7,0.1,2.2,0.5,2.6,2.2c0.5-0.3,0.9-0.7,1.5-0.9c1.6-1,3.4-1.5,5.4-1.4c0.3,0,0.6,0.1,0.9,0.2c2.1,0.5,3.2,2.1,2.6,4.4
			c-0.5,1.9-0.9,3.9-1.5,5.7c-0.5,1.5,0.5,2.1,1.7,1.8c0.3-0.1,0.8-0.2,1.1-0.3c0.4-0.2,0.8-0.1,1,0.3c0.3,0.4,0.1,0.7-0.1,1
			c-0.3,0.7-0.9,1.2-1.6,1.6c-2,1.4-4.1,2.1-6.6,1.9c-0.4,0-0.9-0.1-1.3-0.3c-1.9-0.6-2.9-2.2-2.2-4.5c0.5-1.5,0.8-3.1,1.1-4.6
			c0.2-0.9-0.4-1.5-1.4-1.4s-1.5,0.8-2,1.5c-0.2,0.3-0.3,0.5-0.3,0.9c-0.4,1.6-0.9,3.3-1.3,4.9c-0.1,0.6-0.4,1.2-0.8,1.7
			c-0.6,0.9-1.5,1.4-2.7,1.5c-0.5,0-1,0-1.5,0c-1.2,0-2.4,0-3.3,0.8C185.2,165.2,185.2,165.2,185.2,165.1z M206.2,151.6
			c0.1-1.1-0.9-2.1-1.9-2.5c-0.9-0.3-2.1-0.3-3-0.1c-1.7,0.3-3.3,1-4.6,2.3c-0.3,0.3-0.5,0.6-0.9,0.4c-0.3-0.2-0.2-0.6-0.2-0.9
			c0-0.2,0-0.3-0.1-0.5c-0.1-0.5-0.4-0.9-0.9-1.1c-0.3-0.2-0.8-0.2-1.2-0.2c-1.6,0.1-3.1,0.7-4.5,1.5c-0.3,0.2-0.3,0.3-0.2,0.7
			c0.2,0.3,0.3,0.8,0.3,1.2c-0.1,0.4-0.2,0.9-0.3,1.3c-0.2,0.9-0.1,0.9,0.7,0.9h0.1c1.6,0,3.3-0.1,4.8,0.2c0.3,0.1,0.6,0,0.9-0.2
			c0.2-0.2,0.3-0.3,0.6-0.4c1.2-0.8,2.7-0.3,3.3,0.9c0.1,0.2,0.3,0.3,0.4,0.3c1.2,0.2,2.5,0.3,3.8,0.5c0.5,0.1,0.9,0.1,1.5,0.2
			c0.3,0.1,0.5-0.1,0.5-0.4c0.3-1,0.5-2.1,0.9-3C206.2,152,206.2,151.8,206.2,151.6z"/>
		<path class="st2" d="M100.7,130.6c-0.9,0.9-1.5,1.7-2.1,2.4c-0.9,0.9-1.9,1.5-3.1,1.9c-1.4,0.3-2.7,0.3-3.9-0.4
			c-0.6-0.3-1-0.9-1.4-1.5c-1.3-2-1.4-4.2-0.9-6.4c0.4-1.7,1.1-3.3,2.3-4.8c1-1.3,2.2-2.4,3.7-3.1c2.2-1,4.5-1.2,6.8-0.1
			c0.3,0.2,0.7,0.5,1,0.8c0.3,0.2,0.4,0.3,0.7,0c0.7-0.4,1.3-0.9,2-1.1c0.9-0.3,1.7-0.5,2.6-0.3c1,0.3,1.5,1.1,1.3,2.2
			c-0.2,0.7-0.3,1.4-0.4,2.1c-0.4,2.1-0.9,4.1-1.2,6.2c-0.2,1.3,0.6,2,1.9,1.6c0.3-0.1,0.7-0.3,1-0.3c0.8-0.2,1.3,0.3,1.1,1.1
			c-0.2,0.7-0.7,1.1-1.2,1.5c-1.5,1.2-3.1,2-5,2.3c-1.2,0.2-2.3,0.3-3.4-0.4c-1.1-0.7-1.8-1.5-1.8-2.9
			C100.7,131.3,100.7,131.1,100.7,130.6z M100.7,127.5c1.5-0.1,3-0.3,4.5-0.3c0.6-0.1,1.2-0.1,1.8-0.2c0.4-0.1,0.7-0.2,0.7-0.7
			c0.2-1.1,0.4-2.2,0.6-3.3c0.2-0.9,0.4-1.8,0.6-2.7s-0.2-1.3-1-1.4c-0.6-0.1-1.2,0.1-1.7,0.3c-0.8,0.4-1.5,0.8-2.2,1.3
			c-0.5,0.3-0.7,0.3-1-0.1c-1.1-1.4-2.7-1.8-4.3-1.7c-2.7,0.2-4.7,1.6-6.2,3.7c-0.7,0.9-1.2,1.9-1.6,2.9c-0.4,0.9-0.5,1.9-0.7,2.9
			c-0.1,0.3,0.1,0.4,0.4,0.4c0.9-0.2,1.7-0.2,2.6-0.3c1.7-0.3,3.4-0.4,5.1-0.6c0.2,0,0.3,0,0.5-0.2c-1.2-0.3-1.8-1.3-1.8-2.4
			c0-1.4,0.6-2.5,1.9-3.2c1.4-0.7,2.8-0.3,3.5,0.6c0.5,0.8,0.5,1.6,0.2,2.5C102.2,126.1,101.6,127,100.7,127.5z M97.8,125.2
			c0,0.3,0,0.6,0.2,0.9c0.5,0.9,1.7,1,2.6,0.3c0.7-0.6,1-1.3,1.2-2.2c0.1-1-0.4-1.7-1.5-1.7C99,122.4,97.9,123.7,97.8,125.2z"/>
		<path class="st2" d="M144.4,134.9c-1.8,0.1-3.5-0.3-5.1-1.4c-1.7-1.2-2.7-2.9-2.9-5.1c-0.1-1.2-0.1-2.4,0.4-3.5
			c0.6-1.4,1.4-2.7,2.6-3.8c1.5-1.3,3-2.3,4.9-2.9c2.2-0.8,4.5-1,6.8-0.4c1.5,0.4,2.6,1.3,3.2,2.7c0.3,0.7,0.4,1.4,0.3,2.1
			c-0.3,2-1.7,3.1-3.3,3.9c-1.8,0.9-3.8,1.4-5.7,1.5c-0.7,0.1-0.9,0.3-0.5,0.9c0.2,0.4,0.5,0.7,0.9,0.9c0.9,0.3,1.8,0.3,2.7,0.1
			c1.5-0.3,2.8-1,4.1-1.8c0.4-0.3,0.9-0.5,1.5-0.6c0.9-0.1,1.5,0.7,1.1,1.5c-0.3,0.9-1.1,1.6-1.9,2.2c-2.1,1.7-4.5,2.9-7.2,3.3
			c-0.2,0-0.3,0.1-0.5,0.1C145.2,134.9,144.7,134.9,144.4,134.9z M137.6,125.9c1.5,0.3,3,0.2,4.5,0.3c1.7,0.2,3.4,0.3,5.1,0.4
			c0.9,0.1,1.9,0.2,2.7-0.3c0.3-0.2,0.7-0.3,1-0.5c0.9-0.5,1.6-1.1,2.1-2c0.9-1.5,0.5-3.4-1.3-4.5c-1.5-0.9-3.3-0.9-4.9-0.8
			c-3.1,0.4-5.7,1.7-7.8,4.1C138.5,123.6,137.9,124.6,137.6,125.9z"/>
		<path class="st2" d="M253.6,133.9c-1.4,0.1-2.9-0.3-4.3-1.1c-1.5-0.9-2.5-2.1-3-3.9c-0.6-2.1-0.1-4.1,1-6c1.7-2.9,4.3-4.7,7.4-5.7
			c1.5-0.5,3.2-0.8,4.8-0.8c1.5,0.1,2.9,0.4,4.2,1.5c1.8,1.4,1.5,4.4,0.3,5.6c-1.4,1.6-3.3,2.4-5.1,3c-1.2,0.3-2.5,0.6-3.8,0.7
			c-0.5,0-0.6,0.2-0.4,0.7c0.2,0.6,0.5,1,1.1,1.2c0.5,0.2,1.1,0.3,1.6,0.2c1.9-0.3,3.5-0.9,5.1-1.9c0.4-0.3,0.9-0.4,1.3-0.6
			c0.5-0.2,0.9-0.1,1.3,0.3c0.3,0.3,0.3,0.9,0,1.4c-0.5,0.9-1.2,1.6-2,2.2c-2.2,1.6-4.6,2.9-7.4,3.3
			C255.2,133.9,254.6,133.9,253.6,133.9z M250.6,127.2L250.6,127.2c0.9,0,1.8,0,2.7,0c0.3,0,0.5,0,0.5-0.3c0-0.3,0.3-0.4,0.5-0.4
			c0.8-0.1,1.6-0.2,2.4-0.3c1.9-0.3,3.7-0.9,5.2-1.8c0.8-0.5,1.5-1.1,1.9-2c0.7-1.5,0.3-3-0.9-4c-0.9-0.7-1.9-0.9-3-1
			c-2.6-0.2-5,0.4-7.2,1.6c-1.7,0.9-3.2,2.2-4.3,3.8c-0.8,1-1.1,2.1-1.4,3.3c-0.2,0.9,0,1.1,0.9,1.1
			C248.8,127.2,249.7,127.2,250.6,127.2z"/>
		<path class="st2" d="M244.9,151.4c0.6-0.5,1.1-0.9,1.6-1.4c1.3-1.1,2.7-1.8,4.4-2c1.4-0.2,2.6,0.1,3.5,1.2
			c0.3,0.4,0.5,0.9,0.5,1.4c0.1,1.2-0.3,2.2-1,3.2c-1.1,1.4-2.5,2.2-4.4,2.1c-0.6,0-1.1-0.3-1.5-0.6c-0.6-0.5-0.9-1.1-0.8-2.1
			c-1,0.5-1.8,1.2-2.5,2c-0.7,0.8-1.2,1.6-1.5,2.7c-0.3,0.9-0.7,2-0.9,3c-0.3,1.1-0.8,2.1-1.8,2.7c-0.5,0.3-1.1,0.5-1.8,0.6
			c-0.4,0-0.8,0.1-1.2,0c-1.4-0.1-2.7,0.1-3.7,0.9c-0.2-0.1-0.2-0.1-0.2-0.2c0.3-1.1,0.5-2.2,0.9-3.3c0.2-0.5,0.3-1.1,0.4-1.7
			c0.6-2.1,1.1-4.2,1.7-6.3c0.2-0.5,0.3-1.1,0.3-1.6c0.1-0.5-0.1-1-0.5-1.4c-0.3-0.2-0.3-0.3-0.1-0.5c2-1.4,4-2.2,6.5-2.2
			c0.4,0,0.9,0.2,1.2,0.3c0.8,0.3,1.1,1.2,0.9,2.1C245,150.7,244.9,150.9,244.9,151.4z M248.4,152.1c0.1,0.4-0.1,0.6-0.2,0.9
			s0,0.4,0.3,0.4c0.2,0,0.3,0,0.4,0c1.5-0.1,2.9-0.2,4.4-0.3c0.2,0,0.4,0,0.5-0.3c0.3-0.9,0.7-1.6,0.3-2.6c-0.3-1-1.2-1.5-2.2-1.5
			c-1.5-0.1-3,0.4-4.2,1.4c-1.2,0.9-2.3,1.9-3.5,2.8c-0.2,0.1-0.3,0.3-0.4,0.2c-0.1-0.2,0-0.3,0-0.4c0.2-0.9,0.4-1.7,0.5-2.7
			c0-0.6-0.3-0.9-0.7-1.1c-0.3-0.1-0.4-0.2-0.7-0.2c-2-0.2-3.7,0.6-5.3,1.5c-0.3,0.1-0.2,0.3-0.1,0.5c0.2,0.4,0.3,0.8,0.3,1.3
			c-0.1,0.6-0.3,1.2-0.3,1.8c-0.1,0.5,0,0.6,0.5,0.5c2.2-0.3,4.5-0.3,6.7-0.6c0.6-0.1,1.1-0.2,1.5-0.5
			C246.9,152.8,247.6,152.4,248.4,152.1z"/>
		<path class="st2" d="M169.3,134.7c-1.6,0.1-3.2-0.2-4.6-0.8c-0.9-0.3-1.6-0.9-2.1-1.6c-0.7-1-0.8-2.1-0.2-3.2
			c0.6-1,1.6-1.5,2.9-1.4c0.8,0.1,1.4,0.3,2,0.9c0.5,0.4,0.9,0.8,1.5,1.3c0.3,0.4,0.9,0.8,1.4,1c0.3,0.1,0.5,0.2,0.8,0.2
			c0.6,0,0.9-0.2,1.1-0.6c0.2-0.4,0.1-0.9-0.4-1.2c-0.8-0.5-1.6-0.9-2.4-1.5c-1.1-0.7-2.3-1.4-3.2-2.4c-0.3-0.3-0.4-0.5-0.5-0.9
			c-0.5-2.1-0.1-3.5,1.4-4.9c1.5-1.5,3.5-2,5.6-2.1c1.7-0.1,3.4,0.2,5.1,0.8c0.8,0.3,1.4,0.8,1.9,1.4c0.9,1.2,0.4,2.6-0.8,3.3
			c-0.9,0.5-1.7,0.3-2.5-0.2c-0.4-0.3-0.9-0.6-1.3-0.9c-0.3-0.3-0.6-0.5-0.9-0.7c-0.3-0.2-0.6-0.3-0.9-0.3s-0.6,0.2-0.8,0.5
			c-0.2,0.3,0,0.6,0.2,0.8c0.5,0.7,1.4,1,2.1,1.4c1,0.5,2.1,1,3,2c1.1,1.2,1.5,2.6,1,4.2c-0.7,2.1-2.2,3.4-4.2,4.2
			C172.7,134.4,171,134.7,169.3,134.7z M172.7,128.3c1.1-0.1,2.2-0.1,3.3-0.1c0.3,0,0.8,0,1.1-0.1c0.5-0.1,0.7-0.3,0.4-0.7
			c-0.3-0.7-0.7-1.3-1.3-1.7c-0.9-0.8-2.1-1.3-3.1-1.8c-0.6-0.3-1.1-0.6-1.5-1c-0.6-0.6-0.7-1.4-0.3-2.1c0.4-0.8,1.5-1,2.5-0.7
			c0.4,0.2,0.8,0.4,1.1,0.8c0.6,0.5,1.2,1,1.9,1.4c0.7,0.3,1.4,0.1,1.8-0.5c0.3-0.5,0.2-1.2-0.3-1.7c-0.3-0.3-0.8-0.7-1.2-0.9
			c-2.8-1.1-5.7-1.2-8.4,0.1c-1.3,0.6-2.4,1.5-2.7,3.1c-0.2,1-0.1,2,0.6,2.7c0.3,0.4,0.9,0.7,1.3,1.1c0.8,0.6,1.6,0.9,2.5,1.5
			C171,128.2,171.8,128.4,172.7,128.3z"/>
		<path class="st2" d="M83.7,90.3c0.3-0.7,0.7-1.3,0.9-1.9c0.8-1.6,1.6-3.3,2.6-4.8c0.3-0.5,0.7-1,1-1.5c0.2-0.3,0.5-0.4,0.9-0.4
			c0.6,0.1,1.2,0.2,1.7,0.3c0.8,0.3,1,0.9,0.9,1.7c-0.3,1.7-0.8,3.3-1.3,5c-0.4,1.3-0.6,2.6-0.6,3.9c0,0.3,0.1,0.8,0.2,1.1
			c0.2,0.8,0.7,1.1,1.4,1.3c0.7,0.2,1.2-0.1,1.6-0.6c0.2-0.3,0.3-0.5,0.5-0.8c0.2-0.3,0.3-0.3,0.6-0.1c0.3,0.2,0.4,0.5,0.3,0.9
			c-0.1,1.1-0.8,1.7-1.6,2.1c-1.4,0.5-2.7,0.4-4-0.3c-0.9-0.6-1.5-1.5-1.7-2.5c-0.3-1.2-0.1-2.4,0.1-3.6c0.1-0.8,0.3-1.5,0.5-2.3
			c0.1-0.2,0.2-0.4-0.1-0.5c-0.3-0.1-0.4,0.1-0.5,0.3c-0.3,0.6-0.7,1.3-1,1.9c-0.8,1.5-1.4,3.2-1.8,4.9c-0.1,0.4-0.1,0.9-0.1,1.3
			s-0.3,0.6-0.6,0.7c-1.2,0.3-2.4-0.5-2.7-1.7c-0.4-1.6-0.3-3.3-0.3-5c0.1-1.2,0.1-2.4,0.4-3.6c0.2-0.8,0.3-1.5,0.8-2.2
			c0.4-0.9,1.1-1.3,2.1-1.2c0.8,0.1,1,0.3,0.9,1.1c-0.2,0.8-0.3,1.5-0.5,2.2c-0.3,1.3-0.6,2.7-0.6,4C83.5,90,83.5,90.1,83.7,90.3z"
			/>
		<path class="st2" d="M239.4,122.3c-0.9,0.4-1.6,1-2.1,1.6c-1.1,1.2-1.8,2.7-2.3,4.3c-0.3,0.9-0.5,1.8-0.8,2.7
			c-0.6,1.8-1.9,2.7-3.8,2.7c-0.7,0-1.4,0-2,0.1c-0.9,0.1-1.9,0.4-2.7,0.9c-0.3-0.5,0-0.9,0.1-1.4c0.5-1.6,0.9-3.3,1.4-4.9
			c0.6-2.1,1.2-4.2,1.7-6.3c0-0.1,0.1-0.2,0.1-0.3c0.3-1.2,0.1-1.6-0.7-2.6c1.2-0.9,2.6-1.6,4-2.1c0.9-0.3,1.8-0.4,2.7-0.4
			c0.4,0,0.9,0.2,1.2,0.3c0.6,0.3,0.9,0.8,0.9,1.5c0,0.5,0,1-0.2,1.5c0.4,0,0.6-0.3,0.9-0.5c1-0.9,2-1.7,3.3-2.2
			c1.2-0.5,2.5-0.8,3.9-0.5c1.8,0.3,2.7,2.3,2.2,3.8c-0.6,2.1-1.9,3.6-4,4.2c-1.2,0.3-2.3,0.2-3.3-0.8
			C239.4,123.5,239.4,122.9,239.4,122.3z M235.7,122.4c0-0.4,0-0.7,0.1-1c0.2-0.9,0.4-1.7,0.4-2.6c0-0.7-0.3-1-0.9-1.2
			c-0.5-0.2-1-0.1-1.6,0c-1.4,0.2-2.7,0.8-3.9,1.5c-0.3,0.1-0.3,0.3-0.2,0.5c0.3,0.7,0.3,1.4,0.2,2.1c-0.2,0.9-0.3,1.7-0.6,2.5
			c-0.2,0.4-0.1,0.5,0.3,0.6c0.9,0.2,1.7,0.3,2.5,0.4c0.8,0.1,1.5,0.3,2.4,0.3c0.3,0,0.5-0.1,0.7-0.3c1.2-2.1,3.3-3.4,5.4-4.5
			c0.1,0,0.2,0,0.3,0.1c-0.2,0.5-0.3,1-0.5,1.5c-0.3,0.7-0.1,1.1,0.6,1.5c1.2,0.7,2.2,0.3,3.3-0.4c1.1-0.7,1.7-1.7,2-2.9
			c0.4-1.5-0.4-2.7-1.7-2.8c-1.5-0.3-3,0.2-4.3,1c-0.8,0.5-1.5,1.2-2.2,1.8C237.4,121.1,236.6,121.7,235.7,122.4z"/>
		<path class="st2" d="M194.4,107c0.1,0.3,0.4,0.3,0.5,0.5c0.1,0.3-0.1,0.2-0.2,0.1c-0.3-0.1-0.2,0.3-0.4,0.3
			C194.1,107.7,194.6,107.4,194.4,107L194.4,107z"/>
		<path class="st2" d="M192.9,105.5c0.2,0.3,0.4,0.4,0.1,0.8C192.9,106.1,192.9,105.9,192.9,105.5z"/>
		<path class="st2" d="M28.6,81.2c0-0.1,0.1-0.2,0.2-0.3c0.2,0,0.3,0.1,0.3,0.3c0,0.1-0.1,0.2-0.2,0.2
			C28.7,81.4,28.6,81.4,28.6,81.2z"/>
		<path class="st2" d="M187.4,106.3c0.3,0,0.3,0.2,0.5,0.3C187.6,106.6,187.5,106.6,187.4,106.3z"/>
		<path class="st2" d="M196.4,112.8c-0.1-0.1-0.1-0.1-0.1-0.2c0-0.1,0.1-0.2,0.2-0.1c0.1,0,0.1,0.1,0.1,0.2S196.5,112.9,196.4,112.8
			z"/>
		<path class="st2" d="M184.4,107.3c0,0.1-0.1,0.1-0.2,0.1c-0.1-0.1-0.1-0.1-0.1-0.2c0-0.1,0.1-0.2,0.2-0.1
			C184.4,107.1,184.4,107.2,184.4,107.3z"/>
		<path class="st2" d="M197.4,115.5c0.1,0,0.2,0.1,0.1,0.2c0,0.1-0.1,0.2-0.2,0.1c-0.1,0-0.1-0.1-0.1-0.1
			C197.3,115.5,197.3,115.5,197.4,115.5z"/>
		<path class="st2" d="M186.9,104.8C186.9,104.9,186.9,104.9,186.9,104.8c-0.1,0.1-0.2,0-0.2,0S186.7,104.7,186.9,104.8
			C186.8,104.7,186.9,104.8,186.9,104.8z"/>
		<path class="st2" d="M197,105.6L197,105.6c-0.2,0.1-0.2,0-0.2-0.1l0.1-0.1C197,105.6,197,105.6,197,105.6z"/>
		<path class="st2" d="M194.3,111.1c0.1,0,0.2,0.1,0.2,0.1c0,0.1,0,0.1-0.1,0.1C194.3,111.3,194.2,111.3,194.3,111.1
			C194.2,111.2,194.2,111.1,194.3,111.1z"/>
		<path class="st2" d="M194.4,107c-0.1,0-0.1,0-0.2-0.1C194.2,106.9,194.2,106.9,194.4,107C194.3,107,194.3,107,194.4,107L194.4,107
			z"/>
		<path class="st1" d="M54.1,143.4c-1.5,1-2.7,1.9-4.4,2.1c-1.1,0.2-2.1,0.3-3.3-0.1c-0.4-0.2-0.9-0.4-1.2-0.8
			c-0.7-0.7-0.7-1.6,0-2.2c0.5-0.5,1.2-0.8,1.9-0.7C49.6,141.9,51.8,142.6,54.1,143.4z"/>
		<path class="st1" d="M104.6,174c-1.7,1.2-3.5,2.2-5.6,2.3c-1,0.1-2.1-0.1-2.9-0.8c-0.9-0.8-0.9-1.9,0.1-2.7c0.6-0.4,1.3-0.6,2-0.5
			C100.2,172.7,102.4,173.3,104.6,174z"/>
		<path class="st1" d="M71,88.8c0.2,0,0.2,0,0.3,0c0.8,0.1,0.7,0.1,0.9-0.6c0.5-1.5,1.1-3,2.2-4.2c0.4-0.5,1-0.9,1.8-0.8
			c0.6,0,0.9,0.3,1.1,0.9c0.1,0.3,0.2,0.8,0.2,1.1c-0.1,2.1-0.5,4.1-1.4,6c-0.3,0.8-0.9,1.5-1.5,2c-0.9,0.6-2.1,0.6-3-0.2
			c-0.6-0.5-0.7-1.2-0.8-1.9C70.7,90.6,70.8,89.6,71,88.8z"/>
		<path class="st1" d="M220.1,156.2c-1,0-1.2-0.1-1.1-0.9c0.1-1.3,1.1-2.5,2.1-2.7c0.6-0.2,1.3-0.3,1.8,0.3s0.3,1.2,0.2,1.8
			c-0.1,0.3-0.3,0.7-0.5,0.9c-0.1,0.3-0.3,0.3-0.6,0.3C221.1,156,220.4,156.2,220.1,156.2z"/>
		<path class="st1" d="M151.2,154.6c-0.2,0.9-0.5,1.8-1.6,2.4c-1.2,0.6-2.3-0.1-2.2-1.5c0.1-1,1-2.3,2.2-2.5
			C150.6,152.9,151.2,153.5,151.2,154.6z"/>
		<path class="st1" d="M213.7,124.2c0-1.2,0.6-2,1.5-2.7c0.6-0.4,1.3-0.4,1.9-0.1s0.9,0.9,0.8,1.5c-0.1,1.2-0.6,2.1-1.7,2.7
			C214.8,126.5,213.6,125.4,213.7,124.2z"/>
		<path class="st1" d="M97.8,125.2c0-1.5,1.2-2.7,2.5-2.7c1.1,0,1.6,0.6,1.5,1.7c-0.1,0.9-0.5,1.6-1.2,2.2c-0.9,0.7-2.1,0.6-2.6-0.3
			C97.9,125.8,97.8,125.4,97.8,125.2z"/>
		<path class="st2" d="M80.9,119.8c-0.1,0.9-0.3,2-0.9,2.9c-1.6,2.2-3.8,3.9-6.2,5c-1.1,0.5-2.2,0.9-3.4,1.1
			c-0.6,0.2-0.6,0.1-0.5-0.5c0.1-0.3,0.1-0.8,0.3-1.1c0.7-1.2,1-2.5,1.6-3.8c0.3-0.6,0.5-1.2,0.8-1.9c0.3-0.9,0.7-1.6,1.4-2.3
			c0.5-0.5,0.9-1,1.5-1.5c1.4-1.1,3.6-1.4,4.9-0.1C80.5,118.3,80.9,118.9,80.9,119.8z M71.1,127.5c0.2,0,0.4-0.1,0.6-0.1
			c2.5-0.8,4.6-2.1,6.4-3.9c0.9-0.9,1.7-2.1,2-3.4c0.2-1-0.3-2-1.4-2.4c-0.9-0.3-1.7-0.1-2.5,0.4c-1.3,0.8-2.1,2-2.7,3.3
			c-0.9,1.9-1.6,3.9-2.4,5.7C71,127.1,71,127.3,71.1,127.5C71,127.5,71,127.5,71.1,127.5C71,127.5,71,127.5,71.1,127.5z"/>
		<path class="st2" d="M78.8,136.9C78.8,136.8,78.9,136.8,78.8,136.9C78.9,136.8,78.9,136.9,78.8,136.9L78.8,136.9z"/>
		<path class="st2" d="M120.5,159.8c0.1-0.8,0.3-1.5,0.7-2.1c0.3-0.4,0.4-0.9,0.7-1.4c0.6-1.3,1.2-2.7,1.8-3.9
			c0.6-1.3,1.5-2.4,2.6-3.2c1-0.8,2.1-1.2,3.4-0.9c1.1,0.3,2.3,1.3,2.1,3c-0.2,1.4-0.9,2.5-1.7,3.3
			C127.5,157.5,124.3,159.1,120.5,159.8z M121.7,158.5c0.2,0,0.2,0.1,0.3,0c0.2,0,0.3-0.1,0.3-0.1c2.1-0.6,3.9-1.6,5.6-3
			c1.3-1.1,2.4-2.3,2.9-4c0.3-0.9-0.2-1.8-1-2.2c-0.9-0.5-1.8-0.2-2.7,0.3c-0.9,0.5-1.5,1.3-2.1,2.1c-0.7,0.9-1.1,2.1-1.6,3.2
			C122.8,156,122.2,157.3,121.7,158.5z"/>
		<path class="st2" d="M149.6,122.6c0,1-0.7,1.5-1.5,2c-1.2,0.6-2.5,0.7-3.8,0.9c-0.2,0-0.3-0.1-0.3-0.3c0.3-1.5,0.8-3.1,2.2-4
			c0.7-0.4,1.5-0.7,2.2-0.3C149.1,121.1,149.6,121.7,149.6,122.6z M145.2,124.3c1-0.1,2-0.3,2.7-0.8c0.1-0.1,0.3-0.2,0.3-0.3
			c0.5-0.4,0.6-1,0.3-1.5c-0.3-0.4-0.8-0.5-1.4-0.3C146,122.1,145.4,123,145.2,124.3z"/>
		<path class="st2" d="M258.1,119.5c1.3-0.3,2.3,1.5,1.6,2.7c-0.6,0.9-1.5,1.4-2.6,1.6c-0.9,0.3-1.7,0.3-2.6,0.5
			c-0.4,0.1-0.6-0.1-0.4-0.4c0.4-1.3,0.9-2.5,1.9-3.4C256.6,119.8,257.3,119.5,258.1,119.5z M255.3,123.1c1.2-0.2,2.2-0.3,3.1-0.9
			c0.2-0.1,0.3-0.3,0.4-0.4c0.2-0.2,0.2-0.3,0.2-0.5c0.1-0.9-0.7-1.4-1.5-1C256.3,120.8,255.8,121.8,255.3,123.1z"/>
		<path class="st1" d="M71,127.4c0-0.1,0-0.2,0.1-0.3c0.8-1.9,1.5-3.9,2.4-5.7c0.6-1.3,1.5-2.5,2.7-3.3c0.8-0.4,1.6-0.8,2.5-0.4
			c1,0.3,1.5,1.3,1.4,2.4c-0.3,1.4-1,2.5-2,3.4c-1.8,1.9-4,3.1-6.4,3.9C71.6,127.4,71.3,127.4,71,127.4L71,127.4z"/>
		<path class="st1" d="M71.1,127.5C71.1,127.5,71,127.5,71.1,127.5C71,127.5,71,127.4,71.1,127.5C71,127.4,71,127.4,71.1,127.5z"/>
		<path class="st1" d="M121.7,158.5c0.6-1.3,1.1-2.6,1.7-3.8c0.5-1,0.9-2.2,1.6-3.2c0.6-0.8,1.2-1.6,2.1-2.1
			c0.9-0.4,1.7-0.7,2.7-0.3c0.8,0.4,1.2,1.4,1,2.2c-0.4,1.7-1.5,2.9-2.9,4c-1.6,1.4-3.5,2.4-5.7,3c-0.2,0-0.3,0.1-0.3,0.1
			C121.9,158.5,121.9,158.5,121.7,158.5z"/>
		<path class="st1" d="M145.2,124.3c0.3-1.3,0.9-2.3,2.1-2.7c0.6-0.3,1.1-0.1,1.4,0.3c0.3,0.5,0.2,1-0.3,1.5
			c-0.1,0.1-0.2,0.2-0.3,0.3C147.1,124,146.2,124.2,145.2,124.3z"/>
		<path class="st1" d="M255.3,123.1c0.4-1.3,1-2.3,2.2-2.8c0.9-0.3,1.6,0.2,1.5,1c0,0.2-0.1,0.3-0.2,0.5c-0.2,0.2-0.3,0.3-0.4,0.4
			C257.5,122.8,256.5,123,255.3,123.1z"/>
	</g>
</g>
</svg>
